<svg width="209" height="142" viewBox="0 0 209 142" fill="none" xmlns="http://www.w3.org/2000/svg">
<path d="M19.7979 0H120.925L141.317 19.1154V122.885H40.2786V19.1154L19.7979 0Z" fill="#DFDFDF"/>
<path d="M20.1394 0C9.01673 0 0 8.55825 0 19.1154H40.2788C40.2788 8.55825 31.2621 0 20.1394 0Z" fill="black"/>
<path d="M121.178 0C110.055 0 101.039 8.55825 101.039 19.1154H141.317C141.317 8.55825 132.301 0 121.178 0Z" fill="#DFDFDF"/>
<mask id="mask0_282_3" style="mask-type:alpha" maskUnits="userSpaceOnUse" x="51" y="19" width="81" height="7">
<rect x="51.8848" y="19.1154" width="79.875" height="6.82692" fill="black"/>
</mask>
<g mask="url(#mask0_282_3)">
<circle cx="102.063" cy="20.8221" r="1.02404" fill="black"/>
<circle cx="97.9664" cy="20.8221" r="1.02404" fill="black"/>
<circle cx="93.8702" cy="20.8221" r="1.02404" fill="black"/>
<circle cx="89.7745" cy="20.8221" r="1.02404" fill="black"/>
<circle cx="85.6783" cy="20.8221" r="1.02404" fill="black"/>
<circle cx="81.5821" cy="20.8221" r="1.02404" fill="black"/>
<circle cx="77.486" cy="20.8221" r="1.02404" fill="black"/>
<circle cx="73.3898" cy="20.8221" r="1.02404" fill="black"/>
<circle cx="69.2936" cy="20.8221" r="1.02404" fill="black"/>
<circle cx="65.1974" cy="20.8221" r="1.02404" fill="black"/>
<circle cx="61.1012" cy="20.8221" r="1.02404" fill="black"/>
<circle cx="57.005" cy="20.8221" r="1.02404" fill="black"/>
<circle cx="52.9088" cy="20.8221" r="1.02404" fill="black"/>
<circle cx="102.063" cy="24.9183" r="1.02404" fill="black"/>
<circle cx="97.9664" cy="24.9183" r="1.02404" fill="black"/>
<circle cx="93.8702" cy="24.9183" r="1.02404" fill="black"/>
<circle cx="89.7745" cy="24.9183" r="1.02404" fill="black"/>
<circle cx="85.6783" cy="24.9183" r="1.02404" fill="black"/>
<circle cx="81.5821" cy="24.9183" r="1.02404" fill="black"/>
<circle cx="77.486" cy="24.9183" r="1.02404" fill="black"/>
<circle cx="73.3898" cy="24.9183" r="1.02404" fill="black"/>
<circle cx="69.2936" cy="24.9183" r="1.02404" fill="black"/>
<circle cx="65.1974" cy="24.9183" r="1.02404" fill="black"/>
<circle cx="61.1012" cy="24.9183" r="1.02404" fill="black"/>
<circle cx="57.005" cy="24.9183" r="1.02404" fill="black"/>
<circle cx="52.9088" cy="24.9183" r="1.02404" fill="black"/>
<circle cx="106.159" cy="20.8221" r="1.02404" fill="black"/>
<circle cx="106.159" cy="24.9183" r="1.02404" fill="black"/>
<circle cx="110.255" cy="20.8221" r="1.02404" fill="black"/>
<circle cx="110.255" cy="24.9183" r="1.02404" fill="black"/>
<circle cx="114.351" cy="20.8221" r="1.02404" fill="black"/>
<circle cx="114.351" cy="24.9183" r="1.02404" fill="black"/>
<circle cx="118.447" cy="20.8221" r="1.02404" fill="black"/>
<circle cx="118.447" cy="24.9183" r="1.02404" fill="black"/>
<circle cx="122.544" cy="20.8221" r="1.02404" fill="black"/>
<circle cx="122.544" cy="24.9183" r="1.02404" fill="black"/>
<circle cx="126.64" cy="20.8221" r="1.02404" fill="black"/>
<circle cx="126.64" cy="24.9183" r="1.02404" fill="black"/>
<circle cx="130.736" cy="20.8221" r="1.02404" fill="black"/>
<circle cx="130.736" cy="24.9183" r="1.02404" fill="black"/>
</g>
<mask id="mask1_282_3" style="mask-type:alpha" maskUnits="userSpaceOnUse" x="51" y="40" width="81" height="8">
<rect x="51.8848" y="40.9615" width="79.875" height="6.82692" fill="black"/>
</mask>
<g mask="url(#mask1_282_3)">
<circle cx="102.063" cy="42.6683" r="1.02404" fill="black"/>
<circle cx="97.9664" cy="42.6683" r="1.02404" fill="black"/>
<circle cx="93.8702" cy="42.6683" r="1.02404" fill="black"/>
<circle cx="89.7745" cy="42.6683" r="1.02404" fill="black"/>
<circle cx="85.6783" cy="42.6683" r="1.02404" fill="black"/>
<circle cx="81.5821" cy="42.6683" r="1.02404" fill="black"/>
<circle cx="77.486" cy="42.6683" r="1.02404" fill="black"/>
<circle cx="73.3898" cy="42.6683" r="1.02404" fill="black"/>
<circle cx="69.2936" cy="42.6683" r="1.02404" fill="black"/>
<circle cx="65.1974" cy="42.6683" r="1.02404" fill="black"/>
<circle cx="61.1012" cy="42.6683" r="1.02404" fill="black"/>
<circle cx="57.005" cy="42.6683" r="1.02404" fill="black"/>
<circle cx="52.9088" cy="42.6683" r="1.02404" fill="black"/>
<circle cx="102.063" cy="46.7644" r="1.02404" fill="black"/>
<circle cx="97.9664" cy="46.7644" r="1.02404" fill="black"/>
<circle cx="93.8702" cy="46.7644" r="1.02404" fill="black"/>
<circle cx="89.7745" cy="46.7644" r="1.02404" fill="black"/>
<circle cx="85.6783" cy="46.7644" r="1.02404" fill="black"/>
<circle cx="81.5821" cy="46.7644" r="1.02404" fill="black"/>
<circle cx="77.486" cy="46.7644" r="1.02404" fill="black"/>
<circle cx="73.3898" cy="46.7644" r="1.02404" fill="black"/>
<circle cx="69.2936" cy="46.7644" r="1.02404" fill="black"/>
<circle cx="65.1974" cy="46.7644" r="1.02404" fill="black"/>
<circle cx="61.1012" cy="46.7644" r="1.02404" fill="black"/>
<circle cx="57.005" cy="46.7644" r="1.02404" fill="black"/>
<circle cx="52.9088" cy="46.7644" r="1.02404" fill="black"/>
<circle cx="106.159" cy="42.6683" r="1.02404" fill="black"/>
<circle cx="106.159" cy="46.7644" r="1.02404" fill="black"/>
<circle cx="110.255" cy="42.6683" r="1.02404" fill="black"/>
<circle cx="110.255" cy="46.7644" r="1.02404" fill="black"/>
<circle cx="114.351" cy="42.6683" r="1.02404" fill="black"/>
<circle cx="114.351" cy="46.7644" r="1.02404" fill="black"/>
<circle cx="118.447" cy="42.6683" r="1.02404" fill="black"/>
<circle cx="118.447" cy="46.7644" r="1.02404" fill="black"/>
<circle cx="122.544" cy="42.6683" r="1.02404" fill="black"/>
<circle cx="122.544" cy="46.7644" r="1.02404" fill="black"/>
<circle cx="126.64" cy="42.6683" r="1.02404" fill="black"/>
<circle cx="126.64" cy="46.7644" r="1.02404" fill="black"/>
<circle cx="130.736" cy="42.6683" r="1.02404" fill="black"/>
<circle cx="130.736" cy="46.7644" r="1.02404" fill="black"/>
</g>
<mask id="mask2_282_3" style="mask-type:alpha" maskUnits="userSpaceOnUse" x="51" y="62" width="81" height="8">
<rect x="51.8848" y="62.8077" width="79.875" height="6.82692" fill="black"/>
</mask>
<g mask="url(#mask2_282_3)">
<circle cx="102.063" cy="64.5144" r="1.02404" fill="black"/>
<circle cx="97.9664" cy="64.5144" r="1.02404" fill="black"/>
<circle cx="93.8702" cy="64.5144" r="1.02404" fill="black"/>
<circle cx="89.7745" cy="64.5144" r="1.02404" fill="black"/>
<circle cx="85.6783" cy="64.5144" r="1.02404" fill="black"/>
<circle cx="81.5821" cy="64.5144" r="1.02404" fill="black"/>
<circle cx="77.486" cy="64.5144" r="1.02404" fill="black"/>
<circle cx="73.3898" cy="64.5144" r="1.02404" fill="black"/>
<circle cx="69.2936" cy="64.5144" r="1.02404" fill="black"/>
<circle cx="65.1974" cy="64.5144" r="1.02404" fill="black"/>
<circle cx="61.1012" cy="64.5144" r="1.02404" fill="black"/>
<circle cx="57.005" cy="64.5144" r="1.02404" fill="black"/>
<circle cx="52.9088" cy="64.5144" r="1.02404" fill="black"/>
<circle cx="102.063" cy="68.6106" r="1.02404" fill="black"/>
<circle cx="97.9664" cy="68.6106" r="1.02404" fill="black"/>
<circle cx="93.8702" cy="68.6106" r="1.02404" fill="black"/>
<circle cx="89.7745" cy="68.6106" r="1.02404" fill="black"/>
<circle cx="85.6783" cy="68.6106" r="1.02404" fill="black"/>
<circle cx="81.5821" cy="68.6106" r="1.02404" fill="black"/>
<circle cx="77.486" cy="68.6106" r="1.02404" fill="black"/>
<circle cx="73.3898" cy="68.6106" r="1.02404" fill="black"/>
<circle cx="69.2936" cy="68.6106" r="1.02404" fill="black"/>
<circle cx="65.1974" cy="68.6106" r="1.02404" fill="black"/>
<circle cx="61.1012" cy="68.6106" r="1.02404" fill="black"/>
<circle cx="57.005" cy="68.6106" r="1.02404" fill="black"/>
<circle cx="52.9088" cy="68.6106" r="1.02404" fill="black"/>
<circle cx="106.159" cy="64.5144" r="1.02404" fill="black"/>
<circle cx="106.159" cy="68.6106" r="1.02404" fill="black"/>
<circle cx="110.255" cy="64.5144" r="1.02404" fill="black"/>
<circle cx="110.255" cy="68.6106" r="1.02404" fill="black"/>
<circle cx="114.351" cy="64.5144" r="1.02404" fill="black"/>
<circle cx="114.351" cy="68.6106" r="1.02404" fill="black"/>
<circle cx="118.447" cy="64.5144" r="1.02404" fill="black"/>
<circle cx="118.447" cy="68.6106" r="1.02404" fill="black"/>
<circle cx="122.544" cy="64.5144" r="1.02404" fill="black"/>
<circle cx="122.544" cy="68.6106" r="1.02404" fill="black"/>
<circle cx="126.64" cy="64.5144" r="1.02404" fill="black"/>
<circle cx="126.64" cy="68.6106" r="1.02404" fill="black"/>
<circle cx="130.736" cy="64.5144" r="1.02404" fill="black"/>
<circle cx="130.736" cy="68.6106" r="1.02404" fill="black"/>
</g>
<mask id="mask3_282_3" style="mask-type:alpha" maskUnits="userSpaceOnUse" x="51" y="30" width="81" height="7">
<rect x="51.8848" y="30.0385" width="79.875" height="6.82692" fill="black"/>
</mask>
<g mask="url(#mask3_282_3)">
<circle cx="102.063" cy="31.7452" r="1.02404" fill="black"/>
<circle cx="97.9664" cy="31.7452" r="1.02404" fill="black"/>
<circle cx="93.8702" cy="31.7452" r="1.02404" fill="black"/>
<circle cx="89.7745" cy="31.7452" r="1.02404" fill="black"/>
<circle cx="85.6783" cy="31.7452" r="1.02404" fill="black"/>
<circle cx="81.5821" cy="31.7452" r="1.02404" fill="black"/>
<circle cx="77.486" cy="31.7452" r="1.02404" fill="black"/>
<circle cx="73.3898" cy="31.7452" r="1.02404" fill="black"/>
<circle cx="69.2936" cy="31.7452" r="1.02404" fill="black"/>
<circle cx="65.1974" cy="31.7452" r="1.02404" fill="black"/>
<circle cx="61.1012" cy="31.7452" r="1.02404" fill="black"/>
<circle cx="57.005" cy="31.7452" r="1.02404" fill="black"/>
<circle cx="52.9088" cy="31.7452" r="1.02404" fill="black"/>
<circle cx="102.063" cy="35.8414" r="1.02404" fill="black"/>
<circle cx="97.9664" cy="35.8414" r="1.02404" fill="black"/>
<circle cx="93.8702" cy="35.8414" r="1.02404" fill="black"/>
<circle cx="89.7745" cy="35.8414" r="1.02404" fill="black"/>
<circle cx="85.6783" cy="35.8414" r="1.02404" fill="black"/>
<circle cx="81.5821" cy="35.8414" r="1.02404" fill="black"/>
<circle cx="77.486" cy="35.8414" r="1.02404" fill="black"/>
<circle cx="73.3898" cy="35.8414" r="1.02404" fill="black"/>
<circle cx="69.2936" cy="35.8414" r="1.02404" fill="black"/>
<circle cx="65.1974" cy="35.8414" r="1.02404" fill="black"/>
<circle cx="61.1012" cy="35.8414" r="1.02404" fill="black"/>
<circle cx="57.005" cy="35.8414" r="1.02404" fill="black"/>
<circle cx="52.9088" cy="35.8414" r="1.02404" fill="black"/>
<circle cx="106.159" cy="31.7452" r="1.02404" fill="black"/>
<circle cx="106.159" cy="35.8414" r="1.02404" fill="black"/>
<circle cx="110.255" cy="31.7452" r="1.02404" fill="black"/>
<circle cx="110.255" cy="35.8414" r="1.02404" fill="black"/>
<circle cx="114.351" cy="31.7452" r="1.02404" fill="black"/>
<circle cx="114.351" cy="35.8414" r="1.02404" fill="black"/>
<circle cx="118.447" cy="31.7452" r="1.02404" fill="black"/>
<circle cx="118.447" cy="35.8414" r="1.02404" fill="black"/>
<circle cx="122.544" cy="31.7452" r="1.02404" fill="black"/>
<circle cx="122.544" cy="35.8414" r="1.02404" fill="black"/>
<circle cx="126.64" cy="31.7452" r="1.02404" fill="black"/>
<circle cx="126.64" cy="35.8414" r="1.02404" fill="black"/>
<circle cx="130.736" cy="31.7452" r="1.02404" fill="black"/>
<circle cx="130.736" cy="35.8414" r="1.02404" fill="black"/>
</g>
<mask id="mask4_282_3" style="mask-type:alpha" maskUnits="userSpaceOnUse" x="51" y="51" width="81" height="8">
<rect x="51.8848" y="51.8846" width="79.875" height="6.82692" fill="black"/>
</mask>
<g mask="url(#mask4_282_3)">
<circle cx="102.063" cy="53.5913" r="1.02404" fill="black"/>
<circle cx="97.9664" cy="53.5913" r="1.02404" fill="black"/>
<circle cx="93.8702" cy="53.5913" r="1.02404" fill="black"/>
<circle cx="89.7745" cy="53.5913" r="1.02404" fill="black"/>
<circle cx="85.6783" cy="53.5913" r="1.02404" fill="black"/>
<circle cx="81.5821" cy="53.5913" r="1.02404" fill="black"/>
<circle cx="77.486" cy="53.5913" r="1.02404" fill="black"/>
<circle cx="73.3898" cy="53.5913" r="1.02404" fill="black"/>
<circle cx="69.2936" cy="53.5913" r="1.02404" fill="black"/>
<circle cx="65.1974" cy="53.5913" r="1.02404" fill="black"/>
<circle cx="61.1012" cy="53.5913" r="1.02404" fill="black"/>
<circle cx="57.005" cy="53.5913" r="1.02404" fill="black"/>
<circle cx="52.9088" cy="53.5913" r="1.02404" fill="black"/>
<circle cx="102.063" cy="57.6874" r="1.02404" fill="black"/>
<circle cx="97.9664" cy="57.6874" r="1.02404" fill="black"/>
<circle cx="93.8702" cy="57.6874" r="1.02404" fill="black"/>
<circle cx="89.7745" cy="57.6874" r="1.02404" fill="black"/>
<circle cx="85.6783" cy="57.6874" r="1.02404" fill="black"/>
<circle cx="81.5821" cy="57.6874" r="1.02404" fill="black"/>
<circle cx="77.486" cy="57.6874" r="1.02404" fill="black"/>
<circle cx="73.3898" cy="57.6874" r="1.02404" fill="black"/>
<circle cx="69.2936" cy="57.6874" r="1.02404" fill="black"/>
<circle cx="65.1974" cy="57.6874" r="1.02404" fill="black"/>
<circle cx="61.1012" cy="57.6874" r="1.02404" fill="black"/>
<circle cx="57.005" cy="57.6874" r="1.02404" fill="black"/>
<circle cx="52.9088" cy="57.6874" r="1.02404" fill="black"/>
<circle cx="106.159" cy="53.5913" r="1.02404" fill="black"/>
<circle cx="106.159" cy="57.6874" r="1.02404" fill="black"/>
<circle cx="110.255" cy="53.5913" r="1.02404" fill="black"/>
<circle cx="110.255" cy="57.6874" r="1.02404" fill="black"/>
<circle cx="114.351" cy="53.5913" r="1.02404" fill="black"/>
<circle cx="114.351" cy="57.6874" r="1.02404" fill="black"/>
<circle cx="118.447" cy="53.5913" r="1.02404" fill="black"/>
<circle cx="118.447" cy="57.6874" r="1.02404" fill="black"/>
<circle cx="122.544" cy="53.5913" r="1.02404" fill="black"/>
<circle cx="122.544" cy="57.6874" r="1.02404" fill="black"/>
<circle cx="126.64" cy="53.5913" r="1.02404" fill="black"/>
<circle cx="126.64" cy="57.6874" r="1.02404" fill="black"/>
<circle cx="130.736" cy="53.5913" r="1.02404" fill="black"/>
<circle cx="130.736" cy="57.6874" r="1.02404" fill="black"/>
</g>
<path fill-rule="evenodd" clip-rule="evenodd" d="M112.093 90.809C112.093 90.4259 112.403 90.1154 112.786 90.1154C113.169 90.1154 113.48 90.4259 113.48 90.809C113.48 91.1921 113.169 91.5026 112.786 91.5026C112.403 91.5026 112.093 91.1921 112.093 90.809ZM110.904 91.6446L95.5768 91.6446L95.5768 116.464L95.5769 116.474V126.981H130.913V114.206C130.913 114.171 130.916 114.137 130.921 114.104C130.196 113.785 129.69 113.061 129.69 112.218C129.69 111.081 130.611 110.159 131.749 110.159C132.886 110.159 133.808 111.081 133.808 112.218C133.808 113.172 133.159 113.975 132.278 114.208V128.346H94.8987L94.8941 128.346L94.8895 128.346H94.2115V127.674L94.2114 127.663L94.2114 90.2792L110.796 90.2792C111.03 89.3988 111.832 88.75 112.786 88.75C113.923 88.75 114.845 89.6718 114.845 90.809C114.845 91.9462 113.923 92.868 112.786 92.868C111.946 92.868 111.224 92.3654 110.904 91.6446ZM131.596 89.9734C131.973 89.9734 132.278 90.279 132.278 90.6561V97.1845C132.999 97.5049 133.502 98.2272 133.502 99.0668C133.502 100.204 132.58 101.126 131.443 101.126C130.306 101.126 129.384 100.204 129.384 99.0668C129.384 98.1128 130.033 97.3103 130.913 97.0766V90.6561C130.913 90.279 131.219 89.9734 131.596 89.9734ZM100.707 94.867C100.474 93.9865 99.6712 93.3377 98.7172 93.3377C97.58 93.3377 96.6582 94.2596 96.6582 95.3967C96.6582 96.5339 97.58 97.4557 98.7172 97.4557C99.5568 97.4557 100.279 96.9531 100.6 96.2324L128.914 96.2323L128.914 89.9734L119.176 89.9734C118.799 89.9734 118.493 90.2791 118.493 90.6561C118.493 91.0332 118.799 91.3388 119.176 91.3388L127.549 91.3388V94.867L100.707 94.867ZM131.443 107.243C130.489 107.243 129.686 106.594 129.453 105.713L116.88 105.713V110.579L103.529 110.579V119.64H116.607C116.841 118.76 117.643 118.111 118.597 118.111C119.734 118.111 120.656 119.033 120.656 120.17C120.656 121.307 119.734 122.229 118.597 122.229C117.757 122.229 117.035 121.727 116.715 121.006H102.163L102.163 109.214H115.515V104.348L129.56 104.348C129.881 103.627 130.603 103.125 131.443 103.125C132.58 103.125 133.502 104.047 133.502 105.184C133.502 106.321 132.58 107.243 131.443 107.243ZM98.7172 96.0904C98.3341 96.0904 98.0236 95.7798 98.0236 95.3967C98.0236 95.0137 98.3341 94.7031 98.7172 94.7031C99.1002 94.7031 99.4108 95.0137 99.4108 95.3967C99.4108 95.7798 99.1002 96.0904 98.7172 96.0904ZM131.443 104.49C131.06 104.49 130.749 104.801 130.749 105.184C130.749 105.567 131.06 105.877 131.443 105.877C131.826 105.877 132.136 105.567 132.136 105.184C132.136 104.801 131.826 104.49 131.443 104.49ZM99.5528 113.795C100.274 113.474 100.776 112.752 100.776 111.912C100.776 110.775 99.8543 109.853 98.7172 109.853C97.58 109.853 96.6582 110.775 96.6582 111.912C96.6582 112.866 97.307 113.669 98.1875 113.903V124.676H123.95C123.984 124.676 124.018 124.673 124.052 124.668C124.37 125.393 125.095 125.899 125.938 125.899C127.075 125.899 127.997 124.978 127.997 123.84C127.997 122.703 127.075 121.781 125.938 121.781C124.984 121.781 124.181 122.43 123.947 123.311H99.5528V113.795ZM122.267 111.83C123.107 111.83 123.829 111.328 124.15 110.607H126.631V113.524H110.218C109.849 112.97 109.219 112.606 108.504 112.606C107.367 112.606 106.445 113.528 106.445 114.665C106.445 115.802 107.367 116.724 108.504 116.724C109.566 116.724 110.44 115.921 110.551 114.889H127.997V109.242H124.258C124.024 108.361 123.221 107.712 122.267 107.712C121.13 107.712 120.208 108.634 120.208 109.771C120.208 110.909 121.13 111.83 122.267 111.83ZM108.043 105.408H104.304V99.7605H121.75C121.861 98.7287 122.735 97.9254 123.797 97.9254C124.934 97.9254 125.856 98.8473 125.856 99.9844C125.856 101.122 124.934 102.043 123.797 102.043C123.082 102.043 122.452 101.679 122.083 101.126H105.67V104.042H108.151C108.472 103.321 109.194 102.819 110.033 102.819C111.171 102.819 112.092 103.741 112.092 104.878C112.092 106.015 111.171 106.937 110.033 106.937C109.08 106.937 108.277 106.288 108.043 105.408ZM125.938 123.147C125.554 123.147 125.244 123.457 125.244 123.84C125.244 124.223 125.554 124.534 125.938 124.534C126.321 124.534 126.631 124.223 126.631 123.84C126.631 123.457 126.321 123.147 125.938 123.147ZM130.749 99.0668C130.749 98.6837 131.06 98.3732 131.443 98.3732C131.826 98.3732 132.136 98.6837 132.136 99.0668C132.136 99.4499 131.826 99.7604 131.443 99.7604C131.06 99.7604 130.749 99.4499 130.749 99.0668ZM131.749 111.525C131.366 111.525 131.055 111.835 131.055 112.218C131.055 112.601 131.366 112.912 131.749 112.912C132.132 112.912 132.442 112.601 132.442 112.218C132.442 111.835 132.132 111.525 131.749 111.525ZM108.504 113.971C108.121 113.971 107.811 114.282 107.811 114.665C107.811 115.048 108.121 115.359 108.504 115.359C108.887 115.359 109.198 115.048 109.198 114.665C109.198 114.282 108.887 113.971 108.504 113.971ZM124.49 99.9844C124.49 100.367 124.18 100.678 123.797 100.678C123.414 100.678 123.103 100.367 123.103 99.9844C123.103 99.6013 123.414 99.2908 123.797 99.2908C124.18 99.2908 124.49 99.6013 124.49 99.9844ZM122.267 109.078C121.884 109.078 121.574 109.388 121.574 109.771C121.574 110.155 121.884 110.465 122.267 110.465C122.65 110.465 122.961 110.155 122.961 109.771C122.961 109.388 122.65 109.078 122.267 109.078ZM110.727 104.878C110.727 105.261 110.417 105.571 110.033 105.571C109.65 105.571 109.34 105.261 109.34 104.878C109.34 104.495 109.65 104.184 110.033 104.184C110.417 104.184 110.727 104.495 110.727 104.878ZM118.597 119.477C118.214 119.477 117.904 119.787 117.904 120.17C117.904 120.553 118.214 120.864 118.597 120.864C118.98 120.864 119.291 120.553 119.291 120.17C119.291 119.787 118.98 119.477 118.597 119.477ZM98.0236 111.912C98.0236 111.529 98.3341 111.219 98.7172 111.219C99.1002 111.219 99.4108 111.529 99.4108 111.912C99.4108 112.295 99.1002 112.606 98.7172 112.606C98.3341 112.606 98.0236 112.295 98.0236 111.912Z" fill="url(#paint0_linear_282_3)"/>
<path d="M161.457 142C150.334 142 141.317 133.442 141.317 122.885H181.596C181.596 133.442 172.58 142 161.457 142Z" fill="black"/>
<rect x="60.0771" y="122.885" width="101.721" height="19.1154" fill="black"/>
<path d="M60.4182 142C49.2955 142 40.2788 133.442 40.2788 122.885H80.5577C80.5577 133.442 71.5409 142 60.4182 142Z" fill="#DFDFDF"/>
<path fill-rule="evenodd" clip-rule="evenodd" d="M197.205 23.8941H208.561V34.9455C208.561 41.9647 206.254 48.7462 202.062 54.2769H196.711L200.505 56.174C200.082 56.652 199.642 57.1186 199.188 57.5729L194.585 62.1764H188.812L192.66 64.1006L177.524 79.2368C171.523 85.238 163.384 88.6094 154.897 88.6094H144.757L144.362 77.944C144.032 69.0519 147.42 60.4242 153.712 54.1322L174.578 33.2667C180.579 27.2655 188.719 23.8941 197.205 23.8941Z" fill="url(#paint1_linear_282_3)"/>
<path d="M206.824 23.8942L208.543 25.6129L129.053 105.103L125.615 105.103L206.824 23.8942Z" fill="black"/>
<defs>
<linearGradient id="paint0_linear_282_3" x1="94.7465" y1="108.548" x2="133.808" y2="108.548" gradientUnits="userSpaceOnUse">
<stop stop-color="#8000FF"/>
<stop offset="1" stop-color="#FF53F8"/>
</linearGradient>
<linearGradient id="paint1_linear_282_3" x1="145.208" y1="56.2518" x2="208.561" y2="56.2518" gradientUnits="userSpaceOnUse">
<stop stop-color="#8000FF"/>
<stop offset="1" stop-color="#FF53F8"/>
</linearGradient>
</defs>
</svg>
