<svg width="864" height="466" viewBox="0 0 864 466" fill="none" xmlns="http://www.w3.org/2000/svg">
<circle cx="191" cy="185" r="4" fill="#9020C7" fill-opacity="0.5"/>
<circle cx="436" cy="286" r="4" fill="#9020C7" fill-opacity="0.5"/>
<circle cx="476" cy="110" r="4" fill="#9020C7" fill-opacity="0.5"/>
<circle cx="656" cy="242" r="4" fill="#9020C7" fill-opacity="0.5"/>
<circle cx="342" cy="462" r="4" fill="#9020C7" fill-opacity="0.5"/>
<circle cx="118" cy="372" r="4" fill="#9020C7" fill-opacity="0.5"/>
<circle cx="4" cy="53" r="4" fill="#9020C7" fill-opacity="0.5"/>
<circle cx="656" cy="61" r="4" fill="#9020C7" fill-opacity="0.5"/>
<circle cx="239" cy="136" r="4" fill="#9020C7" fill-opacity="0.5"/>
<circle cx="484" cy="237" r="4" fill="#9020C7" fill-opacity="0.5"/>
<circle cx="524" cy="61" r="4" fill="#9020C7" fill-opacity="0.5"/>
<circle cx="704" cy="193" r="4" fill="#9020C7" fill-opacity="0.5"/>
<circle cx="390" cy="413" r="4" fill="#9020C7" fill-opacity="0.5"/>
<circle cx="166" cy="323" r="4" fill="#9020C7" fill-opacity="0.5"/>
<circle cx="52" cy="4" r="4" fill="#9020C7" fill-opacity="0.5"/>
<circle cx="704" cy="12" r="4" fill="#9020C7" fill-opacity="0.5"/>
<circle cx="395" cy="177" r="4" fill="#9020C7" fill-opacity="0.5"/>
<circle cx="640" cy="278" r="4" fill="#9020C7" fill-opacity="0.5"/>
<circle cx="680" cy="102" r="4" fill="#9020C7" fill-opacity="0.5"/>
<circle cx="860" cy="234" r="4" fill="#9020C7" fill-opacity="0.5"/>
<circle cx="546" cy="454" r="4" fill="#9020C7" fill-opacity="0.5"/>
<circle cx="322" cy="364" r="4" fill="#9020C7" fill-opacity="0.5"/>
<circle cx="208" cy="45" r="4" fill="#9020C7" fill-opacity="0.5"/>
<circle cx="860" cy="53" r="4" fill="#9020C7" fill-opacity="0.5"/>
</svg>
