<svg width="137" height="137" viewBox="0 0 137 137" fill="none" xmlns="http://www.w3.org/2000/svg">
<circle cx="68.4745" cy="68.4745" r="66.4745" stroke="#DFDFDF" stroke-width="4" stroke-linecap="round" stroke-dasharray="6 12"/>
<mask id="mask0_282_15942" style="mask-type:alpha" maskUnits="userSpaceOnUse" x="15" y="16" width="106" height="106">
<circle cx="68.2116" cy="68.7373" r="52.549" fill="#C4C4C4"/>
</mask>
<g mask="url(#mask0_282_15942)">
<circle cx="64.7961" cy="16.9765" r="0.788235" fill="black"/>
<circle cx="61.6427" cy="16.9765" r="0.788235" fill="black"/>
<circle cx="58.4899" cy="16.9765" r="0.788235" fill="black"/>
<circle cx="55.3371" cy="16.9765" r="0.788235" fill="black"/>
<circle cx="52.1842" cy="16.9765" r="0.788235" fill="black"/>
<circle cx="49.0314" cy="16.9765" r="0.788235" fill="black"/>
<circle cx="45.8781" cy="16.9765" r="0.788235" fill="black"/>
<circle cx="42.7252" cy="16.9765" r="0.788235" fill="black"/>
<circle cx="39.5724" cy="16.9765" r="0.788235" fill="black"/>
<circle cx="36.4196" cy="16.9765" r="0.788235" fill="black"/>
<circle cx="33.2663" cy="16.9765" r="0.788235" fill="black"/>
<circle cx="30.1134" cy="16.9765" r="0.788235" fill="black"/>
<circle cx="26.9606" cy="16.9765" r="0.788235" fill="black"/>
<circle cx="23.8078" cy="16.9765" r="0.788235" fill="black"/>
<circle cx="20.6544" cy="16.9765" r="0.788235" fill="black"/>
<circle cx="17.5016" cy="16.9765" r="0.788235" fill="black"/>
<circle cx="64.7961" cy="20.1294" r="0.788235" fill="black"/>
<circle cx="61.6427" cy="20.1294" r="0.788235" fill="black"/>
<circle cx="58.4899" cy="20.1294" r="0.788235" fill="black"/>
<circle cx="55.3371" cy="20.1294" r="0.788235" fill="black"/>
<circle cx="52.1842" cy="20.1294" r="0.788235" fill="black"/>
<circle cx="49.0314" cy="20.1294" r="0.788235" fill="black"/>
<circle cx="45.8781" cy="20.1294" r="0.788235" fill="black"/>
<circle cx="42.7252" cy="20.1294" r="0.788235" fill="black"/>
<circle cx="39.5724" cy="20.1294" r="0.788235" fill="black"/>
<circle cx="36.4196" cy="20.1294" r="0.788235" fill="black"/>
<circle cx="33.2663" cy="20.1294" r="0.788235" fill="black"/>
<circle cx="30.1134" cy="20.1294" r="0.788235" fill="black"/>
<circle cx="26.9606" cy="20.1294" r="0.788235" fill="black"/>
<circle cx="23.8078" cy="20.1294" r="0.788235" fill="black"/>
<circle cx="20.6544" cy="20.1294" r="0.788235" fill="black"/>
<circle cx="17.5016" cy="20.1294" r="0.788235" fill="black"/>
<circle cx="64.7961" cy="23.2824" r="0.788235" fill="black"/>
<circle cx="61.6427" cy="23.2824" r="0.788235" fill="black"/>
<circle cx="58.4899" cy="23.2824" r="0.788235" fill="black"/>
<circle cx="55.3371" cy="23.2824" r="0.788235" fill="black"/>
<circle cx="52.1842" cy="23.2824" r="0.788235" fill="black"/>
<circle cx="49.0314" cy="23.2824" r="0.788235" fill="black"/>
<circle cx="45.8781" cy="23.2824" r="0.788235" fill="black"/>
<circle cx="42.7252" cy="23.2824" r="0.788235" fill="black"/>
<circle cx="39.5724" cy="23.2824" r="0.788235" fill="black"/>
<circle cx="36.4196" cy="23.2824" r="0.788235" fill="black"/>
<circle cx="33.2663" cy="23.2824" r="0.788235" fill="black"/>
<circle cx="30.1134" cy="23.2824" r="0.788235" fill="black"/>
<circle cx="26.9606" cy="23.2824" r="0.788235" fill="black"/>
<circle cx="23.8078" cy="23.2824" r="0.788235" fill="black"/>
<circle cx="20.6544" cy="23.2824" r="0.788235" fill="black"/>
<circle cx="17.5016" cy="23.2824" r="0.788235" fill="black"/>
<circle cx="64.7961" cy="26.4353" r="0.788235" fill="black"/>
<circle cx="61.6427" cy="26.4353" r="0.788235" fill="black"/>
<circle cx="58.4899" cy="26.4353" r="0.788235" fill="black"/>
<circle cx="55.3371" cy="26.4353" r="0.788235" fill="black"/>
<circle cx="52.1842" cy="26.4353" r="0.788235" fill="black"/>
<circle cx="49.0314" cy="26.4353" r="0.788235" fill="black"/>
<circle cx="45.8781" cy="26.4353" r="0.788235" fill="black"/>
<circle cx="42.7252" cy="26.4353" r="0.788235" fill="black"/>
<circle cx="39.5724" cy="26.4353" r="0.788235" fill="black"/>
<circle cx="36.4196" cy="26.4353" r="0.788235" fill="black"/>
<circle cx="33.2663" cy="26.4353" r="0.788235" fill="black"/>
<circle cx="30.1134" cy="26.4353" r="0.788235" fill="black"/>
<circle cx="26.9606" cy="26.4353" r="0.788235" fill="black"/>
<circle cx="23.8078" cy="26.4353" r="0.788235" fill="black"/>
<circle cx="20.6544" cy="26.4353" r="0.788235" fill="black"/>
<circle cx="17.5016" cy="26.4353" r="0.788235" fill="black"/>
<circle cx="64.7961" cy="29.5882" r="0.788235" fill="black"/>
<circle cx="61.6427" cy="29.5882" r="0.788235" fill="black"/>
<circle cx="58.4899" cy="29.5882" r="0.788235" fill="black"/>
<circle cx="55.3371" cy="29.5882" r="0.788235" fill="black"/>
<circle cx="52.1842" cy="29.5882" r="0.788235" fill="black"/>
<circle cx="49.0314" cy="29.5882" r="0.788235" fill="black"/>
<circle cx="45.8781" cy="29.5882" r="0.788235" fill="black"/>
<circle cx="42.7252" cy="29.5882" r="0.788235" fill="black"/>
<circle cx="39.5724" cy="29.5882" r="0.788235" fill="black"/>
<circle cx="36.4196" cy="29.5882" r="0.788235" fill="black"/>
<circle cx="33.2663" cy="29.5882" r="0.788235" fill="black"/>
<circle cx="30.1134" cy="29.5882" r="0.788235" fill="black"/>
<circle cx="26.9606" cy="29.5882" r="0.788235" fill="black"/>
<circle cx="23.8078" cy="29.5882" r="0.788235" fill="black"/>
<circle cx="20.6544" cy="29.5882" r="0.788235" fill="black"/>
<circle cx="17.5016" cy="29.5882" r="0.788235" fill="black"/>
<circle cx="64.7961" cy="32.7411" r="0.788235" fill="black"/>
<circle cx="61.6427" cy="32.7411" r="0.788235" fill="black"/>
<circle cx="58.4899" cy="32.7411" r="0.788235" fill="black"/>
<circle cx="55.3371" cy="32.7411" r="0.788235" fill="black"/>
<circle cx="52.1842" cy="32.7411" r="0.788235" fill="black"/>
<circle cx="49.0314" cy="32.7411" r="0.788235" fill="black"/>
<circle cx="45.8781" cy="32.7411" r="0.788235" fill="black"/>
<circle cx="42.7252" cy="32.7411" r="0.788235" fill="black"/>
<circle cx="39.5724" cy="32.7411" r="0.788235" fill="black"/>
<circle cx="36.4196" cy="32.7411" r="0.788235" fill="black"/>
<circle cx="33.2663" cy="32.7411" r="0.788235" fill="black"/>
<circle cx="30.1134" cy="32.7411" r="0.788235" fill="black"/>
<circle cx="26.9606" cy="32.7411" r="0.788235" fill="black"/>
<circle cx="23.8078" cy="32.7411" r="0.788235" fill="black"/>
<circle cx="20.6544" cy="32.7411" r="0.788235" fill="black"/>
<circle cx="17.5016" cy="32.7411" r="0.788235" fill="black"/>
<circle cx="64.7961" cy="35.8941" r="0.788235" fill="black"/>
<circle cx="61.6427" cy="35.8941" r="0.788235" fill="black"/>
<circle cx="58.4899" cy="35.8941" r="0.788235" fill="black"/>
<circle cx="55.3371" cy="35.8941" r="0.788235" fill="black"/>
<circle cx="52.1842" cy="35.8941" r="0.788235" fill="black"/>
<circle cx="49.0314" cy="35.8941" r="0.788235" fill="black"/>
<circle cx="45.8781" cy="35.8941" r="0.788235" fill="black"/>
<circle cx="42.7252" cy="35.8941" r="0.788235" fill="black"/>
<circle cx="39.5724" cy="35.8941" r="0.788235" fill="black"/>
<circle cx="36.4196" cy="35.8941" r="0.788235" fill="black"/>
<circle cx="33.2663" cy="35.8941" r="0.788235" fill="black"/>
<circle cx="30.1134" cy="35.8941" r="0.788235" fill="black"/>
<circle cx="26.9606" cy="35.8941" r="0.788235" fill="black"/>
<circle cx="23.8078" cy="35.8941" r="0.788235" fill="black"/>
<circle cx="20.6544" cy="35.8941" r="0.788235" fill="black"/>
<circle cx="17.5016" cy="35.8941" r="0.788235" fill="black"/>
<circle cx="64.7961" cy="39.047" r="0.788235" fill="black"/>
<circle cx="61.6427" cy="39.047" r="0.788235" fill="black"/>
<circle cx="58.4899" cy="39.047" r="0.788235" fill="black"/>
<circle cx="55.3371" cy="39.047" r="0.788235" fill="black"/>
<circle cx="52.1842" cy="39.047" r="0.788235" fill="black"/>
<circle cx="49.0314" cy="39.047" r="0.788235" fill="black"/>
<circle cx="45.8781" cy="39.047" r="0.788235" fill="black"/>
<circle cx="42.7252" cy="39.047" r="0.788235" fill="black"/>
<circle cx="39.5724" cy="39.047" r="0.788235" fill="black"/>
<circle cx="36.4196" cy="39.047" r="0.788235" fill="black"/>
<circle cx="33.2663" cy="39.047" r="0.788235" fill="black"/>
<circle cx="30.1134" cy="39.047" r="0.788235" fill="black"/>
<circle cx="26.9606" cy="39.047" r="0.788235" fill="black"/>
<circle cx="23.8078" cy="39.047" r="0.788235" fill="black"/>
<circle cx="20.6544" cy="39.047" r="0.788235" fill="black"/>
<circle cx="17.5016" cy="39.047" r="0.788235" fill="black"/>
<circle cx="64.7961" cy="42.1999" r="0.788235" fill="black"/>
<circle cx="61.6427" cy="42.1999" r="0.788235" fill="black"/>
<circle cx="58.4899" cy="42.1999" r="0.788235" fill="black"/>
<circle cx="55.3371" cy="42.1999" r="0.788235" fill="black"/>
<circle cx="52.1842" cy="42.1999" r="0.788235" fill="black"/>
<circle cx="49.0314" cy="42.1999" r="0.788235" fill="black"/>
<circle cx="45.8781" cy="42.1999" r="0.788235" fill="black"/>
<circle cx="42.7252" cy="42.1999" r="0.788235" fill="black"/>
<circle cx="39.5724" cy="42.1999" r="0.788235" fill="black"/>
<circle cx="36.4196" cy="42.1999" r="0.788235" fill="black"/>
<circle cx="33.2663" cy="42.1999" r="0.788235" fill="black"/>
<circle cx="30.1134" cy="42.1999" r="0.788235" fill="black"/>
<circle cx="26.9606" cy="42.1999" r="0.788235" fill="black"/>
<circle cx="23.8078" cy="42.1999" r="0.788235" fill="black"/>
<circle cx="20.6544" cy="42.1999" r="0.788235" fill="black"/>
<circle cx="17.5016" cy="42.1999" r="0.788235" fill="black"/>
<circle cx="64.7961" cy="45.353" r="0.788235" fill="black"/>
<circle cx="61.6427" cy="45.353" r="0.788235" fill="black"/>
<circle cx="58.4899" cy="45.353" r="0.788235" fill="black"/>
<circle cx="55.3371" cy="45.353" r="0.788235" fill="black"/>
<circle cx="52.1842" cy="45.353" r="0.788235" fill="black"/>
<circle cx="49.0314" cy="45.353" r="0.788235" fill="black"/>
<circle cx="45.8781" cy="45.353" r="0.788235" fill="black"/>
<circle cx="42.7252" cy="45.353" r="0.788235" fill="black"/>
<circle cx="39.5724" cy="45.353" r="0.788235" fill="black"/>
<circle cx="36.4196" cy="45.353" r="0.788235" fill="black"/>
<circle cx="33.2663" cy="45.353" r="0.788235" fill="black"/>
<circle cx="30.1134" cy="45.353" r="0.788235" fill="black"/>
<circle cx="26.9606" cy="45.353" r="0.788235" fill="black"/>
<circle cx="23.8078" cy="45.353" r="0.788235" fill="black"/>
<circle cx="20.6544" cy="45.353" r="0.788235" fill="black"/>
<circle cx="17.5016" cy="45.353" r="0.788235" fill="black"/>
<circle cx="64.7961" cy="48.5059" r="0.788235" fill="black"/>
<circle cx="61.6427" cy="48.5059" r="0.788235" fill="black"/>
<circle cx="58.4899" cy="48.5059" r="0.788235" fill="black"/>
<circle cx="55.3371" cy="48.5059" r="0.788235" fill="black"/>
<circle cx="52.1842" cy="48.5059" r="0.788235" fill="black"/>
<circle cx="49.0314" cy="48.5059" r="0.788235" fill="black"/>
<circle cx="45.8781" cy="48.5059" r="0.788235" fill="black"/>
<circle cx="42.7252" cy="48.5059" r="0.788235" fill="black"/>
<circle cx="39.5724" cy="48.5059" r="0.788235" fill="black"/>
<circle cx="36.4196" cy="48.5059" r="0.788235" fill="black"/>
<circle cx="33.2663" cy="48.5059" r="0.788235" fill="black"/>
<circle cx="30.1134" cy="48.5059" r="0.788235" fill="black"/>
<circle cx="26.9606" cy="48.5059" r="0.788235" fill="black"/>
<circle cx="23.8078" cy="48.5059" r="0.788235" fill="black"/>
<circle cx="20.6544" cy="48.5059" r="0.788235" fill="black"/>
<circle cx="17.5016" cy="48.5059" r="0.788235" fill="black"/>
<circle cx="64.7961" cy="51.6588" r="0.788235" fill="black"/>
<circle cx="61.6427" cy="51.6588" r="0.788235" fill="black"/>
<circle cx="58.4899" cy="51.6588" r="0.788235" fill="black"/>
<circle cx="55.3371" cy="51.6588" r="0.788235" fill="black"/>
<circle cx="52.1842" cy="51.6588" r="0.788235" fill="black"/>
<circle cx="49.0314" cy="51.6588" r="0.788235" fill="black"/>
<circle cx="45.8781" cy="51.6588" r="0.788235" fill="black"/>
<circle cx="42.7252" cy="51.6588" r="0.788235" fill="black"/>
<circle cx="39.5724" cy="51.6588" r="0.788235" fill="black"/>
<circle cx="36.4196" cy="51.6588" r="0.788235" fill="black"/>
<circle cx="33.2663" cy="51.6588" r="0.788235" fill="black"/>
<circle cx="30.1134" cy="51.6588" r="0.788235" fill="black"/>
<circle cx="26.9606" cy="51.6588" r="0.788235" fill="black"/>
<circle cx="23.8078" cy="51.6588" r="0.788235" fill="black"/>
<circle cx="20.6544" cy="51.6588" r="0.788235" fill="black"/>
<circle cx="17.5016" cy="51.6588" r="0.788235" fill="black"/>
<circle cx="64.7961" cy="54.8118" r="0.788235" fill="black"/>
<circle cx="61.6427" cy="54.8118" r="0.788235" fill="black"/>
<circle cx="58.4899" cy="54.8118" r="0.788235" fill="black"/>
<circle cx="55.3371" cy="54.8118" r="0.788235" fill="black"/>
<circle cx="52.1842" cy="54.8118" r="0.788235" fill="black"/>
<circle cx="49.0314" cy="54.8118" r="0.788235" fill="black"/>
<circle cx="45.8781" cy="54.8118" r="0.788235" fill="black"/>
<circle cx="42.7252" cy="54.8118" r="0.788235" fill="black"/>
<circle cx="39.5724" cy="54.8118" r="0.788235" fill="black"/>
<circle cx="36.4196" cy="54.8118" r="0.788235" fill="black"/>
<circle cx="33.2663" cy="54.8118" r="0.788235" fill="black"/>
<circle cx="30.1134" cy="54.8118" r="0.788235" fill="black"/>
<circle cx="26.9606" cy="54.8118" r="0.788235" fill="black"/>
<circle cx="23.8078" cy="54.8118" r="0.788235" fill="black"/>
<circle cx="20.6544" cy="54.8118" r="0.788235" fill="black"/>
<circle cx="17.5016" cy="54.8118" r="0.788235" fill="black"/>
<circle cx="64.7961" cy="57.9647" r="0.788235" fill="black"/>
<circle cx="61.6427" cy="57.9647" r="0.788235" fill="black"/>
<circle cx="58.4899" cy="57.9647" r="0.788235" fill="black"/>
<circle cx="55.3371" cy="57.9647" r="0.788235" fill="black"/>
<circle cx="52.1842" cy="57.9647" r="0.788235" fill="black"/>
<circle cx="49.0314" cy="57.9647" r="0.788235" fill="black"/>
<circle cx="45.8781" cy="57.9647" r="0.788235" fill="black"/>
<circle cx="42.7252" cy="57.9647" r="0.788235" fill="black"/>
<circle cx="39.5724" cy="57.9647" r="0.788235" fill="black"/>
<circle cx="36.4196" cy="57.9647" r="0.788235" fill="black"/>
<circle cx="33.2663" cy="57.9647" r="0.788235" fill="black"/>
<circle cx="30.1134" cy="57.9647" r="0.788235" fill="black"/>
<circle cx="26.9606" cy="57.9647" r="0.788235" fill="black"/>
<circle cx="23.8078" cy="57.9647" r="0.788235" fill="black"/>
<circle cx="20.6544" cy="57.9647" r="0.788235" fill="black"/>
<circle cx="17.5016" cy="57.9647" r="0.788235" fill="black"/>
<circle cx="64.7961" cy="61.1176" r="0.788235" fill="black"/>
<circle cx="61.6427" cy="61.1176" r="0.788235" fill="black"/>
<circle cx="58.4899" cy="61.1176" r="0.788235" fill="black"/>
<circle cx="55.3371" cy="61.1176" r="0.788235" fill="black"/>
<circle cx="52.1842" cy="61.1176" r="0.788235" fill="black"/>
<circle cx="49.0314" cy="61.1176" r="0.788235" fill="black"/>
<circle cx="45.8781" cy="61.1176" r="0.788235" fill="black"/>
<circle cx="42.7252" cy="61.1176" r="0.788235" fill="black"/>
<circle cx="39.5724" cy="61.1176" r="0.788235" fill="black"/>
<circle cx="36.4196" cy="61.1176" r="0.788235" fill="black"/>
<circle cx="33.2663" cy="61.1176" r="0.788235" fill="black"/>
<circle cx="30.1134" cy="61.1176" r="0.788235" fill="black"/>
<circle cx="26.9606" cy="61.1176" r="0.788235" fill="black"/>
<circle cx="23.8078" cy="61.1176" r="0.788235" fill="black"/>
<circle cx="20.6544" cy="61.1176" r="0.788235" fill="black"/>
<circle cx="17.5016" cy="61.1176" r="0.788235" fill="black"/>
<circle cx="64.7961" cy="64.2706" r="0.788235" fill="black"/>
<circle cx="61.6427" cy="64.2706" r="0.788235" fill="black"/>
<circle cx="58.4899" cy="64.2706" r="0.788235" fill="black"/>
<circle cx="55.3371" cy="64.2706" r="0.788235" fill="black"/>
<circle cx="52.1842" cy="64.2706" r="0.788235" fill="black"/>
<circle cx="49.0314" cy="64.2706" r="0.788235" fill="black"/>
<circle cx="45.8781" cy="64.2706" r="0.788235" fill="black"/>
<circle cx="42.7252" cy="64.2706" r="0.788235" fill="black"/>
<circle cx="39.5724" cy="64.2706" r="0.788235" fill="black"/>
<circle cx="36.4196" cy="64.2706" r="0.788235" fill="black"/>
<circle cx="33.2663" cy="64.2706" r="0.788235" fill="black"/>
<circle cx="30.1134" cy="64.2706" r="0.788235" fill="black"/>
<circle cx="26.9606" cy="64.2706" r="0.788235" fill="black"/>
<circle cx="23.8078" cy="64.2706" r="0.788235" fill="black"/>
<circle cx="20.6544" cy="64.2706" r="0.788235" fill="black"/>
<circle cx="17.5016" cy="64.2706" r="0.788235" fill="black"/>
<circle cx="64.7961" cy="67.4235" r="0.788235" fill="black"/>
<circle cx="61.6427" cy="67.4235" r="0.788235" fill="black"/>
<circle cx="58.4899" cy="67.4235" r="0.788235" fill="black"/>
<circle cx="55.3371" cy="67.4235" r="0.788235" fill="black"/>
<circle cx="52.1842" cy="67.4235" r="0.788235" fill="black"/>
<circle cx="49.0314" cy="67.4235" r="0.788235" fill="black"/>
<circle cx="45.8781" cy="67.4235" r="0.788235" fill="black"/>
<circle cx="42.7252" cy="67.4235" r="0.788235" fill="black"/>
<circle cx="39.5724" cy="67.4235" r="0.788235" fill="black"/>
<circle cx="36.4196" cy="67.4235" r="0.788235" fill="black"/>
<circle cx="33.2663" cy="67.4235" r="0.788235" fill="black"/>
<circle cx="30.1134" cy="67.4235" r="0.788235" fill="black"/>
<circle cx="26.9606" cy="67.4235" r="0.788235" fill="black"/>
<circle cx="23.8078" cy="67.4235" r="0.788235" fill="black"/>
<circle cx="20.6544" cy="67.4235" r="0.788235" fill="black"/>
<circle cx="17.5016" cy="67.4235" r="0.788235" fill="black"/>
<circle cx="64.7961" cy="70.5764" r="0.788235" fill="black"/>
<circle cx="61.6427" cy="70.5764" r="0.788235" fill="black"/>
<circle cx="58.4899" cy="70.5764" r="0.788235" fill="black"/>
<circle cx="55.3371" cy="70.5764" r="0.788235" fill="black"/>
<circle cx="52.1842" cy="70.5764" r="0.788235" fill="black"/>
<circle cx="49.0314" cy="70.5764" r="0.788235" fill="black"/>
<circle cx="45.8781" cy="70.5764" r="0.788235" fill="black"/>
<circle cx="42.7252" cy="70.5764" r="0.788235" fill="black"/>
<circle cx="39.5724" cy="70.5764" r="0.788235" fill="black"/>
<circle cx="36.4196" cy="70.5764" r="0.788235" fill="black"/>
<circle cx="33.2663" cy="70.5764" r="0.788235" fill="black"/>
<circle cx="30.1134" cy="70.5764" r="0.788235" fill="black"/>
<circle cx="26.9606" cy="70.5764" r="0.788235" fill="black"/>
<circle cx="23.8078" cy="70.5764" r="0.788235" fill="black"/>
<circle cx="20.6544" cy="70.5764" r="0.788235" fill="black"/>
<circle cx="17.5016" cy="70.5764" r="0.788235" fill="black"/>
<circle cx="64.7961" cy="73.7293" r="0.788235" fill="black"/>
<circle cx="61.6427" cy="73.7293" r="0.788235" fill="black"/>
<circle cx="58.4899" cy="73.7293" r="0.788235" fill="black"/>
<circle cx="55.3371" cy="73.7293" r="0.788235" fill="black"/>
<circle cx="52.1842" cy="73.7293" r="0.788235" fill="black"/>
<circle cx="49.0314" cy="73.7293" r="0.788235" fill="black"/>
<circle cx="45.8781" cy="73.7293" r="0.788235" fill="black"/>
<circle cx="42.7252" cy="73.7293" r="0.788235" fill="black"/>
<circle cx="39.5724" cy="73.7293" r="0.788235" fill="black"/>
<circle cx="36.4196" cy="73.7293" r="0.788235" fill="black"/>
<circle cx="33.2663" cy="73.7293" r="0.788235" fill="black"/>
<circle cx="30.1134" cy="73.7293" r="0.788235" fill="black"/>
<circle cx="26.9606" cy="73.7293" r="0.788235" fill="black"/>
<circle cx="23.8078" cy="73.7293" r="0.788235" fill="black"/>
<circle cx="20.6544" cy="73.7293" r="0.788235" fill="black"/>
<circle cx="17.5016" cy="73.7293" r="0.788235" fill="black"/>
<circle cx="64.7961" cy="76.8823" r="0.788235" fill="black"/>
<circle cx="61.6427" cy="76.8823" r="0.788235" fill="black"/>
<circle cx="58.4899" cy="76.8823" r="0.788235" fill="black"/>
<circle cx="55.3371" cy="76.8823" r="0.788235" fill="black"/>
<circle cx="52.1842" cy="76.8823" r="0.788235" fill="black"/>
<circle cx="49.0314" cy="76.8823" r="0.788235" fill="black"/>
<circle cx="45.8781" cy="76.8823" r="0.788235" fill="black"/>
<circle cx="42.7252" cy="76.8823" r="0.788235" fill="black"/>
<circle cx="39.5724" cy="76.8823" r="0.788235" fill="black"/>
<circle cx="36.4196" cy="76.8823" r="0.788235" fill="black"/>
<circle cx="33.2663" cy="76.8823" r="0.788235" fill="black"/>
<circle cx="30.1134" cy="76.8823" r="0.788235" fill="black"/>
<circle cx="26.9606" cy="76.8823" r="0.788235" fill="black"/>
<circle cx="23.8078" cy="76.8823" r="0.788235" fill="black"/>
<circle cx="20.6544" cy="76.8823" r="0.788235" fill="black"/>
<circle cx="17.5016" cy="76.8823" r="0.788235" fill="black"/>
<circle cx="64.7961" cy="80.0354" r="0.788235" fill="black"/>
<circle cx="61.6427" cy="80.0354" r="0.788235" fill="black"/>
<circle cx="58.4899" cy="80.0354" r="0.788235" fill="black"/>
<circle cx="55.3371" cy="80.0354" r="0.788235" fill="black"/>
<circle cx="52.1842" cy="80.0354" r="0.788235" fill="black"/>
<circle cx="49.0314" cy="80.0354" r="0.788235" fill="black"/>
<circle cx="45.8781" cy="80.0354" r="0.788235" fill="black"/>
<circle cx="42.7252" cy="80.0354" r="0.788235" fill="black"/>
<circle cx="39.5724" cy="80.0354" r="0.788235" fill="black"/>
<circle cx="36.4196" cy="80.0354" r="0.788235" fill="black"/>
<circle cx="33.2663" cy="80.0354" r="0.788235" fill="black"/>
<circle cx="30.1134" cy="80.0354" r="0.788235" fill="black"/>
<circle cx="26.9606" cy="80.0354" r="0.788235" fill="black"/>
<circle cx="23.8078" cy="80.0354" r="0.788235" fill="black"/>
<circle cx="20.6544" cy="80.0354" r="0.788235" fill="black"/>
<circle cx="17.5016" cy="80.0354" r="0.788235" fill="black"/>
<circle cx="64.7961" cy="83.1883" r="0.788235" fill="black"/>
<circle cx="61.6427" cy="83.1883" r="0.788235" fill="black"/>
<circle cx="58.4899" cy="83.1883" r="0.788235" fill="black"/>
<circle cx="55.3371" cy="83.1883" r="0.788235" fill="black"/>
<circle cx="52.1842" cy="83.1883" r="0.788235" fill="black"/>
<circle cx="49.0314" cy="83.1883" r="0.788235" fill="black"/>
<circle cx="45.8781" cy="83.1883" r="0.788235" fill="black"/>
<circle cx="42.7252" cy="83.1883" r="0.788235" fill="black"/>
<circle cx="39.5724" cy="83.1883" r="0.788235" fill="black"/>
<circle cx="36.4196" cy="83.1883" r="0.788235" fill="black"/>
<circle cx="33.2663" cy="83.1883" r="0.788235" fill="black"/>
<circle cx="30.1134" cy="83.1883" r="0.788235" fill="black"/>
<circle cx="26.9606" cy="83.1883" r="0.788235" fill="black"/>
<circle cx="23.8078" cy="83.1883" r="0.788235" fill="black"/>
<circle cx="20.6544" cy="83.1883" r="0.788235" fill="black"/>
<circle cx="17.5016" cy="83.1883" r="0.788235" fill="black"/>
<circle cx="64.7961" cy="86.3411" r="0.788235" fill="black"/>
<circle cx="61.6427" cy="86.3411" r="0.788235" fill="black"/>
<circle cx="58.4899" cy="86.3411" r="0.788235" fill="black"/>
<circle cx="55.3371" cy="86.3411" r="0.788235" fill="black"/>
<circle cx="52.1842" cy="86.3411" r="0.788235" fill="black"/>
<circle cx="49.0314" cy="86.3411" r="0.788235" fill="black"/>
<circle cx="45.8781" cy="86.3411" r="0.788235" fill="black"/>
<circle cx="42.7252" cy="86.3411" r="0.788235" fill="black"/>
<circle cx="39.5724" cy="86.3411" r="0.788235" fill="black"/>
<circle cx="36.4196" cy="86.3411" r="0.788235" fill="black"/>
<circle cx="33.2663" cy="86.3411" r="0.788235" fill="black"/>
<circle cx="30.1134" cy="86.3411" r="0.788235" fill="black"/>
<circle cx="26.9606" cy="86.3411" r="0.788235" fill="black"/>
<circle cx="23.8078" cy="86.3411" r="0.788235" fill="black"/>
<circle cx="20.6544" cy="86.3411" r="0.788235" fill="black"/>
<circle cx="17.5016" cy="86.3411" r="0.788235" fill="black"/>
<circle cx="64.7961" cy="89.4942" r="0.788235" fill="black"/>
<circle cx="61.6427" cy="89.4942" r="0.788235" fill="black"/>
<circle cx="58.4899" cy="89.4942" r="0.788235" fill="black"/>
<circle cx="55.3371" cy="89.4942" r="0.788235" fill="black"/>
<circle cx="52.1842" cy="89.4942" r="0.788235" fill="black"/>
<circle cx="49.0314" cy="89.4942" r="0.788235" fill="black"/>
<circle cx="45.8781" cy="89.4942" r="0.788235" fill="black"/>
<circle cx="42.7252" cy="89.4942" r="0.788235" fill="black"/>
<circle cx="39.5724" cy="89.4942" r="0.788235" fill="black"/>
<circle cx="36.4196" cy="89.4942" r="0.788235" fill="black"/>
<circle cx="33.2663" cy="89.4942" r="0.788235" fill="black"/>
<circle cx="30.1134" cy="89.4942" r="0.788235" fill="black"/>
<circle cx="26.9606" cy="89.4942" r="0.788235" fill="black"/>
<circle cx="23.8078" cy="89.4942" r="0.788235" fill="black"/>
<circle cx="20.6544" cy="89.4942" r="0.788235" fill="black"/>
<circle cx="17.5016" cy="89.4942" r="0.788235" fill="black"/>
<circle cx="64.7961" cy="92.6471" r="0.788235" fill="black"/>
<circle cx="61.6427" cy="92.6471" r="0.788235" fill="black"/>
<circle cx="58.4899" cy="92.6471" r="0.788235" fill="black"/>
<circle cx="55.3371" cy="92.6471" r="0.788235" fill="black"/>
<circle cx="52.1842" cy="92.6471" r="0.788235" fill="black"/>
<circle cx="49.0314" cy="92.6471" r="0.788235" fill="black"/>
<circle cx="45.8781" cy="92.6471" r="0.788235" fill="black"/>
<circle cx="42.7252" cy="92.6471" r="0.788235" fill="black"/>
<circle cx="39.5724" cy="92.6471" r="0.788235" fill="black"/>
<circle cx="36.4196" cy="92.6471" r="0.788235" fill="black"/>
<circle cx="33.2663" cy="92.6471" r="0.788235" fill="black"/>
<circle cx="30.1134" cy="92.6471" r="0.788235" fill="black"/>
<circle cx="26.9606" cy="92.6471" r="0.788235" fill="black"/>
<circle cx="23.8078" cy="92.6471" r="0.788235" fill="black"/>
<circle cx="20.6544" cy="92.6471" r="0.788235" fill="black"/>
<circle cx="17.5016" cy="92.6471" r="0.788235" fill="black"/>
<circle cx="64.7961" cy="95.8" r="0.788235" fill="black"/>
<circle cx="61.6427" cy="95.8" r="0.788235" fill="black"/>
<circle cx="58.4899" cy="95.8" r="0.788235" fill="black"/>
<circle cx="55.3371" cy="95.8" r="0.788235" fill="black"/>
<circle cx="52.1842" cy="95.8" r="0.788235" fill="black"/>
<circle cx="49.0314" cy="95.8" r="0.788235" fill="black"/>
<circle cx="45.8781" cy="95.8" r="0.788235" fill="black"/>
<circle cx="42.7252" cy="95.8" r="0.788235" fill="black"/>
<circle cx="39.5724" cy="95.8" r="0.788235" fill="black"/>
<circle cx="36.4196" cy="95.8" r="0.788235" fill="black"/>
<circle cx="33.2663" cy="95.8" r="0.788235" fill="black"/>
<circle cx="30.1134" cy="95.8" r="0.788235" fill="black"/>
<circle cx="26.9606" cy="95.8" r="0.788235" fill="black"/>
<circle cx="23.8078" cy="95.8" r="0.788235" fill="black"/>
<circle cx="20.6544" cy="95.8" r="0.788235" fill="black"/>
<circle cx="17.5016" cy="95.8" r="0.788235" fill="black"/>
<circle cx="64.7961" cy="98.9529" r="0.788235" fill="black"/>
<circle cx="61.6427" cy="98.9529" r="0.788235" fill="black"/>
<circle cx="58.4899" cy="98.9529" r="0.788235" fill="black"/>
<circle cx="55.3371" cy="98.9529" r="0.788235" fill="black"/>
<circle cx="52.1842" cy="98.9529" r="0.788235" fill="black"/>
<circle cx="49.0314" cy="98.9529" r="0.788235" fill="black"/>
<circle cx="45.8781" cy="98.9529" r="0.788235" fill="black"/>
<circle cx="42.7252" cy="98.9529" r="0.788235" fill="black"/>
<circle cx="39.5724" cy="98.9529" r="0.788235" fill="black"/>
<circle cx="36.4196" cy="98.9529" r="0.788235" fill="black"/>
<circle cx="33.2663" cy="98.9529" r="0.788235" fill="black"/>
<circle cx="30.1134" cy="98.9529" r="0.788235" fill="black"/>
<circle cx="26.9606" cy="98.9529" r="0.788235" fill="black"/>
<circle cx="23.8078" cy="98.9529" r="0.788235" fill="black"/>
<circle cx="20.6544" cy="98.9529" r="0.788235" fill="black"/>
<circle cx="17.5016" cy="98.9529" r="0.788235" fill="black"/>
<circle cx="64.7961" cy="102.106" r="0.788235" fill="black"/>
<circle cx="61.6427" cy="102.106" r="0.788235" fill="black"/>
<circle cx="58.4899" cy="102.106" r="0.788235" fill="black"/>
<circle cx="55.3371" cy="102.106" r="0.788235" fill="black"/>
<circle cx="52.1842" cy="102.106" r="0.788235" fill="black"/>
<circle cx="49.0314" cy="102.106" r="0.788235" fill="black"/>
<circle cx="45.8781" cy="102.106" r="0.788235" fill="black"/>
<circle cx="42.7252" cy="102.106" r="0.788235" fill="black"/>
<circle cx="39.5724" cy="102.106" r="0.788235" fill="black"/>
<circle cx="36.4196" cy="102.106" r="0.788235" fill="black"/>
<circle cx="33.2663" cy="102.106" r="0.788235" fill="black"/>
<circle cx="30.1134" cy="102.106" r="0.788235" fill="black"/>
<circle cx="26.9606" cy="102.106" r="0.788235" fill="black"/>
<circle cx="23.8078" cy="102.106" r="0.788235" fill="black"/>
<circle cx="20.6544" cy="102.106" r="0.788235" fill="black"/>
<circle cx="17.5016" cy="102.106" r="0.788235" fill="black"/>
<circle cx="64.7961" cy="105.259" r="0.788235" fill="black"/>
<circle cx="61.6427" cy="105.259" r="0.788235" fill="black"/>
<circle cx="58.4899" cy="105.259" r="0.788235" fill="black"/>
<circle cx="55.3371" cy="105.259" r="0.788235" fill="black"/>
<circle cx="52.1842" cy="105.259" r="0.788235" fill="black"/>
<circle cx="49.0314" cy="105.259" r="0.788235" fill="black"/>
<circle cx="45.8781" cy="105.259" r="0.788235" fill="black"/>
<circle cx="42.7252" cy="105.259" r="0.788235" fill="black"/>
<circle cx="39.5724" cy="105.259" r="0.788235" fill="black"/>
<circle cx="36.4196" cy="105.259" r="0.788235" fill="black"/>
<circle cx="33.2663" cy="105.259" r="0.788235" fill="black"/>
<circle cx="30.1134" cy="105.259" r="0.788235" fill="black"/>
<circle cx="26.9606" cy="105.259" r="0.788235" fill="black"/>
<circle cx="23.8078" cy="105.259" r="0.788235" fill="black"/>
<circle cx="20.6544" cy="105.259" r="0.788235" fill="black"/>
<circle cx="17.5016" cy="105.259" r="0.788235" fill="black"/>
<circle cx="64.7961" cy="108.412" r="0.788235" fill="black"/>
<circle cx="61.6427" cy="108.412" r="0.788235" fill="black"/>
<circle cx="58.4899" cy="108.412" r="0.788235" fill="black"/>
<circle cx="55.3371" cy="108.412" r="0.788235" fill="black"/>
<circle cx="52.1842" cy="108.412" r="0.788235" fill="black"/>
<circle cx="49.0314" cy="108.412" r="0.788235" fill="black"/>
<circle cx="45.8781" cy="108.412" r="0.788235" fill="black"/>
<circle cx="42.7252" cy="108.412" r="0.788235" fill="black"/>
<circle cx="39.5724" cy="108.412" r="0.788235" fill="black"/>
<circle cx="36.4196" cy="108.412" r="0.788235" fill="black"/>
<circle cx="33.2663" cy="108.412" r="0.788235" fill="black"/>
<circle cx="30.1134" cy="108.412" r="0.788235" fill="black"/>
<circle cx="26.9606" cy="108.412" r="0.788235" fill="black"/>
<circle cx="23.8078" cy="108.412" r="0.788235" fill="black"/>
<circle cx="20.6544" cy="108.412" r="0.788235" fill="black"/>
<circle cx="17.5016" cy="108.412" r="0.788235" fill="black"/>
<circle cx="64.7961" cy="111.565" r="0.788235" fill="black"/>
<circle cx="61.6427" cy="111.565" r="0.788235" fill="black"/>
<circle cx="58.4899" cy="111.565" r="0.788235" fill="black"/>
<circle cx="55.3371" cy="111.565" r="0.788235" fill="black"/>
<circle cx="52.1842" cy="111.565" r="0.788235" fill="black"/>
<circle cx="49.0314" cy="111.565" r="0.788235" fill="black"/>
<circle cx="45.8781" cy="111.565" r="0.788235" fill="black"/>
<circle cx="42.7252" cy="111.565" r="0.788235" fill="black"/>
<circle cx="39.5724" cy="111.565" r="0.788235" fill="black"/>
<circle cx="36.4196" cy="111.565" r="0.788235" fill="black"/>
<circle cx="33.2663" cy="111.565" r="0.788235" fill="black"/>
<circle cx="30.1134" cy="111.565" r="0.788235" fill="black"/>
<circle cx="26.9606" cy="111.565" r="0.788235" fill="black"/>
<circle cx="23.8078" cy="111.565" r="0.788235" fill="black"/>
<circle cx="20.6544" cy="111.565" r="0.788235" fill="black"/>
<circle cx="17.5016" cy="111.565" r="0.788235" fill="black"/>
<circle cx="64.7961" cy="114.718" r="0.788235" fill="black"/>
<circle cx="61.6427" cy="114.718" r="0.788235" fill="black"/>
<circle cx="58.4899" cy="114.718" r="0.788235" fill="black"/>
<circle cx="55.3371" cy="114.718" r="0.788235" fill="black"/>
<circle cx="52.1842" cy="114.718" r="0.788235" fill="black"/>
<circle cx="49.0314" cy="114.718" r="0.788235" fill="black"/>
<circle cx="45.8781" cy="114.718" r="0.788235" fill="black"/>
<circle cx="42.7252" cy="114.718" r="0.788235" fill="black"/>
<circle cx="39.5724" cy="114.718" r="0.788235" fill="black"/>
<circle cx="36.4196" cy="114.718" r="0.788235" fill="black"/>
<circle cx="33.2663" cy="114.718" r="0.788235" fill="black"/>
<circle cx="30.1134" cy="114.718" r="0.788235" fill="black"/>
<circle cx="26.9606" cy="114.718" r="0.788235" fill="black"/>
<circle cx="23.8078" cy="114.718" r="0.788235" fill="black"/>
<circle cx="20.6544" cy="114.718" r="0.788235" fill="black"/>
<circle cx="17.5016" cy="114.718" r="0.788235" fill="black"/>
<circle cx="64.7961" cy="117.871" r="0.788235" fill="black"/>
<circle cx="64.7961" cy="121.023" r="0.788235" fill="black"/>
<circle cx="61.6427" cy="117.871" r="0.788235" fill="black"/>
<circle cx="61.6427" cy="121.023" r="0.788235" fill="black"/>
<circle cx="58.4899" cy="117.871" r="0.788235" fill="black"/>
<circle cx="58.4899" cy="121.023" r="0.788235" fill="black"/>
<circle cx="55.3371" cy="117.871" r="0.788235" fill="black"/>
<circle cx="55.3371" cy="121.023" r="0.788235" fill="black"/>
<circle cx="52.1842" cy="117.871" r="0.788235" fill="black"/>
<circle cx="52.1842" cy="121.023" r="0.788235" fill="black"/>
<circle cx="49.0314" cy="117.871" r="0.788235" fill="black"/>
<circle cx="49.0314" cy="121.023" r="0.788235" fill="black"/>
<circle cx="45.8781" cy="117.871" r="0.788235" fill="black"/>
<circle cx="45.8781" cy="121.023" r="0.788235" fill="black"/>
<circle cx="42.7252" cy="117.871" r="0.788235" fill="black"/>
<circle cx="42.7252" cy="121.023" r="0.788235" fill="black"/>
<circle cx="39.5724" cy="117.871" r="0.788235" fill="black"/>
<circle cx="39.5724" cy="121.023" r="0.788235" fill="black"/>
<circle cx="36.4196" cy="117.871" r="0.788235" fill="black"/>
<circle cx="36.4196" cy="121.023" r="0.788235" fill="black"/>
<circle cx="33.2663" cy="117.871" r="0.788235" fill="black"/>
<circle cx="33.2663" cy="121.023" r="0.788235" fill="black"/>
<circle cx="30.1134" cy="117.871" r="0.788235" fill="black"/>
<circle cx="30.1134" cy="121.023" r="0.788235" fill="black"/>
<circle cx="26.9606" cy="117.871" r="0.788235" fill="black"/>
<circle cx="26.9606" cy="121.023" r="0.788235" fill="black"/>
<circle cx="23.8078" cy="117.871" r="0.788235" fill="black"/>
<circle cx="23.8078" cy="121.023" r="0.788235" fill="black"/>
<circle cx="20.6544" cy="117.871" r="0.788235" fill="black"/>
<circle cx="20.6544" cy="121.023" r="0.788235" fill="black"/>
<circle cx="17.5016" cy="117.871" r="0.788235" fill="black"/>
<circle cx="17.5016" cy="121.023" r="0.788235" fill="black"/>
<circle cx="67.9489" cy="16.9765" r="0.788235" fill="black"/>
<circle cx="67.9489" cy="20.1294" r="0.788235" fill="black"/>
<circle cx="67.9489" cy="23.2824" r="0.788235" fill="black"/>
<circle cx="67.9489" cy="26.4353" r="0.788235" fill="black"/>
<circle cx="67.9489" cy="29.5882" r="0.788235" fill="black"/>
<circle cx="67.9489" cy="32.7411" r="0.788235" fill="black"/>
<circle cx="67.9489" cy="35.8941" r="0.788235" fill="black"/>
<circle cx="67.9489" cy="39.047" r="0.788235" fill="black"/>
<circle cx="67.9489" cy="42.1999" r="0.788235" fill="black"/>
<circle cx="67.9489" cy="45.353" r="0.788235" fill="black"/>
<circle cx="67.9489" cy="48.5059" r="0.788235" fill="black"/>
<circle cx="67.9489" cy="51.6588" r="0.788235" fill="black"/>
<circle cx="67.9489" cy="54.8118" r="0.788235" fill="black"/>
<circle cx="67.9489" cy="57.9647" r="0.788235" fill="black"/>
<circle cx="67.9489" cy="61.1176" r="0.788235" fill="black"/>
<circle cx="67.9489" cy="64.2706" r="0.788235" fill="black"/>
<circle cx="67.9489" cy="67.4235" r="0.788235" fill="black"/>
<circle cx="67.9489" cy="70.5764" r="0.788235" fill="black"/>
<circle cx="67.9489" cy="73.7293" r="0.788235" fill="black"/>
<circle cx="67.9489" cy="76.8823" r="0.788235" fill="black"/>
<circle cx="67.9489" cy="80.0354" r="0.788235" fill="black"/>
<circle cx="67.9489" cy="83.1883" r="0.788235" fill="black"/>
<circle cx="67.9489" cy="86.3411" r="0.788235" fill="black"/>
<circle cx="67.9489" cy="89.4942" r="0.788235" fill="black"/>
<circle cx="67.9489" cy="92.6471" r="0.788235" fill="black"/>
<circle cx="67.9489" cy="95.8" r="0.788235" fill="black"/>
<circle cx="67.9489" cy="98.9529" r="0.788235" fill="black"/>
<circle cx="67.9489" cy="102.106" r="0.788235" fill="black"/>
<circle cx="67.9489" cy="105.259" r="0.788235" fill="black"/>
<circle cx="67.9489" cy="108.412" r="0.788235" fill="black"/>
<circle cx="67.9489" cy="111.565" r="0.788235" fill="black"/>
<circle cx="67.9489" cy="114.718" r="0.788235" fill="black"/>
<circle cx="67.9489" cy="117.871" r="0.788235" fill="black"/>
<circle cx="67.9489" cy="121.023" r="0.788235" fill="black"/>
<circle cx="71.1017" cy="16.9765" r="0.788235" fill="black"/>
<circle cx="71.1017" cy="20.1294" r="0.788235" fill="black"/>
<circle cx="71.1017" cy="23.2824" r="0.788235" fill="black"/>
<circle cx="71.1017" cy="26.4353" r="0.788235" fill="black"/>
<circle cx="71.1017" cy="29.5882" r="0.788235" fill="black"/>
<circle cx="71.1017" cy="32.7411" r="0.788235" fill="black"/>
<circle cx="71.1017" cy="35.8941" r="0.788235" fill="black"/>
<circle cx="71.1017" cy="39.047" r="0.788235" fill="black"/>
<circle cx="71.1017" cy="42.1999" r="0.788235" fill="black"/>
<circle cx="71.1017" cy="45.353" r="0.788235" fill="black"/>
<circle cx="71.1017" cy="48.5059" r="0.788235" fill="black"/>
<circle cx="71.1017" cy="51.6588" r="0.788235" fill="black"/>
<circle cx="71.1017" cy="54.8118" r="0.788235" fill="black"/>
<circle cx="71.1017" cy="57.9647" r="0.788235" fill="black"/>
<circle cx="71.1017" cy="61.1176" r="0.788235" fill="black"/>
<circle cx="71.1017" cy="64.2706" r="0.788235" fill="black"/>
<circle cx="71.1017" cy="67.4235" r="0.788235" fill="black"/>
<circle cx="71.1017" cy="70.5764" r="0.788235" fill="black"/>
<circle cx="71.1017" cy="73.7293" r="0.788235" fill="black"/>
<circle cx="71.1017" cy="76.8823" r="0.788235" fill="black"/>
<circle cx="71.1017" cy="80.0354" r="0.788235" fill="black"/>
<circle cx="71.1017" cy="83.1883" r="0.788235" fill="black"/>
<circle cx="71.1017" cy="86.3411" r="0.788235" fill="black"/>
<circle cx="71.1017" cy="89.4942" r="0.788235" fill="black"/>
<circle cx="71.1017" cy="92.6471" r="0.788235" fill="black"/>
<circle cx="71.1017" cy="95.8" r="0.788235" fill="black"/>
<circle cx="71.1017" cy="98.9529" r="0.788235" fill="black"/>
<circle cx="71.1017" cy="102.106" r="0.788235" fill="black"/>
<circle cx="71.1017" cy="105.259" r="0.788235" fill="black"/>
<circle cx="71.1017" cy="108.412" r="0.788235" fill="black"/>
<circle cx="71.1017" cy="111.565" r="0.788235" fill="black"/>
<circle cx="71.1017" cy="114.718" r="0.788235" fill="black"/>
<circle cx="71.1017" cy="117.871" r="0.788235" fill="black"/>
<circle cx="71.1017" cy="121.023" r="0.788235" fill="black"/>
<circle cx="74.2545" cy="16.9765" r="0.788235" fill="black"/>
<circle cx="74.2545" cy="20.1294" r="0.788235" fill="black"/>
<circle cx="74.2545" cy="23.2824" r="0.788235" fill="black"/>
<circle cx="74.2545" cy="26.4353" r="0.788235" fill="black"/>
<circle cx="74.2545" cy="29.5882" r="0.788235" fill="black"/>
<circle cx="74.2545" cy="32.7411" r="0.788235" fill="black"/>
<circle cx="74.2545" cy="35.8941" r="0.788235" fill="black"/>
<circle cx="74.2545" cy="39.047" r="0.788235" fill="black"/>
<circle cx="74.2545" cy="42.1999" r="0.788235" fill="black"/>
<circle cx="74.2545" cy="45.353" r="0.788235" fill="black"/>
<circle cx="74.2545" cy="48.5059" r="0.788235" fill="black"/>
<circle cx="74.2545" cy="51.6588" r="0.788235" fill="black"/>
<circle cx="74.2545" cy="54.8118" r="0.788235" fill="black"/>
<circle cx="74.2545" cy="57.9647" r="0.788235" fill="black"/>
<circle cx="74.2545" cy="61.1176" r="0.788235" fill="black"/>
<circle cx="74.2545" cy="64.2706" r="0.788235" fill="black"/>
<circle cx="74.2545" cy="67.4235" r="0.788235" fill="black"/>
<circle cx="74.2545" cy="70.5764" r="0.788235" fill="black"/>
<circle cx="74.2545" cy="73.7293" r="0.788235" fill="black"/>
<circle cx="74.2545" cy="76.8823" r="0.788235" fill="black"/>
<circle cx="74.2545" cy="80.0354" r="0.788235" fill="black"/>
<circle cx="74.2545" cy="83.1883" r="0.788235" fill="black"/>
<circle cx="74.2545" cy="86.3411" r="0.788235" fill="black"/>
<circle cx="74.2545" cy="89.4942" r="0.788235" fill="black"/>
<circle cx="74.2545" cy="92.6471" r="0.788235" fill="black"/>
<circle cx="74.2545" cy="95.8" r="0.788235" fill="black"/>
<circle cx="74.2545" cy="98.9529" r="0.788235" fill="black"/>
<circle cx="74.2545" cy="102.106" r="0.788235" fill="black"/>
<circle cx="74.2545" cy="105.259" r="0.788235" fill="black"/>
<circle cx="74.2545" cy="108.412" r="0.788235" fill="black"/>
<circle cx="74.2545" cy="111.565" r="0.788235" fill="black"/>
<circle cx="74.2545" cy="114.718" r="0.788235" fill="black"/>
<circle cx="74.2545" cy="117.871" r="0.788235" fill="black"/>
<circle cx="74.2545" cy="121.023" r="0.788235" fill="black"/>
<circle cx="77.4074" cy="16.9765" r="0.788235" fill="black"/>
<circle cx="77.4074" cy="20.1294" r="0.788235" fill="black"/>
<circle cx="77.4074" cy="23.2824" r="0.788235" fill="black"/>
<circle cx="77.4074" cy="26.4353" r="0.788235" fill="black"/>
<circle cx="77.4074" cy="29.5882" r="0.788235" fill="black"/>
<circle cx="77.4074" cy="32.7411" r="0.788235" fill="black"/>
<circle cx="77.4074" cy="35.8941" r="0.788235" fill="black"/>
<circle cx="77.4074" cy="39.047" r="0.788235" fill="black"/>
<circle cx="77.4074" cy="42.1999" r="0.788235" fill="black"/>
<circle cx="77.4074" cy="45.353" r="0.788235" fill="black"/>
<circle cx="77.4074" cy="48.5059" r="0.788235" fill="black"/>
<circle cx="77.4074" cy="51.6588" r="0.788235" fill="black"/>
<circle cx="77.4074" cy="54.8118" r="0.788235" fill="black"/>
<circle cx="77.4074" cy="57.9647" r="0.788235" fill="black"/>
<circle cx="77.4074" cy="61.1176" r="0.788235" fill="black"/>
<circle cx="77.4074" cy="64.2706" r="0.788235" fill="black"/>
<circle cx="77.4074" cy="67.4235" r="0.788235" fill="black"/>
<circle cx="77.4074" cy="70.5764" r="0.788235" fill="black"/>
<circle cx="77.4074" cy="73.7293" r="0.788235" fill="black"/>
<circle cx="77.4074" cy="76.8823" r="0.788235" fill="black"/>
<circle cx="77.4074" cy="80.0354" r="0.788235" fill="black"/>
<circle cx="77.4074" cy="83.1883" r="0.788235" fill="black"/>
<circle cx="77.4074" cy="86.3411" r="0.788235" fill="black"/>
<circle cx="77.4074" cy="89.4942" r="0.788235" fill="black"/>
<circle cx="77.4074" cy="92.6471" r="0.788235" fill="black"/>
<circle cx="77.4074" cy="95.8" r="0.788235" fill="black"/>
<circle cx="77.4074" cy="98.9529" r="0.788235" fill="black"/>
<circle cx="77.4074" cy="102.106" r="0.788235" fill="black"/>
<circle cx="77.4074" cy="105.259" r="0.788235" fill="black"/>
<circle cx="77.4074" cy="108.412" r="0.788235" fill="black"/>
<circle cx="77.4074" cy="111.565" r="0.788235" fill="black"/>
<circle cx="77.4074" cy="114.718" r="0.788235" fill="black"/>
<circle cx="77.4074" cy="117.871" r="0.788235" fill="black"/>
<circle cx="77.4074" cy="121.023" r="0.788235" fill="black"/>
<circle cx="80.5607" cy="16.9765" r="0.788235" fill="black"/>
<circle cx="80.5607" cy="20.1294" r="0.788235" fill="black"/>
<circle cx="80.5607" cy="23.2824" r="0.788235" fill="black"/>
<circle cx="80.5607" cy="26.4353" r="0.788235" fill="black"/>
<circle cx="80.5607" cy="29.5882" r="0.788235" fill="black"/>
<circle cx="80.5607" cy="32.7411" r="0.788235" fill="black"/>
<circle cx="80.5607" cy="35.8941" r="0.788235" fill="black"/>
<circle cx="80.5607" cy="39.047" r="0.788235" fill="black"/>
<circle cx="80.5607" cy="42.1999" r="0.788235" fill="black"/>
<circle cx="80.5607" cy="45.353" r="0.788235" fill="black"/>
<circle cx="80.5607" cy="48.5059" r="0.788235" fill="black"/>
<circle cx="80.5607" cy="51.6588" r="0.788235" fill="black"/>
<circle cx="80.5607" cy="54.8118" r="0.788235" fill="black"/>
<circle cx="80.5607" cy="57.9647" r="0.788235" fill="black"/>
<circle cx="80.5607" cy="61.1176" r="0.788235" fill="black"/>
<circle cx="80.5607" cy="64.2706" r="0.788235" fill="black"/>
<circle cx="80.5607" cy="67.4235" r="0.788235" fill="black"/>
<circle cx="80.5607" cy="70.5764" r="0.788235" fill="black"/>
<circle cx="80.5607" cy="73.7293" r="0.788235" fill="black"/>
<circle cx="80.5607" cy="76.8823" r="0.788235" fill="black"/>
<circle cx="80.5607" cy="80.0354" r="0.788235" fill="black"/>
<circle cx="80.5607" cy="83.1883" r="0.788235" fill="black"/>
<circle cx="80.5607" cy="86.3411" r="0.788235" fill="black"/>
<circle cx="80.5607" cy="89.4942" r="0.788235" fill="black"/>
<circle cx="80.5607" cy="92.6471" r="0.788235" fill="black"/>
<circle cx="80.5607" cy="95.8" r="0.788235" fill="black"/>
<circle cx="80.5607" cy="98.9529" r="0.788235" fill="black"/>
<circle cx="80.5607" cy="102.106" r="0.788235" fill="black"/>
<circle cx="80.5607" cy="105.259" r="0.788235" fill="black"/>
<circle cx="80.5607" cy="108.412" r="0.788235" fill="black"/>
<circle cx="80.5607" cy="111.565" r="0.788235" fill="black"/>
<circle cx="80.5607" cy="114.718" r="0.788235" fill="black"/>
<circle cx="80.5607" cy="117.871" r="0.788235" fill="black"/>
<circle cx="80.5607" cy="121.023" r="0.788235" fill="black"/>
<circle cx="83.7135" cy="16.9765" r="0.788235" fill="black"/>
<circle cx="83.7135" cy="20.1294" r="0.788235" fill="black"/>
<circle cx="83.7135" cy="23.2824" r="0.788235" fill="black"/>
<circle cx="83.7135" cy="26.4353" r="0.788235" fill="black"/>
<circle cx="83.7135" cy="29.5882" r="0.788235" fill="black"/>
<circle cx="83.7135" cy="32.7411" r="0.788235" fill="black"/>
<circle cx="83.7135" cy="35.8941" r="0.788235" fill="black"/>
<circle cx="83.7135" cy="39.047" r="0.788235" fill="black"/>
<circle cx="83.7135" cy="42.1999" r="0.788235" fill="black"/>
<circle cx="83.7135" cy="45.353" r="0.788235" fill="black"/>
<circle cx="83.7135" cy="48.5059" r="0.788235" fill="black"/>
<circle cx="83.7135" cy="51.6588" r="0.788235" fill="black"/>
<circle cx="83.7135" cy="54.8118" r="0.788235" fill="black"/>
<circle cx="83.7135" cy="57.9647" r="0.788235" fill="black"/>
<circle cx="83.7135" cy="61.1176" r="0.788235" fill="black"/>
<circle cx="83.7135" cy="64.2706" r="0.788235" fill="black"/>
<circle cx="83.7135" cy="67.4235" r="0.788235" fill="black"/>
<circle cx="83.7135" cy="70.5764" r="0.788235" fill="black"/>
<circle cx="83.7135" cy="73.7293" r="0.788235" fill="black"/>
<circle cx="83.7135" cy="76.8823" r="0.788235" fill="black"/>
<circle cx="83.7135" cy="80.0354" r="0.788235" fill="black"/>
<circle cx="83.7135" cy="83.1883" r="0.788235" fill="black"/>
<circle cx="83.7135" cy="86.3411" r="0.788235" fill="black"/>
<circle cx="83.7135" cy="89.4942" r="0.788235" fill="black"/>
<circle cx="83.7135" cy="92.6471" r="0.788235" fill="black"/>
<circle cx="83.7135" cy="95.8" r="0.788235" fill="black"/>
<circle cx="83.7135" cy="98.9529" r="0.788235" fill="black"/>
<circle cx="83.7135" cy="102.106" r="0.788235" fill="black"/>
<circle cx="83.7135" cy="105.259" r="0.788235" fill="black"/>
<circle cx="83.7135" cy="108.412" r="0.788235" fill="black"/>
<circle cx="83.7135" cy="111.565" r="0.788235" fill="black"/>
<circle cx="83.7135" cy="114.718" r="0.788235" fill="black"/>
<circle cx="83.7135" cy="117.871" r="0.788235" fill="black"/>
<circle cx="83.7135" cy="121.023" r="0.788235" fill="black"/>
<circle cx="86.8664" cy="16.9765" r="0.788235" fill="black"/>
<circle cx="86.8664" cy="20.1294" r="0.788235" fill="black"/>
<circle cx="86.8664" cy="23.2824" r="0.788235" fill="black"/>
<circle cx="86.8664" cy="26.4353" r="0.788235" fill="black"/>
<circle cx="86.8664" cy="29.5882" r="0.788235" fill="black"/>
<circle cx="86.8664" cy="32.7411" r="0.788235" fill="black"/>
<circle cx="86.8664" cy="35.8941" r="0.788235" fill="black"/>
<circle cx="86.8664" cy="39.047" r="0.788235" fill="black"/>
<circle cx="86.8664" cy="42.1999" r="0.788235" fill="black"/>
<circle cx="86.8664" cy="45.353" r="0.788235" fill="black"/>
<circle cx="86.8664" cy="48.5059" r="0.788235" fill="black"/>
<circle cx="86.8664" cy="51.6588" r="0.788235" fill="black"/>
<circle cx="86.8664" cy="54.8118" r="0.788235" fill="black"/>
<circle cx="86.8664" cy="57.9647" r="0.788235" fill="black"/>
<circle cx="86.8664" cy="61.1176" r="0.788235" fill="black"/>
<circle cx="86.8664" cy="64.2706" r="0.788235" fill="black"/>
<circle cx="86.8664" cy="67.4235" r="0.788235" fill="black"/>
<circle cx="86.8664" cy="70.5764" r="0.788235" fill="black"/>
<circle cx="86.8664" cy="73.7293" r="0.788235" fill="black"/>
<circle cx="86.8664" cy="76.8823" r="0.788235" fill="black"/>
<circle cx="86.8664" cy="80.0354" r="0.788235" fill="black"/>
<circle cx="86.8664" cy="83.1883" r="0.788235" fill="black"/>
<circle cx="86.8664" cy="86.3411" r="0.788235" fill="black"/>
<circle cx="86.8664" cy="89.4942" r="0.788235" fill="black"/>
<circle cx="86.8664" cy="92.6471" r="0.788235" fill="black"/>
<circle cx="86.8664" cy="95.8" r="0.788235" fill="black"/>
<circle cx="86.8664" cy="98.9529" r="0.788235" fill="black"/>
<circle cx="86.8664" cy="102.106" r="0.788235" fill="black"/>
<circle cx="86.8664" cy="105.259" r="0.788235" fill="black"/>
<circle cx="86.8664" cy="108.412" r="0.788235" fill="black"/>
<circle cx="86.8664" cy="111.565" r="0.788235" fill="black"/>
<circle cx="86.8664" cy="114.718" r="0.788235" fill="black"/>
<circle cx="86.8664" cy="117.871" r="0.788235" fill="black"/>
<circle cx="86.8664" cy="121.023" r="0.788235" fill="black"/>
<circle cx="90.0192" cy="16.9765" r="0.788235" fill="black"/>
<circle cx="90.0192" cy="20.1294" r="0.788235" fill="black"/>
<circle cx="90.0192" cy="23.2824" r="0.788235" fill="black"/>
<circle cx="90.0192" cy="26.4353" r="0.788235" fill="black"/>
<circle cx="90.0192" cy="29.5882" r="0.788235" fill="black"/>
<circle cx="90.0192" cy="32.7411" r="0.788235" fill="black"/>
<circle cx="90.0192" cy="35.8941" r="0.788235" fill="black"/>
<circle cx="90.0192" cy="39.047" r="0.788235" fill="black"/>
<circle cx="90.0192" cy="42.1999" r="0.788235" fill="black"/>
<circle cx="90.0192" cy="45.353" r="0.788235" fill="black"/>
<circle cx="90.0192" cy="48.5059" r="0.788235" fill="black"/>
<circle cx="90.0192" cy="51.6588" r="0.788235" fill="black"/>
<circle cx="90.0192" cy="54.8118" r="0.788235" fill="black"/>
<circle cx="90.0192" cy="57.9647" r="0.788235" fill="black"/>
<circle cx="90.0192" cy="61.1176" r="0.788235" fill="black"/>
<circle cx="90.0192" cy="64.2706" r="0.788235" fill="black"/>
<circle cx="90.0192" cy="67.4235" r="0.788235" fill="black"/>
<circle cx="90.0192" cy="70.5764" r="0.788235" fill="black"/>
<circle cx="90.0192" cy="73.7293" r="0.788235" fill="black"/>
<circle cx="90.0192" cy="76.8823" r="0.788235" fill="black"/>
<circle cx="90.0192" cy="80.0354" r="0.788235" fill="black"/>
<circle cx="90.0192" cy="83.1883" r="0.788235" fill="black"/>
<circle cx="90.0192" cy="86.3411" r="0.788235" fill="black"/>
<circle cx="90.0192" cy="89.4942" r="0.788235" fill="black"/>
<circle cx="90.0192" cy="92.6471" r="0.788235" fill="black"/>
<circle cx="90.0192" cy="95.8" r="0.788235" fill="black"/>
<circle cx="90.0192" cy="98.9529" r="0.788235" fill="black"/>
<circle cx="90.0192" cy="102.106" r="0.788235" fill="black"/>
<circle cx="90.0192" cy="105.259" r="0.788235" fill="black"/>
<circle cx="90.0192" cy="108.412" r="0.788235" fill="black"/>
<circle cx="90.0192" cy="111.565" r="0.788235" fill="black"/>
<circle cx="90.0192" cy="114.718" r="0.788235" fill="black"/>
<circle cx="90.0192" cy="117.871" r="0.788235" fill="black"/>
<circle cx="90.0192" cy="121.023" r="0.788235" fill="black"/>
<circle cx="93.1725" cy="16.9765" r="0.788235" fill="black"/>
<circle cx="93.1725" cy="20.1294" r="0.788235" fill="black"/>
<circle cx="93.1725" cy="23.2824" r="0.788235" fill="black"/>
<circle cx="93.1725" cy="26.4353" r="0.788235" fill="black"/>
<circle cx="93.1725" cy="29.5882" r="0.788235" fill="black"/>
<circle cx="93.1725" cy="32.7411" r="0.788235" fill="black"/>
<circle cx="93.1725" cy="35.8941" r="0.788235" fill="black"/>
<circle cx="93.1725" cy="39.047" r="0.788235" fill="black"/>
<circle cx="93.1725" cy="42.1999" r="0.788235" fill="black"/>
<circle cx="93.1725" cy="45.353" r="0.788235" fill="black"/>
<circle cx="93.1725" cy="48.5059" r="0.788235" fill="black"/>
<circle cx="93.1725" cy="51.6588" r="0.788235" fill="black"/>
<circle cx="93.1725" cy="54.8118" r="0.788235" fill="black"/>
<circle cx="93.1725" cy="57.9647" r="0.788235" fill="black"/>
<circle cx="93.1725" cy="61.1176" r="0.788235" fill="black"/>
<circle cx="93.1725" cy="64.2706" r="0.788235" fill="black"/>
<circle cx="93.1725" cy="67.4235" r="0.788235" fill="black"/>
<circle cx="93.1725" cy="70.5764" r="0.788235" fill="black"/>
<circle cx="93.1725" cy="73.7293" r="0.788235" fill="black"/>
<circle cx="93.1725" cy="76.8823" r="0.788235" fill="black"/>
<circle cx="93.1725" cy="80.0354" r="0.788235" fill="black"/>
<circle cx="93.1725" cy="83.1883" r="0.788235" fill="black"/>
<circle cx="93.1725" cy="86.3411" r="0.788235" fill="black"/>
<circle cx="93.1725" cy="89.4942" r="0.788235" fill="black"/>
<circle cx="93.1725" cy="92.6471" r="0.788235" fill="black"/>
<circle cx="93.1725" cy="95.8" r="0.788235" fill="black"/>
<circle cx="93.1725" cy="98.9529" r="0.788235" fill="black"/>
<circle cx="93.1725" cy="102.106" r="0.788235" fill="black"/>
<circle cx="93.1725" cy="105.259" r="0.788235" fill="black"/>
<circle cx="93.1725" cy="108.412" r="0.788235" fill="black"/>
<circle cx="93.1725" cy="111.565" r="0.788235" fill="black"/>
<circle cx="93.1725" cy="114.718" r="0.788235" fill="black"/>
<circle cx="93.1725" cy="117.871" r="0.788235" fill="black"/>
<circle cx="93.1725" cy="121.023" r="0.788235" fill="black"/>
<circle cx="96.3253" cy="16.9765" r="0.788235" fill="black"/>
<circle cx="96.3253" cy="20.1294" r="0.788235" fill="black"/>
<circle cx="96.3253" cy="23.2824" r="0.788235" fill="black"/>
<circle cx="96.3253" cy="26.4353" r="0.788235" fill="black"/>
<circle cx="96.3253" cy="29.5882" r="0.788235" fill="black"/>
<circle cx="96.3253" cy="32.7411" r="0.788235" fill="black"/>
<circle cx="96.3253" cy="35.8941" r="0.788235" fill="black"/>
<circle cx="96.3253" cy="39.047" r="0.788235" fill="black"/>
<circle cx="96.3253" cy="42.1999" r="0.788235" fill="black"/>
<circle cx="96.3253" cy="45.353" r="0.788235" fill="black"/>
<circle cx="96.3253" cy="48.5059" r="0.788235" fill="black"/>
<circle cx="96.3253" cy="51.6588" r="0.788235" fill="black"/>
<circle cx="96.3253" cy="54.8118" r="0.788235" fill="black"/>
<circle cx="96.3253" cy="57.9647" r="0.788235" fill="black"/>
<circle cx="96.3253" cy="61.1176" r="0.788235" fill="black"/>
<circle cx="96.3253" cy="64.2706" r="0.788235" fill="black"/>
<circle cx="96.3253" cy="67.4235" r="0.788235" fill="black"/>
<circle cx="96.3253" cy="70.5764" r="0.788235" fill="black"/>
<circle cx="96.3253" cy="73.7293" r="0.788235" fill="black"/>
<circle cx="96.3253" cy="76.8823" r="0.788235" fill="black"/>
<circle cx="96.3253" cy="80.0354" r="0.788235" fill="black"/>
<circle cx="96.3253" cy="83.1883" r="0.788235" fill="black"/>
<circle cx="96.3253" cy="86.3411" r="0.788235" fill="black"/>
<circle cx="96.3253" cy="89.4942" r="0.788235" fill="black"/>
<circle cx="96.3253" cy="92.6471" r="0.788235" fill="black"/>
<circle cx="96.3253" cy="95.8" r="0.788235" fill="black"/>
<circle cx="96.3253" cy="98.9529" r="0.788235" fill="black"/>
<circle cx="96.3253" cy="102.106" r="0.788235" fill="black"/>
<circle cx="96.3253" cy="105.259" r="0.788235" fill="black"/>
<circle cx="96.3253" cy="108.412" r="0.788235" fill="black"/>
<circle cx="96.3253" cy="111.565" r="0.788235" fill="black"/>
<circle cx="96.3253" cy="114.718" r="0.788235" fill="black"/>
<circle cx="96.3253" cy="117.871" r="0.788235" fill="black"/>
<circle cx="96.3253" cy="121.023" r="0.788235" fill="black"/>
<circle cx="99.4782" cy="16.9765" r="0.788235" fill="black"/>
<circle cx="99.4782" cy="20.1294" r="0.788235" fill="black"/>
<circle cx="99.4782" cy="23.2824" r="0.788235" fill="black"/>
<circle cx="99.4782" cy="26.4353" r="0.788235" fill="black"/>
<circle cx="99.4782" cy="29.5882" r="0.788235" fill="black"/>
<circle cx="99.4782" cy="32.7411" r="0.788235" fill="black"/>
<circle cx="99.4782" cy="35.8941" r="0.788235" fill="black"/>
<circle cx="99.4782" cy="39.047" r="0.788235" fill="black"/>
<circle cx="99.4782" cy="42.1999" r="0.788235" fill="black"/>
<circle cx="99.4782" cy="45.353" r="0.788235" fill="black"/>
<circle cx="99.4782" cy="48.5059" r="0.788235" fill="black"/>
<circle cx="99.4782" cy="51.6588" r="0.788235" fill="black"/>
<circle cx="99.4782" cy="54.8118" r="0.788235" fill="black"/>
<circle cx="99.4782" cy="57.9647" r="0.788235" fill="black"/>
<circle cx="99.4782" cy="61.1176" r="0.788235" fill="black"/>
<circle cx="99.4782" cy="64.2706" r="0.788235" fill="black"/>
<circle cx="99.4782" cy="67.4235" r="0.788235" fill="black"/>
<circle cx="99.4782" cy="70.5764" r="0.788235" fill="black"/>
<circle cx="99.4782" cy="73.7293" r="0.788235" fill="black"/>
<circle cx="99.4782" cy="76.8823" r="0.788235" fill="black"/>
<circle cx="99.4782" cy="80.0354" r="0.788235" fill="black"/>
<circle cx="99.4782" cy="83.1883" r="0.788235" fill="black"/>
<circle cx="99.4782" cy="86.3411" r="0.788235" fill="black"/>
<circle cx="99.4782" cy="89.4942" r="0.788235" fill="black"/>
<circle cx="99.4782" cy="92.6471" r="0.788235" fill="black"/>
<circle cx="99.4782" cy="95.8" r="0.788235" fill="black"/>
<circle cx="99.4782" cy="98.9529" r="0.788235" fill="black"/>
<circle cx="99.4782" cy="102.106" r="0.788235" fill="black"/>
<circle cx="99.4782" cy="105.259" r="0.788235" fill="black"/>
<circle cx="99.4782" cy="108.412" r="0.788235" fill="black"/>
<circle cx="99.4782" cy="111.565" r="0.788235" fill="black"/>
<circle cx="99.4782" cy="114.718" r="0.788235" fill="black"/>
<circle cx="99.4782" cy="117.871" r="0.788235" fill="black"/>
<circle cx="99.4782" cy="121.023" r="0.788235" fill="black"/>
<circle cx="102.631" cy="16.9765" r="0.788235" fill="black"/>
<circle cx="102.631" cy="20.1294" r="0.788235" fill="black"/>
<circle cx="102.631" cy="23.2824" r="0.788235" fill="black"/>
<circle cx="102.631" cy="26.4353" r="0.788235" fill="black"/>
<circle cx="102.631" cy="29.5882" r="0.788235" fill="black"/>
<circle cx="102.631" cy="32.7411" r="0.788235" fill="black"/>
<circle cx="102.631" cy="35.8941" r="0.788235" fill="black"/>
<circle cx="102.631" cy="39.047" r="0.788235" fill="black"/>
<circle cx="102.631" cy="42.1999" r="0.788235" fill="black"/>
<circle cx="102.631" cy="45.353" r="0.788235" fill="black"/>
<circle cx="102.631" cy="48.5059" r="0.788235" fill="black"/>
<circle cx="102.631" cy="51.6588" r="0.788235" fill="black"/>
<circle cx="102.631" cy="54.8118" r="0.788235" fill="black"/>
<circle cx="102.631" cy="57.9647" r="0.788235" fill="black"/>
<circle cx="102.631" cy="61.1176" r="0.788235" fill="black"/>
<circle cx="102.631" cy="64.2706" r="0.788235" fill="black"/>
<circle cx="102.631" cy="67.4235" r="0.788235" fill="black"/>
<circle cx="102.631" cy="70.5764" r="0.788235" fill="black"/>
<circle cx="102.631" cy="73.7293" r="0.788235" fill="black"/>
<circle cx="102.631" cy="76.8823" r="0.788235" fill="black"/>
<circle cx="102.631" cy="80.0354" r="0.788235" fill="black"/>
<circle cx="102.631" cy="83.1883" r="0.788235" fill="black"/>
<circle cx="102.631" cy="86.3411" r="0.788235" fill="black"/>
<circle cx="102.631" cy="89.4942" r="0.788235" fill="black"/>
<circle cx="102.631" cy="92.6471" r="0.788235" fill="black"/>
<circle cx="102.631" cy="95.8" r="0.788235" fill="black"/>
<circle cx="102.631" cy="98.9529" r="0.788235" fill="black"/>
<circle cx="102.631" cy="102.106" r="0.788235" fill="black"/>
<circle cx="102.631" cy="105.259" r="0.788235" fill="black"/>
<circle cx="102.631" cy="108.412" r="0.788235" fill="black"/>
<circle cx="102.631" cy="111.565" r="0.788235" fill="black"/>
<circle cx="102.631" cy="114.718" r="0.788235" fill="black"/>
<circle cx="102.631" cy="117.871" r="0.788235" fill="black"/>
<circle cx="102.631" cy="121.023" r="0.788235" fill="black"/>
<circle cx="105.784" cy="16.9765" r="0.788235" fill="black"/>
<circle cx="105.784" cy="20.1294" r="0.788235" fill="black"/>
<circle cx="105.784" cy="23.2824" r="0.788235" fill="black"/>
<circle cx="105.784" cy="26.4353" r="0.788235" fill="black"/>
<circle cx="105.784" cy="29.5882" r="0.788235" fill="black"/>
<circle cx="105.784" cy="32.7411" r="0.788235" fill="black"/>
<circle cx="105.784" cy="35.8941" r="0.788235" fill="black"/>
<circle cx="105.784" cy="39.047" r="0.788235" fill="black"/>
<circle cx="105.784" cy="42.1999" r="0.788235" fill="black"/>
<circle cx="105.784" cy="45.353" r="0.788235" fill="black"/>
<circle cx="105.784" cy="48.5059" r="0.788235" fill="black"/>
<circle cx="105.784" cy="51.6588" r="0.788235" fill="black"/>
<circle cx="105.784" cy="54.8118" r="0.788235" fill="black"/>
<circle cx="105.784" cy="57.9647" r="0.788235" fill="black"/>
<circle cx="105.784" cy="61.1176" r="0.788235" fill="black"/>
<circle cx="105.784" cy="64.2706" r="0.788235" fill="black"/>
<circle cx="105.784" cy="67.4235" r="0.788235" fill="black"/>
<circle cx="105.784" cy="70.5764" r="0.788235" fill="black"/>
<circle cx="105.784" cy="73.7293" r="0.788235" fill="black"/>
<circle cx="105.784" cy="76.8823" r="0.788235" fill="black"/>
<circle cx="105.784" cy="80.0354" r="0.788235" fill="black"/>
<circle cx="105.784" cy="83.1883" r="0.788235" fill="black"/>
<circle cx="105.784" cy="86.3411" r="0.788235" fill="black"/>
<circle cx="105.784" cy="89.4942" r="0.788235" fill="black"/>
<circle cx="105.784" cy="92.6471" r="0.788235" fill="black"/>
<circle cx="105.784" cy="95.8" r="0.788235" fill="black"/>
<circle cx="105.784" cy="98.9529" r="0.788235" fill="black"/>
<circle cx="105.784" cy="102.106" r="0.788235" fill="black"/>
<circle cx="105.784" cy="105.259" r="0.788235" fill="black"/>
<circle cx="105.784" cy="108.412" r="0.788235" fill="black"/>
<circle cx="105.784" cy="111.565" r="0.788235" fill="black"/>
<circle cx="105.784" cy="114.718" r="0.788235" fill="black"/>
<circle cx="105.784" cy="117.871" r="0.788235" fill="black"/>
<circle cx="105.784" cy="121.023" r="0.788235" fill="black"/>
<circle cx="108.937" cy="16.9765" r="0.788235" fill="black"/>
<circle cx="108.937" cy="20.1294" r="0.788235" fill="black"/>
<circle cx="108.937" cy="23.2824" r="0.788235" fill="black"/>
<circle cx="108.937" cy="26.4353" r="0.788235" fill="black"/>
<circle cx="108.937" cy="29.5882" r="0.788235" fill="black"/>
<circle cx="108.937" cy="32.7411" r="0.788235" fill="black"/>
<circle cx="108.937" cy="35.8941" r="0.788235" fill="black"/>
<circle cx="108.937" cy="39.047" r="0.788235" fill="black"/>
<circle cx="108.937" cy="42.1999" r="0.788235" fill="black"/>
<circle cx="108.937" cy="45.353" r="0.788235" fill="black"/>
<circle cx="108.937" cy="48.5059" r="0.788235" fill="black"/>
<circle cx="108.937" cy="51.6588" r="0.788235" fill="black"/>
<circle cx="108.937" cy="54.8118" r="0.788235" fill="black"/>
<circle cx="108.937" cy="57.9647" r="0.788235" fill="black"/>
<circle cx="108.937" cy="61.1176" r="0.788235" fill="black"/>
<circle cx="108.937" cy="64.2706" r="0.788235" fill="black"/>
<circle cx="108.937" cy="67.4235" r="0.788235" fill="black"/>
<circle cx="108.937" cy="70.5764" r="0.788235" fill="black"/>
<circle cx="108.937" cy="73.7293" r="0.788235" fill="black"/>
<circle cx="108.937" cy="76.8823" r="0.788235" fill="black"/>
<circle cx="108.937" cy="80.0354" r="0.788235" fill="black"/>
<circle cx="108.937" cy="83.1883" r="0.788235" fill="black"/>
<circle cx="108.937" cy="86.3411" r="0.788235" fill="black"/>
<circle cx="108.937" cy="89.4942" r="0.788235" fill="black"/>
<circle cx="108.937" cy="92.6471" r="0.788235" fill="black"/>
<circle cx="108.937" cy="95.8" r="0.788235" fill="black"/>
<circle cx="108.937" cy="98.9529" r="0.788235" fill="black"/>
<circle cx="108.937" cy="102.106" r="0.788235" fill="black"/>
<circle cx="108.937" cy="105.259" r="0.788235" fill="black"/>
<circle cx="108.937" cy="108.412" r="0.788235" fill="black"/>
<circle cx="108.937" cy="111.565" r="0.788235" fill="black"/>
<circle cx="108.937" cy="114.718" r="0.788235" fill="black"/>
<circle cx="108.937" cy="117.871" r="0.788235" fill="black"/>
<circle cx="108.937" cy="121.023" r="0.788235" fill="black"/>
<circle cx="112.09" cy="16.9765" r="0.788235" fill="black"/>
<circle cx="112.09" cy="20.1294" r="0.788235" fill="black"/>
<circle cx="112.09" cy="23.2824" r="0.788235" fill="black"/>
<circle cx="112.09" cy="26.4353" r="0.788235" fill="black"/>
<circle cx="112.09" cy="29.5882" r="0.788235" fill="black"/>
<circle cx="112.09" cy="32.7411" r="0.788235" fill="black"/>
<circle cx="112.09" cy="35.8941" r="0.788235" fill="black"/>
<circle cx="112.09" cy="39.047" r="0.788235" fill="black"/>
<circle cx="112.09" cy="42.1999" r="0.788235" fill="black"/>
<circle cx="112.09" cy="45.353" r="0.788235" fill="black"/>
<circle cx="112.09" cy="48.5059" r="0.788235" fill="black"/>
<circle cx="112.09" cy="51.6588" r="0.788235" fill="black"/>
<circle cx="112.09" cy="54.8118" r="0.788235" fill="black"/>
<circle cx="112.09" cy="57.9647" r="0.788235" fill="black"/>
<circle cx="112.09" cy="61.1176" r="0.788235" fill="black"/>
<circle cx="112.09" cy="64.2706" r="0.788235" fill="black"/>
<circle cx="112.09" cy="67.4235" r="0.788235" fill="black"/>
<circle cx="112.09" cy="70.5764" r="0.788235" fill="black"/>
<circle cx="112.09" cy="73.7293" r="0.788235" fill="black"/>
<circle cx="112.09" cy="76.8823" r="0.788235" fill="black"/>
<circle cx="112.09" cy="80.0354" r="0.788235" fill="black"/>
<circle cx="112.09" cy="83.1883" r="0.788235" fill="black"/>
<circle cx="112.09" cy="86.3411" r="0.788235" fill="black"/>
<circle cx="112.09" cy="89.4942" r="0.788235" fill="black"/>
<circle cx="112.09" cy="92.6471" r="0.788235" fill="black"/>
<circle cx="112.09" cy="95.8" r="0.788235" fill="black"/>
<circle cx="112.09" cy="98.9529" r="0.788235" fill="black"/>
<circle cx="112.09" cy="102.106" r="0.788235" fill="black"/>
<circle cx="112.09" cy="105.259" r="0.788235" fill="black"/>
<circle cx="112.09" cy="108.412" r="0.788235" fill="black"/>
<circle cx="112.09" cy="111.565" r="0.788235" fill="black"/>
<circle cx="112.09" cy="114.718" r="0.788235" fill="black"/>
<circle cx="112.09" cy="117.871" r="0.788235" fill="black"/>
<circle cx="112.09" cy="121.023" r="0.788235" fill="black"/>
<circle cx="115.243" cy="16.9765" r="0.788235" fill="black"/>
<circle cx="115.243" cy="20.1294" r="0.788235" fill="black"/>
<circle cx="115.243" cy="23.2824" r="0.788235" fill="black"/>
<circle cx="115.243" cy="26.4353" r="0.788235" fill="black"/>
<circle cx="115.243" cy="29.5882" r="0.788235" fill="black"/>
<circle cx="115.243" cy="32.7411" r="0.788235" fill="black"/>
<circle cx="115.243" cy="35.8941" r="0.788235" fill="black"/>
<circle cx="115.243" cy="39.047" r="0.788235" fill="black"/>
<circle cx="115.243" cy="42.1999" r="0.788235" fill="black"/>
<circle cx="115.243" cy="45.353" r="0.788235" fill="black"/>
<circle cx="115.243" cy="48.5059" r="0.788235" fill="black"/>
<circle cx="115.243" cy="51.6588" r="0.788235" fill="black"/>
<circle cx="115.243" cy="54.8118" r="0.788235" fill="black"/>
<circle cx="115.243" cy="57.9647" r="0.788235" fill="black"/>
<circle cx="115.243" cy="61.1176" r="0.788235" fill="black"/>
<circle cx="115.243" cy="64.2706" r="0.788235" fill="black"/>
<circle cx="115.243" cy="67.4235" r="0.788235" fill="black"/>
<circle cx="115.243" cy="70.5764" r="0.788235" fill="black"/>
<circle cx="115.243" cy="73.7293" r="0.788235" fill="black"/>
<circle cx="115.243" cy="76.8823" r="0.788235" fill="black"/>
<circle cx="115.243" cy="80.0354" r="0.788235" fill="black"/>
<circle cx="115.243" cy="83.1883" r="0.788235" fill="black"/>
<circle cx="115.243" cy="86.3411" r="0.788235" fill="black"/>
<circle cx="115.243" cy="89.4942" r="0.788235" fill="black"/>
<circle cx="115.243" cy="92.6471" r="0.788235" fill="black"/>
<circle cx="115.243" cy="95.8" r="0.788235" fill="black"/>
<circle cx="115.243" cy="98.9529" r="0.788235" fill="black"/>
<circle cx="115.243" cy="102.106" r="0.788235" fill="black"/>
<circle cx="115.243" cy="105.259" r="0.788235" fill="black"/>
<circle cx="115.243" cy="108.412" r="0.788235" fill="black"/>
<circle cx="115.243" cy="111.565" r="0.788235" fill="black"/>
<circle cx="115.243" cy="114.718" r="0.788235" fill="black"/>
<circle cx="115.243" cy="117.871" r="0.788235" fill="black"/>
<circle cx="115.243" cy="121.023" r="0.788235" fill="black"/>
<circle cx="118.396" cy="16.9765" r="0.788235" fill="black"/>
<circle cx="118.396" cy="20.1294" r="0.788235" fill="black"/>
<circle cx="118.396" cy="23.2824" r="0.788235" fill="black"/>
<circle cx="118.396" cy="26.4353" r="0.788235" fill="black"/>
<circle cx="118.396" cy="29.5882" r="0.788235" fill="black"/>
<circle cx="118.396" cy="32.7411" r="0.788235" fill="black"/>
<circle cx="118.396" cy="35.8941" r="0.788235" fill="black"/>
<circle cx="118.396" cy="39.047" r="0.788235" fill="black"/>
<circle cx="118.396" cy="42.1999" r="0.788235" fill="black"/>
<circle cx="118.396" cy="45.353" r="0.788235" fill="black"/>
<circle cx="118.396" cy="48.5059" r="0.788235" fill="black"/>
<circle cx="118.396" cy="51.6588" r="0.788235" fill="black"/>
<circle cx="118.396" cy="54.8118" r="0.788235" fill="black"/>
<circle cx="118.396" cy="57.9647" r="0.788235" fill="black"/>
<circle cx="118.396" cy="61.1176" r="0.788235" fill="black"/>
<circle cx="118.396" cy="64.2706" r="0.788235" fill="black"/>
<circle cx="118.396" cy="67.4235" r="0.788235" fill="black"/>
<circle cx="118.396" cy="70.5764" r="0.788235" fill="black"/>
<circle cx="118.396" cy="73.7293" r="0.788235" fill="black"/>
<circle cx="118.396" cy="76.8823" r="0.788235" fill="black"/>
<circle cx="118.396" cy="80.0354" r="0.788235" fill="black"/>
<circle cx="118.396" cy="83.1883" r="0.788235" fill="black"/>
<circle cx="118.396" cy="86.3411" r="0.788235" fill="black"/>
<circle cx="118.396" cy="89.4942" r="0.788235" fill="black"/>
<circle cx="118.396" cy="92.6471" r="0.788235" fill="black"/>
<circle cx="118.396" cy="95.8" r="0.788235" fill="black"/>
<circle cx="118.396" cy="98.9529" r="0.788235" fill="black"/>
<circle cx="118.396" cy="102.106" r="0.788235" fill="black"/>
<circle cx="118.396" cy="105.259" r="0.788235" fill="black"/>
<circle cx="118.396" cy="108.412" r="0.788235" fill="black"/>
<circle cx="118.396" cy="111.565" r="0.788235" fill="black"/>
<circle cx="118.396" cy="114.718" r="0.788235" fill="black"/>
<circle cx="118.396" cy="117.871" r="0.788235" fill="black"/>
<circle cx="118.396" cy="121.023" r="0.788235" fill="black"/>
</g>
<path d="M41.937 107.886C41.937 107.451 42.2899 107.098 42.7252 107.098C43.1606 107.098 43.5135 107.451 43.5135 107.886V116.031C43.5135 116.467 43.1606 116.82 42.7252 116.82C42.2899 116.82 41.937 116.467 41.937 116.031L41.937 107.886Z" fill="black"/>
<rect x="24.5962" y="114.98" width="21.0196" height="21.0196" fill="black"/>
<path d="M28.8003 126.168L32.5265 129.694L41.4121 121.286" stroke="white" stroke-width="4"/>
<circle cx="65.059" cy="17.7647" r="12.6118" fill="black"/>
<path d="M58.7529 18.4428L62.4791 21.9686L71.3647 13.5608" stroke="white" stroke-width="4"/>
<path d="M64.0078 30.1137C64.0078 29.6783 64.3607 29.3254 64.796 29.3254C65.2314 29.3254 65.5843 29.6783 65.5843 30.1137V38.2588C65.5843 38.6941 65.2314 39.047 64.796 39.047C64.3607 39.047 64.0078 38.6941 64.0078 38.2588L64.0078 30.1137Z" fill="black"/>
<rect x="108.149" y="31.9529" width="1.57647" height="29.4275" rx="0.788235" fill="black"/>
<rect x="107.098" y="22.4941" width="21.0196" height="21.0196" fill="url(#paint0_linear_282_15942)"/>
<path d="M111.302 33.682L115.028 37.2078L123.914 28.8" stroke="white" stroke-width="4"/>
<path d="M86.0786 101.58C86.0786 101.145 86.4315 100.792 86.8668 100.792C87.3022 100.792 87.6551 101.145 87.6551 101.58V109.726C87.6551 110.161 87.3022 110.514 86.8668 110.514C86.4315 110.514 86.0786 110.161 86.0786 109.726L86.0786 101.58Z" fill="black"/>
<circle cx="94.4863" cy="120.498" r="12.6118" stroke="url(#paint1_linear_282_15942)" stroke-width="6"/>
<rect x="23.0195" y="38.2588" width="1.57647" height="29.4275" rx="0.788235" fill="black"/>
<circle cx="23.0195" cy="46.6667" r="12.6118" fill="url(#paint2_linear_282_15942)"/>
<path d="M28.2745 41.4117L17.7646 51.396" stroke="white" stroke-width="3"/>
<path d="M28.2744 51.9214L17.7646 41.4116" stroke="white" stroke-width="3"/>
<rect x="76.6191" y="63.4823" width="1.57647" height="23.1216" rx="0.788235" fill="black"/>
<path fill-rule="evenodd" clip-rule="evenodd" d="M73.7217 61.6597L67.2084 67.8336L70.7915 71.5969L77.4015 65.3313L84.5016 72.4158L88.1802 68.7453L81.1744 61.755L88.1325 55.1594L84.5494 51.3961L77.4946 58.0833L70.8392 51.4427L67.1606 55.1131L73.7217 61.6597Z" fill="url(#paint3_linear_282_15942)"/>
<defs>
<linearGradient id="paint0_linear_282_15942" x1="107.382" y1="33.0039" x2="128.118" y2="33.0039" gradientUnits="userSpaceOnUse">
<stop stop-color="#8000FF"/>
<stop offset="1" stop-color="#FF53F8"/>
</linearGradient>
<linearGradient id="paint1_linear_282_15942" x1="82.2154" y1="120.498" x2="107.098" y2="120.498" gradientUnits="userSpaceOnUse">
<stop stop-color="#8000FF"/>
<stop offset="1" stop-color="#FF53F8"/>
</linearGradient>
<linearGradient id="paint2_linear_282_15942" x1="10.7486" y1="46.6667" x2="35.6312" y2="46.6667" gradientUnits="userSpaceOnUse">
<stop stop-color="#8000FF"/>
<stop offset="1" stop-color="#FF53F8"/>
</linearGradient>
<linearGradient id="paint3_linear_282_15942" x1="67.4447" y1="61.9059" x2="88.1802" y2="61.9059" gradientUnits="userSpaceOnUse">
<stop stop-color="#8000FF"/>
<stop offset="1" stop-color="#FF53F8"/>
</linearGradient>
</defs>
</svg>
