<svg width="1280" height="1668" viewBox="0 0 1280 1668" fill="none" xmlns="http://www.w3.org/2000/svg">
<path d="M0 0H1280V1668H0V0Z" fill="black"/>
<circle cx="255" cy="1212" r="4" fill="#9020C7" fill-opacity="0.5"/>
<circle cx="500" cy="1313" r="4" fill="#9020C7" fill-opacity="0.5"/>
<circle cx="540" cy="1137" r="4" fill="#9020C7" fill-opacity="0.5"/>
<circle cx="720" cy="1269" r="4" fill="#9020C7" fill-opacity="0.5"/>
<circle cx="406" cy="1489" r="4" fill="#9020C7" fill-opacity="0.5"/>
<circle cx="182" cy="1399" r="4" fill="#9020C7" fill-opacity="0.5"/>
<circle cx="68" cy="1080" r="4" fill="#9020C7" fill-opacity="0.5"/>
<circle cx="720" cy="1088" r="4" fill="#9020C7" fill-opacity="0.5"/>
<circle cx="303" cy="1163" r="4" fill="#9020C7" fill-opacity="0.5"/>
<circle cx="548" cy="1264" r="4" fill="#9020C7" fill-opacity="0.5"/>
<circle cx="588" cy="1088" r="4" fill="#9020C7" fill-opacity="0.5"/>
<circle cx="454" cy="1440" r="4" fill="#9020C7" fill-opacity="0.5"/>
<circle cx="230" cy="1350" r="4" fill="#9020C7" fill-opacity="0.5"/>
<circle cx="116" cy="1031" r="4" fill="#9020C7" fill-opacity="0.5"/>
<circle cx="459" cy="1204" r="4" fill="#9020C7" fill-opacity="0.5"/>
<circle cx="704" cy="1305" r="4" fill="#9020C7" fill-opacity="0.5"/>
<circle cx="744" cy="1129" r="4" fill="#9020C7" fill-opacity="0.5"/>
<circle cx="610" cy="1481" r="4" fill="#9020C7" fill-opacity="0.5"/>
<circle cx="386" cy="1391" r="4" fill="#9020C7" fill-opacity="0.5"/>
<circle cx="272" cy="1072" r="4" fill="#9020C7" fill-opacity="0.5"/>
<circle cx="266.442" cy="379.648" r="3.86266" fill="#9020C7" fill-opacity="0.5"/>
<circle cx="503.03" cy="477.18" r="3.86266" fill="#9020C7" fill-opacity="0.5"/>
<circle cx="541.657" cy="307.223" r="3.86266" fill="#9020C7" fill-opacity="0.5"/>
<circle cx="715.476" cy="434.691" r="3.86266" fill="#9020C7" fill-opacity="0.5"/>
<circle cx="412.258" cy="647.137" r="3.86266" fill="#9020C7" fill-opacity="0.5"/>
<circle cx="195.949" cy="560.227" r="3.86266" fill="#9020C7" fill-opacity="0.5"/>
<circle cx="85.8627" cy="252.18" r="3.86266" fill="#9020C7" fill-opacity="0.5"/>
<circle cx="715.476" cy="259.906" r="3.86266" fill="#9020C7" fill-opacity="0.5"/>
<circle cx="312.794" cy="332.331" r="3.86266" fill="#9020C7" fill-opacity="0.5"/>
<circle cx="549.382" cy="429.863" r="3.86266" fill="#9020C7" fill-opacity="0.5"/>
<circle cx="588.009" cy="259.906" r="3.86266" fill="#9020C7" fill-opacity="0.5"/>
<circle cx="458.609" cy="599.82" r="3.86266" fill="#9020C7" fill-opacity="0.5"/>
<circle cx="242.301" cy="512.91" r="3.86266" fill="#9020C7" fill-opacity="0.5"/>
<circle cx="132.215" cy="204.863" r="3.86266" fill="#9020C7" fill-opacity="0.5"/>
<circle cx="463.438" cy="371.923" r="3.86266" fill="#9020C7" fill-opacity="0.5"/>
<circle cx="700.026" cy="469.455" r="3.86266" fill="#9020C7" fill-opacity="0.5"/>
<circle cx="738.652" cy="299.498" r="3.86266" fill="#9020C7" fill-opacity="0.5"/>
<circle cx="609.253" cy="639.412" r="3.86266" fill="#9020C7" fill-opacity="0.5"/>
<circle cx="392.944" cy="552.502" r="3.86266" fill="#9020C7" fill-opacity="0.5"/>
<circle cx="282.858" cy="244.455" r="3.86266" fill="#9020C7" fill-opacity="0.5"/>
<circle cx="727.442" cy="375.648" r="3.86266" fill="#9020C7" fill-opacity="0.5"/>
<circle cx="964.03" cy="473.18" r="3.86266" fill="#9020C7" fill-opacity="0.5"/>
<circle cx="1002.66" cy="303.223" r="3.86266" fill="#9020C7" fill-opacity="0.5"/>
<circle cx="1176.48" cy="430.691" r="3.86266" fill="#9020C7" fill-opacity="0.5"/>
<circle cx="873.258" cy="643.137" r="3.86266" fill="#9020C7" fill-opacity="0.5"/>
<circle cx="656.949" cy="556.227" r="3.86266" fill="#9020C7" fill-opacity="0.5"/>
<circle cx="546.863" cy="248.18" r="3.86266" fill="#9020C7" fill-opacity="0.5"/>
<circle cx="1176.48" cy="255.906" r="3.86266" fill="#9020C7" fill-opacity="0.5"/>
<circle cx="773.794" cy="328.331" r="3.86266" fill="#9020C7" fill-opacity="0.5"/>
<circle cx="1010.38" cy="425.863" r="3.86266" fill="#9020C7" fill-opacity="0.5"/>
<circle cx="1049.01" cy="255.906" r="3.86266" fill="#9020C7" fill-opacity="0.5"/>
<circle cx="919.609" cy="595.82" r="3.86266" fill="#9020C7" fill-opacity="0.5"/>
<circle cx="703.301" cy="508.91" r="3.86266" fill="#9020C7" fill-opacity="0.5"/>
<circle cx="593.215" cy="200.863" r="3.86266" fill="#9020C7" fill-opacity="0.5"/>
<circle cx="924.438" cy="367.923" r="3.86266" fill="#9020C7" fill-opacity="0.5"/>
<circle cx="1161.03" cy="465.455" r="3.86266" fill="#9020C7" fill-opacity="0.5"/>
<circle cx="1199.65" cy="295.498" r="3.86266" fill="#9020C7" fill-opacity="0.5"/>
<circle cx="1070.25" cy="635.412" r="3.86266" fill="#9020C7" fill-opacity="0.5"/>
<circle cx="853.944" cy="548.502" r="3.86266" fill="#9020C7" fill-opacity="0.5"/>
<circle cx="743.858" cy="240.455" r="3.86266" fill="#9020C7" fill-opacity="0.5"/>
<circle cx="244.442" cy="782.648" r="3.86266" fill="#9020C7" fill-opacity="0.5"/>
<circle cx="481.03" cy="880.18" r="3.86266" fill="#9020C7" fill-opacity="0.5"/>
<circle cx="519.657" cy="710.223" r="3.86266" fill="#9020C7" fill-opacity="0.5"/>
<circle cx="693.476" cy="837.691" r="3.86266" fill="#9020C7" fill-opacity="0.5"/>
<circle cx="390.258" cy="1050.14" r="3.86266" fill="#9020C7" fill-opacity="0.5"/>
<circle cx="173.949" cy="963.227" r="3.86266" fill="#9020C7" fill-opacity="0.5"/>
<circle cx="63.8627" cy="655.18" r="3.86266" fill="#9020C7" fill-opacity="0.5"/>
<circle cx="693.476" cy="662.906" r="3.86266" fill="#9020C7" fill-opacity="0.5"/>
<circle cx="290.794" cy="735.331" r="3.86266" fill="#9020C7" fill-opacity="0.5"/>
<circle cx="527.382" cy="832.863" r="3.86266" fill="#9020C7" fill-opacity="0.5"/>
<circle cx="566.009" cy="662.906" r="3.86266" fill="#9020C7" fill-opacity="0.5"/>
<circle cx="436.609" cy="1002.82" r="3.86266" fill="#9020C7" fill-opacity="0.5"/>
<circle cx="220.301" cy="915.91" r="3.86266" fill="#9020C7" fill-opacity="0.5"/>
<circle cx="110.215" cy="607.863" r="3.86266" fill="#9020C7" fill-opacity="0.5"/>
<circle cx="441.438" cy="774.923" r="3.86266" fill="#9020C7" fill-opacity="0.5"/>
<circle cx="678.026" cy="872.455" r="3.86266" fill="#9020C7" fill-opacity="0.5"/>
<circle cx="716.652" cy="702.498" r="3.86266" fill="#9020C7" fill-opacity="0.5"/>
<circle cx="587.253" cy="1042.41" r="3.86266" fill="#9020C7" fill-opacity="0.5"/>
<circle cx="370.944" cy="955.502" r="3.86266" fill="#9020C7" fill-opacity="0.5"/>
<circle cx="260.858" cy="647.455" r="3.86266" fill="#9020C7" fill-opacity="0.5"/>
<circle cx="722.442" cy="778.648" r="3.86266" fill="#9020C7" fill-opacity="0.5"/>
<circle cx="959.03" cy="876.18" r="3.86266" fill="#9020C7" fill-opacity="0.5"/>
<circle cx="997.657" cy="706.223" r="3.86266" fill="#9020C7" fill-opacity="0.5"/>
<circle cx="1171.48" cy="833.691" r="3.86266" fill="#9020C7" fill-opacity="0.5"/>
<circle cx="868.258" cy="1046.14" r="3.86266" fill="#9020C7" fill-opacity="0.5"/>
<circle cx="651.949" cy="959.227" r="3.86266" fill="#9020C7" fill-opacity="0.5"/>
<circle cx="541.863" cy="651.18" r="3.86266" fill="#9020C7" fill-opacity="0.5"/>
<circle cx="1171.48" cy="658.906" r="3.86266" fill="#9020C7" fill-opacity="0.5"/>
<circle cx="768.794" cy="731.331" r="3.86266" fill="#9020C7" fill-opacity="0.5"/>
<circle cx="1005.38" cy="828.863" r="3.86266" fill="#9020C7" fill-opacity="0.5"/>
<circle cx="1044.01" cy="658.906" r="3.86266" fill="#9020C7" fill-opacity="0.5"/>
<circle cx="914.609" cy="998.82" r="3.86266" fill="#9020C7" fill-opacity="0.5"/>
<circle cx="698.301" cy="911.91" r="3.86266" fill="#9020C7" fill-opacity="0.5"/>
<circle cx="588.215" cy="603.863" r="3.86266" fill="#9020C7" fill-opacity="0.5"/>
<circle cx="919.438" cy="770.923" r="3.86266" fill="#9020C7" fill-opacity="0.5"/>
<circle cx="1156.03" cy="868.455" r="3.86266" fill="#9020C7" fill-opacity="0.5"/>
<circle cx="1194.65" cy="698.498" r="3.86266" fill="#9020C7" fill-opacity="0.5"/>
<circle cx="1065.25" cy="1038.41" r="3.86266" fill="#9020C7" fill-opacity="0.5"/>
<circle cx="848.944" cy="951.502" r="3.86266" fill="#9020C7" fill-opacity="0.5"/>
<circle cx="738.858" cy="643.455" r="3.86266" fill="#9020C7" fill-opacity="0.5"/>
<g filter="url(#filter0_f_30_18231)">
<ellipse cx="849.5" cy="530.5" rx="184.5" ry="179.5" fill="url(#paint0_linear_30_18231)" fill-opacity="0.1"/>
</g>
<g filter="url(#filter1_f_30_18231)">
<ellipse cx="405.5" cy="710" rx="147.5" ry="143" fill="url(#paint1_linear_30_18231)" fill-opacity="0.1"/>
</g>
<g filter="url(#filter2_f_30_18231)">
<ellipse cx="769.5" cy="948" rx="112.5" ry="109" fill="url(#paint2_linear_30_18231)" fill-opacity="0.1"/>
</g>
<defs>
<filter id="filter0_f_30_18231" x="661" y="347" width="377" height="367" filterUnits="userSpaceOnUse" color-interpolation-filters="sRGB">
<feFlood flood-opacity="0" result="BackgroundImageFix"/>
<feBlend mode="normal" in="SourceGraphic" in2="BackgroundImageFix" result="shape"/>
<feGaussianBlur stdDeviation="2" result="effect1_foregroundBlur_30_18231"/>
</filter>
<filter id="filter1_f_30_18231" x="254" y="563" width="303" height="294" filterUnits="userSpaceOnUse" color-interpolation-filters="sRGB">
<feFlood flood-opacity="0" result="BackgroundImageFix"/>
<feBlend mode="normal" in="SourceGraphic" in2="BackgroundImageFix" result="shape"/>
<feGaussianBlur stdDeviation="2" result="effect1_foregroundBlur_30_18231"/>
</filter>
<filter id="filter2_f_30_18231" x="653" y="835" width="233" height="226" filterUnits="userSpaceOnUse" color-interpolation-filters="sRGB">
<feFlood flood-opacity="0" result="BackgroundImageFix"/>
<feBlend mode="normal" in="SourceGraphic" in2="BackgroundImageFix" result="shape"/>
<feGaussianBlur stdDeviation="2" result="effect1_foregroundBlur_30_18231"/>
</filter>
<linearGradient id="paint0_linear_30_18231" x1="703.146" y1="456.68" x2="994.811" y2="624.208" gradientUnits="userSpaceOnUse">
<stop offset="0.0637288" stop-color="#D7DDFF"/>
<stop offset="1" stop-color="#4E5DD0"/>
</linearGradient>
<linearGradient id="paint1_linear_30_18231" x1="258" y1="710" x2="553" y2="710" gradientUnits="userSpaceOnUse">
<stop stop-color="#571AFF"/>
<stop offset="1" stop-color="#FF53F8"/>
</linearGradient>
<linearGradient id="paint2_linear_30_18231" x1="657" y1="948" x2="882" y2="948" gradientUnits="userSpaceOnUse">
<stop stop-color="#192092"/>
<stop offset="1" stop-color="#FF71F1"/>
</linearGradient>
</defs>
</svg>
