<svg width="22" height="22" viewBox="0 0 22 22" fill="none" xmlns="http://www.w3.org/2000/svg">
<rect width="22" height="22" fill="#1E1E1E"/>
<path d="M15.3748 2.24984C16.5342 2.25331 17.6451 2.71539 18.4648 3.53517C19.2846 4.35495 19.7467 5.46582 19.7502 6.62516V15.3748C19.7467 16.5342 19.2846 17.6451 18.4648 18.4648C17.6451 19.2846 16.5342 19.7467 15.3748 19.7502H6.62516C5.46582 19.7467 4.35495 19.2846 3.53517 18.4648C2.71539 17.6451 2.25331 16.5342 2.24984 15.3748V6.62516C2.25331 5.46582 2.71539 4.35495 3.53517 3.53517C4.35495 2.71539 5.46582 2.25331 6.62516 2.24984H15.3748ZM15.3748 0.5H6.62516C3.25625 0.5 0.5 3.25625 0.5 6.62516V15.3748C0.5 18.7437 3.25625 21.5 6.62516 21.5H15.3748C18.7437 21.5 21.5 18.7437 21.5 15.3748V6.62516C21.5 3.25625 18.7437 0.5 15.3748 0.5Z" fill="#8E20C6"/>
<path d="M16.9373 6.625C16.6778 6.625 16.424 6.54802 16.2082 6.4038C15.9923 6.25959 15.8241 6.0546 15.7248 5.81477C15.6254 5.57494 15.5994 5.31104 15.6501 5.05644C15.7007 4.80184 15.8257 4.56798 16.0093 4.38442C16.1928 4.20087 16.4267 4.07586 16.6813 4.02522C16.9359 3.97458 17.1998 4.00057 17.4396 4.09991C17.6794 4.19925 17.8844 4.36748 18.0286 4.58331C18.1729 4.79915 18.2498 5.05291 18.2498 5.3125C18.2502 5.48496 18.2165 5.6558 18.1507 5.81521C18.0849 5.97462 17.9882 6.11945 17.8663 6.24141C17.7443 6.36336 17.5995 6.46002 17.4401 6.52585C17.2806 6.59168 17.1098 6.62537 16.9373 6.625ZM11.25 7.49969C11.9423 7.49969 12.619 7.70497 13.1946 8.08957C13.7702 8.47417 14.2188 9.02082 14.4837 9.66039C14.7486 10.3 14.818 11.0037 14.6829 11.6827C14.5478 12.3617 14.2145 12.9853 13.725 13.4748C13.2355 13.9643 12.6118 14.2977 11.9328 14.4327C11.2539 14.5678 10.5501 14.4985 9.91055 14.2336C9.27098 13.9686 8.72433 13.52 8.33973 12.9444C7.95513 12.3688 7.74985 11.6921 7.74985 10.9998C7.75084 10.0718 8.11992 9.18215 8.77611 8.52596C9.43231 7.86976 10.322 7.50068 11.25 7.49969ZM11.25 5.74984C10.2117 5.74984 9.19662 6.05775 8.33326 6.63463C7.4699 7.21151 6.79699 8.03144 6.39963 8.99076C6.00227 9.95007 5.89831 11.0057 6.10088 12.0241C6.30345 13.0425 6.80347 13.9779 7.53769 14.7122C8.27192 15.4464 9.20738 15.9464 10.2258 16.149C11.2442 16.3515 12.2998 16.2476 13.2591 15.8502C14.2184 15.4529 15.0383 14.7799 15.6152 13.9166C16.1921 13.0532 16.5 12.0382 16.5 10.9998C16.5 9.60746 15.9469 8.2721 14.9623 7.28753C13.9777 6.30297 12.6424 5.74984 11.25 5.74984Z" fill="#8E20C6"/>
</svg>
