<svg width="314" height="359" viewBox="0 0 314 359" fill="none" xmlns="http://www.w3.org/2000/svg">
<path fill-rule="evenodd" clip-rule="evenodd" d="M313.142 68.1314C313.142 30.5035 282.639 0 245.011 0C207.383 0 176.879 30.5035 176.879 68.1314V187.361H210.945V68.1314C210.945 49.3174 226.197 34.0657 245.011 34.0657C263.825 34.0657 279.076 49.3174 279.076 68.1314V117.046H313.142V68.1314Z" fill="black"/>
<rect x="146.745" y="127.091" width="131.022" height="231.909" rx="8" fill="url(#paint0_linear_42_2731)"/>
<mask id="mask0_42_2731" style="mask-type:alpha" maskUnits="userSpaceOnUse" x="146" y="127" width="132" height="232">
<rect x="146.745" y="127.091" width="131.022" height="231.909" rx="8" fill="url(#paint1_linear_42_2731)"/>
</mask>
<g mask="url(#mask0_42_2731)">
<circle cx="152.641" cy="130.367" r="1.96533" fill="black"/>
<circle cx="152.641" cy="138.228" r="1.96533" fill="black"/>
<circle cx="152.641" cy="146.089" r="1.96533" fill="black"/>
<circle cx="152.641" cy="153.951" r="1.96533" fill="black"/>
<circle cx="152.641" cy="161.812" r="1.96533" fill="black"/>
<circle cx="152.641" cy="169.673" r="1.96533" fill="black"/>
<circle cx="152.641" cy="177.535" r="1.96533" fill="black"/>
<circle cx="152.641" cy="185.396" r="1.96533" fill="black"/>
<circle cx="152.641" cy="193.257" r="1.96533" fill="black"/>
<circle cx="152.641" cy="201.119" r="1.96533" fill="black"/>
<circle cx="152.641" cy="208.98" r="1.96533" fill="black"/>
<circle cx="152.641" cy="216.841" r="1.96533" fill="black"/>
<circle cx="152.641" cy="224.703" r="1.96533" fill="black"/>
<circle cx="152.641" cy="232.564" r="1.96533" fill="black"/>
<circle cx="152.641" cy="240.425" r="1.96533" fill="black"/>
<circle cx="152.641" cy="248.286" r="1.96533" fill="black"/>
<circle cx="152.641" cy="256.148" r="1.96533" fill="black"/>
<circle cx="152.641" cy="264.009" r="1.96533" fill="black"/>
<circle cx="152.641" cy="271.87" r="1.96533" fill="black"/>
<circle cx="152.641" cy="279.732" r="1.96533" fill="black"/>
<circle cx="152.641" cy="287.593" r="1.96533" fill="black"/>
<circle cx="152.641" cy="295.454" r="1.96533" fill="black"/>
<circle cx="152.641" cy="303.316" r="1.96533" fill="black"/>
<circle cx="152.641" cy="311.177" r="1.96533" fill="black"/>
<circle cx="152.641" cy="319.038" r="1.96533" fill="black"/>
<circle cx="152.641" cy="326.9" r="1.96533" fill="black"/>
<circle cx="152.641" cy="334.761" r="1.96533" fill="black"/>
<circle cx="152.641" cy="342.622" r="1.96533" fill="black"/>
<circle cx="152.641" cy="350.484" r="1.96533" fill="black"/>
<circle cx="152.641" cy="358.345" r="1.96533" fill="black"/>
<circle cx="160.502" cy="130.367" r="1.96533" fill="black"/>
<circle cx="160.502" cy="138.228" r="1.96533" fill="black"/>
<circle cx="160.502" cy="146.089" r="1.96533" fill="black"/>
<circle cx="160.502" cy="153.951" r="1.96533" fill="black"/>
<circle cx="160.502" cy="161.812" r="1.96533" fill="black"/>
<circle cx="160.502" cy="169.673" r="1.96533" fill="black"/>
<circle cx="160.502" cy="177.535" r="1.96533" fill="black"/>
<circle cx="160.502" cy="185.396" r="1.96533" fill="black"/>
<circle cx="160.502" cy="193.257" r="1.96533" fill="black"/>
<circle cx="160.502" cy="201.119" r="1.96533" fill="black"/>
<circle cx="160.502" cy="208.98" r="1.96533" fill="black"/>
<circle cx="160.502" cy="216.841" r="1.96533" fill="black"/>
<circle cx="160.502" cy="224.703" r="1.96533" fill="black"/>
<circle cx="160.502" cy="232.564" r="1.96533" fill="black"/>
<circle cx="160.502" cy="240.425" r="1.96533" fill="black"/>
<circle cx="160.502" cy="248.286" r="1.96533" fill="black"/>
<circle cx="160.502" cy="256.148" r="1.96533" fill="black"/>
<circle cx="160.502" cy="264.009" r="1.96533" fill="black"/>
<circle cx="160.502" cy="271.87" r="1.96533" fill="black"/>
<circle cx="160.502" cy="279.732" r="1.96533" fill="black"/>
<circle cx="160.502" cy="287.593" r="1.96533" fill="black"/>
<circle cx="160.502" cy="295.454" r="1.96533" fill="black"/>
<circle cx="160.502" cy="303.316" r="1.96533" fill="black"/>
<circle cx="160.502" cy="311.177" r="1.96533" fill="black"/>
<circle cx="160.502" cy="319.038" r="1.96533" fill="black"/>
<circle cx="160.502" cy="326.9" r="1.96533" fill="black"/>
<circle cx="160.502" cy="334.761" r="1.96533" fill="black"/>
<circle cx="160.502" cy="342.622" r="1.96533" fill="black"/>
<circle cx="160.502" cy="350.484" r="1.96533" fill="black"/>
<circle cx="160.502" cy="358.345" r="1.96533" fill="black"/>
<circle cx="168.363" cy="130.367" r="1.96533" fill="black"/>
<circle cx="168.363" cy="138.228" r="1.96533" fill="black"/>
<circle cx="168.363" cy="146.089" r="1.96533" fill="black"/>
<circle cx="168.363" cy="153.951" r="1.96533" fill="black"/>
<circle cx="168.363" cy="161.812" r="1.96533" fill="black"/>
<circle cx="168.363" cy="169.673" r="1.96533" fill="black"/>
<circle cx="168.363" cy="177.535" r="1.96533" fill="black"/>
<circle cx="168.363" cy="185.396" r="1.96533" fill="black"/>
<circle cx="168.363" cy="193.257" r="1.96533" fill="black"/>
<circle cx="168.363" cy="201.119" r="1.96533" fill="black"/>
<circle cx="168.363" cy="208.98" r="1.96533" fill="black"/>
<circle cx="168.363" cy="216.841" r="1.96533" fill="black"/>
<circle cx="168.363" cy="224.703" r="1.96533" fill="black"/>
<circle cx="168.363" cy="232.564" r="1.96533" fill="black"/>
<circle cx="168.363" cy="240.425" r="1.96533" fill="black"/>
<circle cx="168.363" cy="248.286" r="1.96533" fill="black"/>
<circle cx="168.363" cy="256.148" r="1.96533" fill="black"/>
<circle cx="168.363" cy="264.009" r="1.96533" fill="black"/>
<circle cx="168.363" cy="271.87" r="1.96533" fill="black"/>
<circle cx="168.363" cy="279.732" r="1.96533" fill="black"/>
<circle cx="168.363" cy="287.593" r="1.96533" fill="black"/>
<circle cx="168.363" cy="295.454" r="1.96533" fill="black"/>
<circle cx="168.363" cy="303.316" r="1.96533" fill="black"/>
<circle cx="168.363" cy="311.177" r="1.96533" fill="black"/>
<circle cx="168.363" cy="319.038" r="1.96533" fill="black"/>
<circle cx="168.363" cy="326.9" r="1.96533" fill="black"/>
<circle cx="168.363" cy="334.761" r="1.96533" fill="black"/>
<circle cx="168.363" cy="342.622" r="1.96533" fill="black"/>
<circle cx="168.363" cy="350.484" r="1.96533" fill="black"/>
<circle cx="168.363" cy="358.345" r="1.96533" fill="black"/>
<circle cx="176.225" cy="130.367" r="1.96533" fill="black"/>
<circle cx="176.225" cy="138.228" r="1.96533" fill="black"/>
<circle cx="176.225" cy="146.089" r="1.96533" fill="black"/>
<circle cx="176.225" cy="153.951" r="1.96533" fill="black"/>
<circle cx="176.225" cy="161.812" r="1.96533" fill="black"/>
<circle cx="176.225" cy="169.673" r="1.96533" fill="black"/>
<circle cx="176.225" cy="177.535" r="1.96533" fill="black"/>
<circle cx="176.225" cy="185.396" r="1.96533" fill="black"/>
<circle cx="176.225" cy="193.257" r="1.96533" fill="black"/>
<circle cx="176.225" cy="201.119" r="1.96533" fill="black"/>
<circle cx="176.225" cy="208.98" r="1.96533" fill="black"/>
<circle cx="176.225" cy="216.841" r="1.96533" fill="black"/>
<circle cx="176.225" cy="224.703" r="1.96533" fill="black"/>
<circle cx="176.225" cy="232.564" r="1.96533" fill="black"/>
<circle cx="176.225" cy="240.425" r="1.96533" fill="black"/>
<circle cx="176.225" cy="248.286" r="1.96533" fill="black"/>
<circle cx="176.225" cy="256.148" r="1.96533" fill="black"/>
<circle cx="176.225" cy="264.009" r="1.96533" fill="black"/>
<circle cx="176.225" cy="271.87" r="1.96533" fill="black"/>
<circle cx="176.225" cy="279.732" r="1.96533" fill="black"/>
<circle cx="176.225" cy="287.593" r="1.96533" fill="black"/>
<circle cx="176.225" cy="295.454" r="1.96533" fill="black"/>
<circle cx="176.225" cy="303.316" r="1.96533" fill="black"/>
<circle cx="176.225" cy="311.177" r="1.96533" fill="black"/>
<circle cx="176.225" cy="319.038" r="1.96533" fill="black"/>
<circle cx="176.225" cy="326.9" r="1.96533" fill="black"/>
<circle cx="176.225" cy="334.761" r="1.96533" fill="black"/>
<circle cx="176.225" cy="342.622" r="1.96533" fill="black"/>
<circle cx="176.225" cy="350.484" r="1.96533" fill="black"/>
<circle cx="176.225" cy="358.345" r="1.96533" fill="black"/>
<circle cx="184.086" cy="130.367" r="1.96533" fill="black"/>
<circle cx="184.086" cy="138.228" r="1.96533" fill="black"/>
<circle cx="184.086" cy="146.089" r="1.96533" fill="black"/>
<circle cx="184.086" cy="153.951" r="1.96533" fill="black"/>
<circle cx="184.086" cy="161.812" r="1.96533" fill="black"/>
<circle cx="184.086" cy="169.673" r="1.96533" fill="black"/>
<circle cx="184.086" cy="177.535" r="1.96533" fill="black"/>
<circle cx="184.086" cy="185.396" r="1.96533" fill="black"/>
<circle cx="184.086" cy="193.257" r="1.96533" fill="black"/>
<circle cx="184.086" cy="201.119" r="1.96533" fill="black"/>
<circle cx="184.086" cy="208.98" r="1.96533" fill="black"/>
<circle cx="184.086" cy="216.841" r="1.96533" fill="black"/>
<circle cx="184.086" cy="224.703" r="1.96533" fill="black"/>
<circle cx="184.086" cy="232.564" r="1.96533" fill="black"/>
<circle cx="184.086" cy="240.425" r="1.96533" fill="black"/>
<circle cx="184.086" cy="248.286" r="1.96533" fill="black"/>
<circle cx="184.086" cy="256.148" r="1.96533" fill="black"/>
<circle cx="184.086" cy="264.009" r="1.96533" fill="black"/>
<circle cx="184.086" cy="271.87" r="1.96533" fill="black"/>
<circle cx="184.086" cy="279.732" r="1.96533" fill="black"/>
<circle cx="184.086" cy="287.593" r="1.96533" fill="black"/>
<circle cx="184.086" cy="295.454" r="1.96533" fill="black"/>
<circle cx="184.086" cy="303.316" r="1.96533" fill="black"/>
<circle cx="184.086" cy="311.177" r="1.96533" fill="black"/>
<circle cx="184.086" cy="319.038" r="1.96533" fill="black"/>
<circle cx="184.086" cy="326.9" r="1.96533" fill="black"/>
<circle cx="184.086" cy="334.761" r="1.96533" fill="black"/>
<circle cx="184.086" cy="342.622" r="1.96533" fill="black"/>
<circle cx="184.086" cy="350.484" r="1.96533" fill="black"/>
<circle cx="184.086" cy="358.345" r="1.96533" fill="black"/>
<circle cx="191.947" cy="130.367" r="1.96533" fill="black"/>
<circle cx="191.947" cy="138.228" r="1.96533" fill="black"/>
<circle cx="191.947" cy="146.089" r="1.96533" fill="black"/>
<circle cx="191.947" cy="153.951" r="1.96533" fill="black"/>
<circle cx="191.947" cy="161.812" r="1.96533" fill="black"/>
<circle cx="191.947" cy="169.673" r="1.96533" fill="black"/>
<circle cx="191.947" cy="177.535" r="1.96533" fill="black"/>
<circle cx="191.947" cy="185.396" r="1.96533" fill="black"/>
<circle cx="191.947" cy="193.257" r="1.96533" fill="black"/>
<circle cx="191.947" cy="201.119" r="1.96533" fill="black"/>
<circle cx="191.947" cy="208.98" r="1.96533" fill="black"/>
<circle cx="191.947" cy="216.841" r="1.96533" fill="black"/>
<circle cx="191.947" cy="224.703" r="1.96533" fill="black"/>
<circle cx="191.947" cy="232.564" r="1.96533" fill="black"/>
<circle cx="191.947" cy="240.425" r="1.96533" fill="black"/>
<circle cx="191.947" cy="248.286" r="1.96533" fill="black"/>
<circle cx="191.947" cy="256.148" r="1.96533" fill="black"/>
<circle cx="191.947" cy="264.009" r="1.96533" fill="black"/>
<circle cx="191.947" cy="271.87" r="1.96533" fill="black"/>
<circle cx="191.947" cy="279.732" r="1.96533" fill="black"/>
<circle cx="191.947" cy="287.593" r="1.96533" fill="black"/>
<circle cx="191.947" cy="295.454" r="1.96533" fill="black"/>
<circle cx="191.947" cy="303.316" r="1.96533" fill="black"/>
<circle cx="191.947" cy="311.177" r="1.96533" fill="black"/>
<circle cx="191.947" cy="319.038" r="1.96533" fill="black"/>
<circle cx="191.947" cy="326.9" r="1.96533" fill="black"/>
<circle cx="191.947" cy="334.761" r="1.96533" fill="black"/>
<circle cx="191.947" cy="342.622" r="1.96533" fill="black"/>
<circle cx="191.947" cy="350.484" r="1.96533" fill="black"/>
<circle cx="191.947" cy="358.345" r="1.96533" fill="black"/>
<circle cx="199.809" cy="130.367" r="1.96533" fill="black"/>
<circle cx="199.809" cy="138.228" r="1.96533" fill="black"/>
<circle cx="199.809" cy="146.089" r="1.96533" fill="black"/>
<circle cx="199.809" cy="153.951" r="1.96533" fill="black"/>
<circle cx="199.809" cy="161.812" r="1.96533" fill="black"/>
<circle cx="199.809" cy="169.673" r="1.96533" fill="black"/>
<circle cx="199.809" cy="177.535" r="1.96533" fill="black"/>
<circle cx="199.809" cy="185.396" r="1.96533" fill="black"/>
<circle cx="199.809" cy="193.257" r="1.96533" fill="black"/>
<circle cx="199.809" cy="201.119" r="1.96533" fill="black"/>
<circle cx="199.809" cy="208.98" r="1.96533" fill="black"/>
<circle cx="199.809" cy="216.841" r="1.96533" fill="black"/>
<circle cx="199.809" cy="224.703" r="1.96533" fill="black"/>
<circle cx="199.809" cy="232.564" r="1.96533" fill="black"/>
<circle cx="199.809" cy="240.425" r="1.96533" fill="black"/>
<circle cx="199.809" cy="248.286" r="1.96533" fill="black"/>
<circle cx="199.809" cy="256.148" r="1.96533" fill="black"/>
<circle cx="199.809" cy="264.009" r="1.96533" fill="black"/>
<circle cx="199.809" cy="271.87" r="1.96533" fill="black"/>
<circle cx="199.809" cy="279.732" r="1.96533" fill="black"/>
<circle cx="199.809" cy="287.593" r="1.96533" fill="black"/>
<circle cx="199.809" cy="295.454" r="1.96533" fill="black"/>
<circle cx="199.809" cy="303.316" r="1.96533" fill="black"/>
<circle cx="199.809" cy="311.177" r="1.96533" fill="black"/>
<circle cx="199.809" cy="319.038" r="1.96533" fill="black"/>
<circle cx="199.809" cy="326.9" r="1.96533" fill="black"/>
<circle cx="199.809" cy="334.761" r="1.96533" fill="black"/>
<circle cx="199.809" cy="342.622" r="1.96533" fill="black"/>
<circle cx="199.809" cy="350.484" r="1.96533" fill="black"/>
<circle cx="199.809" cy="358.345" r="1.96533" fill="black"/>
<circle cx="207.67" cy="130.367" r="1.96533" fill="black"/>
<circle cx="207.67" cy="138.228" r="1.96533" fill="black"/>
<circle cx="207.67" cy="146.089" r="1.96533" fill="black"/>
<circle cx="207.67" cy="153.951" r="1.96533" fill="black"/>
<circle cx="207.67" cy="161.812" r="1.96533" fill="black"/>
<circle cx="207.67" cy="169.673" r="1.96533" fill="black"/>
<circle cx="207.67" cy="177.535" r="1.96533" fill="black"/>
<circle cx="207.67" cy="185.396" r="1.96533" fill="black"/>
<circle cx="207.67" cy="193.257" r="1.96533" fill="black"/>
<circle cx="207.67" cy="201.119" r="1.96533" fill="black"/>
<circle cx="207.67" cy="208.98" r="1.96533" fill="black"/>
<circle cx="207.67" cy="216.841" r="1.96533" fill="black"/>
<circle cx="207.67" cy="224.703" r="1.96533" fill="black"/>
<circle cx="207.67" cy="232.564" r="1.96533" fill="black"/>
<circle cx="207.67" cy="240.425" r="1.96533" fill="black"/>
<circle cx="207.67" cy="248.286" r="1.96533" fill="black"/>
<circle cx="207.67" cy="256.148" r="1.96533" fill="black"/>
<circle cx="207.67" cy="264.009" r="1.96533" fill="black"/>
<circle cx="207.67" cy="271.87" r="1.96533" fill="black"/>
<circle cx="207.67" cy="279.732" r="1.96533" fill="black"/>
<circle cx="207.67" cy="287.593" r="1.96533" fill="black"/>
<circle cx="207.67" cy="295.454" r="1.96533" fill="black"/>
<circle cx="207.67" cy="303.316" r="1.96533" fill="black"/>
<circle cx="207.67" cy="311.177" r="1.96533" fill="black"/>
<circle cx="207.67" cy="319.038" r="1.96533" fill="black"/>
<circle cx="207.67" cy="326.9" r="1.96533" fill="black"/>
<circle cx="207.67" cy="334.761" r="1.96533" fill="black"/>
<circle cx="207.67" cy="342.622" r="1.96533" fill="black"/>
<circle cx="207.67" cy="350.484" r="1.96533" fill="black"/>
<circle cx="207.67" cy="358.345" r="1.96533" fill="black"/>
<circle cx="215.531" cy="130.367" r="1.96533" fill="black"/>
<circle cx="215.531" cy="138.228" r="1.96533" fill="black"/>
<circle cx="215.531" cy="146.089" r="1.96533" fill="black"/>
<circle cx="215.531" cy="153.951" r="1.96533" fill="black"/>
<circle cx="215.531" cy="161.812" r="1.96533" fill="black"/>
<circle cx="215.531" cy="169.673" r="1.96533" fill="black"/>
<circle cx="215.531" cy="177.535" r="1.96533" fill="black"/>
<circle cx="215.531" cy="185.396" r="1.96533" fill="black"/>
<circle cx="215.531" cy="193.257" r="1.96533" fill="black"/>
<circle cx="215.531" cy="201.119" r="1.96533" fill="black"/>
<circle cx="215.531" cy="208.98" r="1.96533" fill="black"/>
<circle cx="215.531" cy="216.841" r="1.96533" fill="black"/>
<circle cx="215.531" cy="224.703" r="1.96533" fill="black"/>
<circle cx="215.531" cy="232.564" r="1.96533" fill="black"/>
<circle cx="215.531" cy="240.425" r="1.96533" fill="black"/>
<circle cx="215.531" cy="248.286" r="1.96533" fill="black"/>
<circle cx="215.531" cy="256.148" r="1.96533" fill="black"/>
<circle cx="215.531" cy="264.009" r="1.96533" fill="black"/>
<circle cx="215.531" cy="271.87" r="1.96533" fill="black"/>
<circle cx="215.531" cy="279.732" r="1.96533" fill="black"/>
<circle cx="215.531" cy="287.593" r="1.96533" fill="black"/>
<circle cx="215.531" cy="295.454" r="1.96533" fill="black"/>
<circle cx="215.531" cy="303.316" r="1.96533" fill="black"/>
<circle cx="215.531" cy="311.177" r="1.96533" fill="black"/>
<circle cx="215.531" cy="319.038" r="1.96533" fill="black"/>
<circle cx="215.531" cy="326.9" r="1.96533" fill="black"/>
<circle cx="215.531" cy="334.761" r="1.96533" fill="black"/>
<circle cx="215.531" cy="342.622" r="1.96533" fill="black"/>
<circle cx="215.531" cy="350.484" r="1.96533" fill="black"/>
<circle cx="215.531" cy="358.345" r="1.96533" fill="black"/>
<circle cx="223.393" cy="130.367" r="1.96533" fill="black"/>
<circle cx="223.393" cy="138.228" r="1.96533" fill="black"/>
<circle cx="223.393" cy="146.089" r="1.96533" fill="black"/>
<circle cx="223.393" cy="153.951" r="1.96533" fill="black"/>
<circle cx="223.393" cy="161.812" r="1.96533" fill="black"/>
<circle cx="223.393" cy="169.673" r="1.96533" fill="black"/>
<circle cx="223.393" cy="177.535" r="1.96533" fill="black"/>
<circle cx="223.393" cy="185.396" r="1.96533" fill="black"/>
<circle cx="223.393" cy="193.257" r="1.96533" fill="black"/>
<circle cx="223.393" cy="201.119" r="1.96533" fill="black"/>
<circle cx="223.393" cy="208.98" r="1.96533" fill="black"/>
<circle cx="223.393" cy="216.841" r="1.96533" fill="black"/>
<circle cx="223.393" cy="224.703" r="1.96533" fill="black"/>
<circle cx="223.393" cy="232.564" r="1.96533" fill="black"/>
<circle cx="223.393" cy="240.425" r="1.96533" fill="black"/>
<circle cx="223.393" cy="248.286" r="1.96533" fill="black"/>
<circle cx="223.393" cy="256.148" r="1.96533" fill="black"/>
<circle cx="223.393" cy="264.009" r="1.96533" fill="black"/>
<circle cx="223.393" cy="271.87" r="1.96533" fill="black"/>
<circle cx="223.393" cy="279.732" r="1.96533" fill="black"/>
<circle cx="223.393" cy="287.593" r="1.96533" fill="black"/>
<circle cx="223.393" cy="295.454" r="1.96533" fill="black"/>
<circle cx="223.393" cy="303.316" r="1.96533" fill="black"/>
<circle cx="223.393" cy="311.177" r="1.96533" fill="black"/>
<circle cx="223.393" cy="319.038" r="1.96533" fill="black"/>
<circle cx="223.393" cy="326.9" r="1.96533" fill="black"/>
<circle cx="223.393" cy="334.761" r="1.96533" fill="black"/>
<circle cx="223.393" cy="342.622" r="1.96533" fill="black"/>
<circle cx="223.393" cy="350.484" r="1.96533" fill="black"/>
<circle cx="223.393" cy="358.345" r="1.96533" fill="black"/>
<circle cx="231.254" cy="130.367" r="1.96533" fill="black"/>
<circle cx="231.254" cy="138.228" r="1.96533" fill="black"/>
<circle cx="231.254" cy="146.089" r="1.96533" fill="black"/>
<circle cx="231.254" cy="153.951" r="1.96533" fill="black"/>
<circle cx="231.254" cy="161.812" r="1.96533" fill="black"/>
<circle cx="231.254" cy="169.673" r="1.96533" fill="black"/>
<circle cx="231.254" cy="177.535" r="1.96533" fill="black"/>
<circle cx="231.254" cy="185.396" r="1.96533" fill="black"/>
<circle cx="231.254" cy="193.257" r="1.96533" fill="black"/>
<circle cx="231.254" cy="201.119" r="1.96533" fill="black"/>
<circle cx="231.254" cy="208.98" r="1.96533" fill="black"/>
<circle cx="231.254" cy="216.841" r="1.96533" fill="black"/>
<circle cx="231.254" cy="224.703" r="1.96533" fill="black"/>
<circle cx="231.254" cy="232.564" r="1.96533" fill="black"/>
<circle cx="231.254" cy="240.425" r="1.96533" fill="black"/>
<circle cx="231.254" cy="248.286" r="1.96533" fill="black"/>
<circle cx="231.254" cy="256.148" r="1.96533" fill="black"/>
<circle cx="231.254" cy="264.009" r="1.96533" fill="black"/>
<circle cx="231.254" cy="271.87" r="1.96533" fill="black"/>
<circle cx="231.254" cy="279.732" r="1.96533" fill="black"/>
<circle cx="231.254" cy="287.593" r="1.96533" fill="black"/>
<circle cx="231.254" cy="295.454" r="1.96533" fill="black"/>
<circle cx="231.254" cy="303.316" r="1.96533" fill="black"/>
<circle cx="231.254" cy="311.177" r="1.96533" fill="black"/>
<circle cx="231.254" cy="319.038" r="1.96533" fill="black"/>
<circle cx="231.254" cy="326.9" r="1.96533" fill="black"/>
<circle cx="231.254" cy="334.761" r="1.96533" fill="black"/>
<circle cx="231.254" cy="342.622" r="1.96533" fill="black"/>
<circle cx="231.254" cy="350.484" r="1.96533" fill="black"/>
<circle cx="231.254" cy="358.345" r="1.96533" fill="black"/>
<circle cx="239.115" cy="130.367" r="1.96533" fill="black"/>
<circle cx="239.115" cy="138.228" r="1.96533" fill="black"/>
<circle cx="239.115" cy="146.089" r="1.96533" fill="black"/>
<circle cx="239.115" cy="153.951" r="1.96533" fill="black"/>
<circle cx="239.115" cy="161.812" r="1.96533" fill="black"/>
<circle cx="239.115" cy="169.673" r="1.96533" fill="black"/>
<circle cx="239.115" cy="177.535" r="1.96533" fill="black"/>
<circle cx="239.115" cy="185.396" r="1.96533" fill="black"/>
<circle cx="239.115" cy="193.257" r="1.96533" fill="black"/>
<circle cx="239.115" cy="201.119" r="1.96533" fill="black"/>
<circle cx="239.115" cy="208.98" r="1.96533" fill="black"/>
<circle cx="239.115" cy="216.841" r="1.96533" fill="black"/>
<circle cx="239.115" cy="224.703" r="1.96533" fill="black"/>
<circle cx="239.115" cy="232.564" r="1.96533" fill="black"/>
<circle cx="239.115" cy="240.425" r="1.96533" fill="black"/>
<circle cx="239.115" cy="248.286" r="1.96533" fill="black"/>
<circle cx="239.115" cy="256.148" r="1.96533" fill="black"/>
<circle cx="239.115" cy="264.009" r="1.96533" fill="black"/>
<circle cx="239.115" cy="271.87" r="1.96533" fill="black"/>
<circle cx="239.115" cy="279.732" r="1.96533" fill="black"/>
<circle cx="239.115" cy="287.593" r="1.96533" fill="black"/>
<circle cx="239.115" cy="295.454" r="1.96533" fill="black"/>
<circle cx="239.115" cy="303.316" r="1.96533" fill="black"/>
<circle cx="239.115" cy="311.177" r="1.96533" fill="black"/>
<circle cx="239.115" cy="319.038" r="1.96533" fill="black"/>
<circle cx="239.115" cy="326.9" r="1.96533" fill="black"/>
<circle cx="239.115" cy="334.761" r="1.96533" fill="black"/>
<circle cx="239.115" cy="342.622" r="1.96533" fill="black"/>
<circle cx="239.115" cy="350.484" r="1.96533" fill="black"/>
<circle cx="239.115" cy="358.345" r="1.96533" fill="black"/>
<circle cx="246.977" cy="130.367" r="1.96533" fill="black"/>
<circle cx="246.977" cy="138.228" r="1.96533" fill="black"/>
<circle cx="246.977" cy="146.089" r="1.96533" fill="black"/>
<circle cx="246.977" cy="153.951" r="1.96533" fill="black"/>
<circle cx="246.977" cy="161.812" r="1.96533" fill="black"/>
<circle cx="246.977" cy="169.673" r="1.96533" fill="black"/>
<circle cx="246.977" cy="177.535" r="1.96533" fill="black"/>
<circle cx="246.977" cy="185.396" r="1.96533" fill="black"/>
<circle cx="246.977" cy="193.257" r="1.96533" fill="black"/>
<circle cx="246.977" cy="201.119" r="1.96533" fill="black"/>
<circle cx="246.977" cy="208.98" r="1.96533" fill="black"/>
<circle cx="246.977" cy="216.841" r="1.96533" fill="black"/>
<circle cx="246.977" cy="224.703" r="1.96533" fill="black"/>
<circle cx="246.977" cy="232.564" r="1.96533" fill="black"/>
<circle cx="246.977" cy="240.425" r="1.96533" fill="black"/>
<circle cx="246.977" cy="248.286" r="1.96533" fill="black"/>
<circle cx="246.977" cy="256.148" r="1.96533" fill="black"/>
<circle cx="246.977" cy="264.009" r="1.96533" fill="black"/>
<circle cx="246.977" cy="271.87" r="1.96533" fill="black"/>
<circle cx="246.977" cy="279.732" r="1.96533" fill="black"/>
<circle cx="246.977" cy="287.593" r="1.96533" fill="black"/>
<circle cx="246.977" cy="295.454" r="1.96533" fill="black"/>
<circle cx="246.977" cy="303.316" r="1.96533" fill="black"/>
<circle cx="246.977" cy="311.177" r="1.96533" fill="black"/>
<circle cx="246.977" cy="319.038" r="1.96533" fill="black"/>
<circle cx="246.977" cy="326.9" r="1.96533" fill="black"/>
<circle cx="246.977" cy="334.761" r="1.96533" fill="black"/>
<circle cx="246.977" cy="342.622" r="1.96533" fill="black"/>
<circle cx="246.977" cy="350.484" r="1.96533" fill="black"/>
<circle cx="246.977" cy="358.345" r="1.96533" fill="black"/>
<circle cx="254.838" cy="130.367" r="1.96533" fill="black"/>
<circle cx="254.838" cy="138.228" r="1.96533" fill="black"/>
<circle cx="254.838" cy="146.089" r="1.96533" fill="black"/>
<circle cx="254.838" cy="153.951" r="1.96533" fill="black"/>
<circle cx="254.838" cy="161.812" r="1.96533" fill="black"/>
<circle cx="254.838" cy="169.673" r="1.96533" fill="black"/>
<circle cx="254.838" cy="177.535" r="1.96533" fill="black"/>
<circle cx="254.838" cy="185.396" r="1.96533" fill="black"/>
<circle cx="254.838" cy="193.257" r="1.96533" fill="black"/>
<circle cx="254.838" cy="201.119" r="1.96533" fill="black"/>
<circle cx="254.838" cy="208.98" r="1.96533" fill="black"/>
<circle cx="254.838" cy="216.841" r="1.96533" fill="black"/>
<circle cx="254.838" cy="224.703" r="1.96533" fill="black"/>
<circle cx="254.838" cy="232.564" r="1.96533" fill="black"/>
<circle cx="254.838" cy="240.425" r="1.96533" fill="black"/>
<circle cx="254.838" cy="248.286" r="1.96533" fill="black"/>
<circle cx="254.838" cy="256.148" r="1.96533" fill="black"/>
<circle cx="254.838" cy="264.009" r="1.96533" fill="black"/>
<circle cx="254.838" cy="271.87" r="1.96533" fill="black"/>
<circle cx="254.838" cy="279.732" r="1.96533" fill="black"/>
<circle cx="254.838" cy="287.593" r="1.96533" fill="black"/>
<circle cx="254.838" cy="295.454" r="1.96533" fill="black"/>
<circle cx="254.838" cy="303.316" r="1.96533" fill="black"/>
<circle cx="254.838" cy="311.177" r="1.96533" fill="black"/>
<circle cx="254.838" cy="319.038" r="1.96533" fill="black"/>
<circle cx="254.838" cy="326.9" r="1.96533" fill="black"/>
<circle cx="254.838" cy="334.761" r="1.96533" fill="black"/>
<circle cx="254.838" cy="342.622" r="1.96533" fill="black"/>
<circle cx="254.838" cy="350.484" r="1.96533" fill="black"/>
<circle cx="254.838" cy="358.345" r="1.96533" fill="black"/>
<circle cx="262.699" cy="130.367" r="1.96533" fill="black"/>
<circle cx="262.699" cy="138.228" r="1.96533" fill="black"/>
<circle cx="262.699" cy="146.089" r="1.96533" fill="black"/>
<circle cx="262.699" cy="153.951" r="1.96533" fill="black"/>
<circle cx="262.699" cy="161.812" r="1.96533" fill="black"/>
<circle cx="262.699" cy="169.673" r="1.96533" fill="black"/>
<circle cx="262.699" cy="177.535" r="1.96533" fill="black"/>
<circle cx="262.699" cy="185.396" r="1.96533" fill="black"/>
<circle cx="262.699" cy="193.257" r="1.96533" fill="black"/>
<circle cx="262.699" cy="201.119" r="1.96533" fill="black"/>
<circle cx="262.699" cy="208.98" r="1.96533" fill="black"/>
<circle cx="262.699" cy="216.841" r="1.96533" fill="black"/>
<circle cx="262.699" cy="224.703" r="1.96533" fill="black"/>
<circle cx="262.699" cy="232.564" r="1.96533" fill="black"/>
<circle cx="262.699" cy="240.425" r="1.96533" fill="black"/>
<circle cx="262.699" cy="248.286" r="1.96533" fill="black"/>
<circle cx="262.699" cy="256.148" r="1.96533" fill="black"/>
<circle cx="262.699" cy="264.009" r="1.96533" fill="black"/>
<circle cx="262.699" cy="271.87" r="1.96533" fill="black"/>
<circle cx="262.699" cy="279.732" r="1.96533" fill="black"/>
<circle cx="262.699" cy="287.593" r="1.96533" fill="black"/>
<circle cx="262.699" cy="295.454" r="1.96533" fill="black"/>
<circle cx="262.699" cy="303.316" r="1.96533" fill="black"/>
<circle cx="262.699" cy="311.177" r="1.96533" fill="black"/>
<circle cx="262.699" cy="319.038" r="1.96533" fill="black"/>
<circle cx="262.699" cy="326.9" r="1.96533" fill="black"/>
<circle cx="262.699" cy="334.761" r="1.96533" fill="black"/>
<circle cx="262.699" cy="342.622" r="1.96533" fill="black"/>
<circle cx="262.699" cy="350.484" r="1.96533" fill="black"/>
<circle cx="262.699" cy="358.345" r="1.96533" fill="black"/>
<circle cx="270.561" cy="130.367" r="1.96533" fill="black"/>
<circle cx="270.561" cy="138.228" r="1.96533" fill="black"/>
<circle cx="270.561" cy="146.089" r="1.96533" fill="black"/>
<circle cx="270.561" cy="153.951" r="1.96533" fill="black"/>
<circle cx="270.561" cy="161.812" r="1.96533" fill="black"/>
<circle cx="270.561" cy="169.673" r="1.96533" fill="black"/>
<circle cx="270.561" cy="177.535" r="1.96533" fill="black"/>
<circle cx="270.561" cy="185.396" r="1.96533" fill="black"/>
<circle cx="270.561" cy="193.257" r="1.96533" fill="black"/>
<circle cx="270.561" cy="201.119" r="1.96533" fill="black"/>
<circle cx="270.561" cy="208.98" r="1.96533" fill="black"/>
<circle cx="270.561" cy="216.841" r="1.96533" fill="black"/>
<circle cx="270.561" cy="224.703" r="1.96533" fill="black"/>
<circle cx="270.561" cy="232.564" r="1.96533" fill="black"/>
<circle cx="270.561" cy="240.425" r="1.96533" fill="black"/>
<circle cx="270.561" cy="248.286" r="1.96533" fill="black"/>
<circle cx="270.561" cy="256.148" r="1.96533" fill="black"/>
<circle cx="270.561" cy="264.009" r="1.96533" fill="black"/>
<circle cx="270.561" cy="271.87" r="1.96533" fill="black"/>
<circle cx="270.561" cy="279.732" r="1.96533" fill="black"/>
<circle cx="270.561" cy="287.593" r="1.96533" fill="black"/>
<circle cx="270.561" cy="295.454" r="1.96533" fill="black"/>
<circle cx="270.561" cy="303.316" r="1.96533" fill="black"/>
<circle cx="270.561" cy="311.177" r="1.96533" fill="black"/>
<circle cx="270.561" cy="319.038" r="1.96533" fill="black"/>
<circle cx="270.561" cy="326.9" r="1.96533" fill="black"/>
<circle cx="270.561" cy="334.761" r="1.96533" fill="black"/>
<circle cx="270.561" cy="342.622" r="1.96533" fill="black"/>
<circle cx="270.561" cy="350.484" r="1.96533" fill="black"/>
<circle cx="270.561" cy="358.345" r="1.96533" fill="black"/>
<circle cx="278.422" cy="130.367" r="1.96533" fill="black"/>
<circle cx="278.422" cy="138.228" r="1.96533" fill="black"/>
<circle cx="278.422" cy="146.089" r="1.96533" fill="black"/>
<circle cx="278.422" cy="153.951" r="1.96533" fill="black"/>
<circle cx="278.422" cy="161.812" r="1.96533" fill="black"/>
<circle cx="278.422" cy="169.673" r="1.96533" fill="black"/>
<circle cx="278.422" cy="177.535" r="1.96533" fill="black"/>
<circle cx="278.422" cy="185.396" r="1.96533" fill="black"/>
<circle cx="278.422" cy="193.257" r="1.96533" fill="black"/>
<circle cx="278.422" cy="201.119" r="1.96533" fill="black"/>
<circle cx="278.422" cy="208.98" r="1.96533" fill="black"/>
<circle cx="278.422" cy="216.841" r="1.96533" fill="black"/>
<circle cx="278.422" cy="224.703" r="1.96533" fill="black"/>
<circle cx="278.422" cy="232.564" r="1.96533" fill="black"/>
<circle cx="278.422" cy="240.425" r="1.96533" fill="black"/>
<circle cx="278.422" cy="248.286" r="1.96533" fill="black"/>
<circle cx="278.422" cy="256.148" r="1.96533" fill="black"/>
<circle cx="278.422" cy="264.009" r="1.96533" fill="black"/>
<circle cx="278.422" cy="271.87" r="1.96533" fill="black"/>
<circle cx="278.422" cy="279.732" r="1.96533" fill="black"/>
<circle cx="278.422" cy="287.593" r="1.96533" fill="black"/>
<circle cx="278.422" cy="295.454" r="1.96533" fill="black"/>
<circle cx="278.422" cy="303.316" r="1.96533" fill="black"/>
<circle cx="278.422" cy="311.177" r="1.96533" fill="black"/>
<circle cx="278.422" cy="319.038" r="1.96533" fill="black"/>
<circle cx="278.422" cy="326.9" r="1.96533" fill="black"/>
<circle cx="278.422" cy="334.761" r="1.96533" fill="black"/>
<circle cx="278.422" cy="342.622" r="1.96533" fill="black"/>
<circle cx="278.422" cy="350.484" r="1.96533" fill="black"/>
<circle cx="278.422" cy="358.345" r="1.96533" fill="black"/>
</g>
<path d="M89.0948 179.5L146.089 127.091H237.011C241.429 127.091 245.011 130.673 245.011 135.091V351C245.011 355.418 241.429 359 237.011 359H44.686C40.2678 359 36.686 355.418 36.686 351V227.978L89.0948 179.5Z" fill="url(#paint2_linear_42_2731)"/>
<circle cx="145.434" cy="226.668" r="20.9635" fill="black"/>
<rect x="136.263" y="238.46" width="20.9635" height="52.4088" fill="black"/>
<path d="M91.7152 172.949L119.23 145.434L137.573 127.091H146.744V227.978H36.686L91.7152 172.949Z" fill="black"/>
<rect x="87.7847" y="200.464" width="9.17153" height="9.17153" fill="white"/>
<rect x="123.161" y="191.292" width="9.17153" height="9.17153" fill="#FF53F8"/>
<rect x="64.2007" y="136.263" width="9.17153" height="9.17153" fill="#9020C7"/>
<rect x="100.887" y="136.263" width="9.17153" height="9.17153" fill="#9020C7"/>
<rect x="27.5146" y="209.635" width="9.17153" height="9.17153" fill="#FF53F8"/>
<rect x="9.17139" y="235.839" width="9.17153" height="9.17153" fill="#FF53F8"/>
<rect x="146.745" y="117.92" width="9.17153" height="9.17153" fill="#FF53F8"/>
<rect x="45.8579" y="154.606" width="9.17153" height="9.17153" fill="#9020C7"/>
<rect x="91.7153" y="127.091" width="9.17153" height="9.17153" fill="#9020C7"/>
<rect x="36.686" y="200.464" width="9.17153" height="9.17153" fill="#9020C7"/>
<rect x="27.5146" y="191.292" width="9.17153" height="9.17153" fill="#9020C7"/>
<rect x="18.3433" y="182.12" width="9.17153" height="9.17153" fill="#FF53F8"/>
<rect x="36.686" y="145.434" width="9.17153" height="9.17153" fill="#9020C7"/>
<rect x="110.059" y="108.748" width="9.17153" height="9.17153" fill="#9020C7"/>
<rect x="100.887" y="117.92" width="9.17153" height="9.17153" fill="#FF53F8"/>
<rect x="45.8579" y="136.263" width="9.17153" height="9.17153" fill="#FF53F8"/>
<rect x="36.686" y="163.777" width="9.17153" height="9.17153" fill="#FF53F8"/>
<rect x="123.161" y="165.088" width="9.17153" height="9.17153" fill="white"/>
<rect x="96.9561" y="209.635" width="9.17153" height="9.17153" fill="#FF53F8"/>
<rect x="87.7847" y="218.807" width="9.17153" height="9.17153" fill="white"/>
<rect x="132.332" y="155.916" width="9.17153" height="9.17153" fill="white"/>
<rect x="104.817" y="182.12" width="18.3431" height="18.3431" fill="white"/>
<rect x="73.3721" y="145.434" width="18.3431" height="18.3431" fill="#FF53F8"/>
<rect x="45.8579" y="172.949" width="18.3431" height="18.3431" fill="#9020C7"/>
<rect y="191.292" width="18.3431" height="18.3431" fill="#9020C7"/>
<rect x="36.686" y="218.807" width="9.17153" height="9.17153" fill="#9020C7"/>
<rect x="27.5146" y="218.807" width="9.17153" height="9.17153" fill="#9020C7"/>
<rect x="18.3433" y="226.668" width="9.17153" height="9.17153" fill="#9020C7"/>
<rect x="91.7153" y="163.777" width="9.17153" height="9.17153" fill="#9020C7"/>
<rect x="45.8579" y="209.635" width="9.17153" height="9.17153" fill="#9020C7"/>
<rect x="100.887" y="154.606" width="9.17153" height="9.17153" fill="#9020C7"/>
<rect x="55.0293" y="200.464" width="9.17153" height="9.17153" fill="#9020C7"/>
<rect x="110.059" y="145.434" width="9.17153" height="9.17153" fill="#9020C7"/>
<rect x="64.2007" y="191.292" width="9.17153" height="9.17153" fill="#9020C7"/>
<rect x="119.23" y="136.263" width="9.17153" height="9.17153" fill="#9020C7"/>
<rect x="73.3721" y="182.12" width="9.17153" height="9.17153" fill="#9020C7"/>
<rect x="128.401" y="127.091" width="9.17153" height="9.17153" fill="#9020C7"/>
<rect x="155.916" y="108.748" width="9.17153" height="9.17153" fill="#9020C7"/>
<rect x="82.5439" y="172.949" width="9.17153" height="9.17153" fill="#9020C7"/>
<rect x="73.3721" y="191.292" width="9.17153" height="9.17153" fill="white"/>
<rect x="128.401" y="136.263" width="9.17153" height="9.17153" fill="white"/>
<rect x="100.887" y="163.777" width="9.17153" height="9.17153" fill="#FF53F8"/>
<rect x="55.0293" y="209.635" width="9.17153" height="9.17153" fill="white"/>
<path d="M124.471 227.978C124.471 225.053 125.047 222.157 126.166 219.454C127.285 216.752 128.926 214.297 130.994 212.228C133.063 210.16 135.518 208.519 138.221 207.4C140.923 206.281 143.819 205.704 146.744 205.704L146.744 227.978L124.471 227.978Z" fill="white"/>
<defs>
<linearGradient id="paint0_linear_42_2731" x1="148.515" y1="243.046" x2="277.767" y2="243.046" gradientUnits="userSpaceOnUse">
<stop stop-color="#8000FF"/>
<stop offset="1" stop-color="#FF53F8"/>
</linearGradient>
<linearGradient id="paint1_linear_42_2731" x1="148.515" y1="243.046" x2="277.767" y2="243.046" gradientUnits="userSpaceOnUse">
<stop stop-color="#8000FF"/>
<stop offset="1" stop-color="#FF53F8"/>
</linearGradient>
<linearGradient id="paint2_linear_42_2731" x1="39.5012" y1="243.046" x2="245.011" y2="243.046" gradientUnits="userSpaceOnUse">
<stop stop-color="#8000FF"/>
<stop offset="1" stop-color="#FF53F8"/>
</linearGradient>
</defs>
</svg>
