<svg width="677" height="585" viewBox="0 0 677 585" fill="none" xmlns="http://www.w3.org/2000/svg">
<g clip-path="url(#clip0_101_18318)">
<path d="M284.991 96.9795C284.474 94.2107 286.298 91.5404 289.079 91.0928C315.721 86.8041 342.967 87.8413 369.236 94.1637C395.505 100.486 420.239 111.96 442.012 127.901C444.285 129.565 444.695 132.773 442.975 135.003L405.185 183.999C403.465 186.229 400.268 186.634 397.973 185.001C384.251 175.24 368.773 168.186 352.37 164.238C335.968 160.291 318.976 159.529 302.315 161.978C299.528 162.388 296.865 160.573 296.348 157.804L284.991 96.9795Z" fill="#F8A88F"/>
<path d="M123.13 277.999C120.32 277.793 117.87 279.905 117.735 282.718C115.36 332.158 131.047 380.845 161.968 419.643C192.889 458.441 236.849 484.595 285.572 493.311C288.345 493.807 290.949 491.89 291.376 489.105L300.747 427.944C301.174 425.159 299.259 422.566 296.494 422.033C265.692 416.087 237.953 399.341 218.333 374.722C198.712 350.103 188.577 319.327 189.654 287.975C189.75 285.16 187.65 282.715 184.841 282.51L123.13 277.999Z" fill="#497CFF"/>
<path d="M247.947 107.7C246.906 105.083 243.937 103.8 241.347 104.906C208.889 118.774 180.556 140.84 159.149 168.977C137.742 197.113 124.032 230.305 119.324 265.286C118.948 268.077 120.976 270.597 123.776 270.902L185.286 277.621C188.086 277.927 190.594 275.903 191.008 273.117C194.27 251.152 203.03 230.335 216.51 212.619C229.989 194.903 247.715 180.908 268.014 171.905C270.589 170.763 271.871 167.806 270.829 165.189L247.947 107.7Z" fill="#7D9699"/>
<path d="M281.083 97.7497C280.511 94.9918 277.81 93.2136 275.067 93.8547C267.994 95.508 261.014 97.5379 254.158 99.9356C251.499 100.865 250.173 103.815 251.169 106.45L273.048 164.328C274.044 166.963 276.985 168.281 279.656 167.388C282.971 166.279 286.328 165.303 289.721 164.461C292.454 163.782 294.229 161.092 293.657 158.335L281.083 97.7497Z" fill="#02396C"/>
<path d="M296.705 489.848C296.354 492.643 298.335 495.2 301.137 495.481C343.569 499.738 386.318 490.592 423.342 469.26C461.842 447.079 492.046 412.934 509.365 372.016C526.684 331.098 530.17 285.645 519.294 242.564C508.835 201.134 485.642 164.077 453.047 136.579C450.894 134.763 447.68 135.12 445.918 137.318L407.213 185.593C405.451 187.791 405.811 190.993 407.939 192.839C428.298 210.496 442.794 233.999 449.411 260.207C456.445 288.067 454.19 317.461 442.99 343.922C431.79 370.383 412.257 392.464 387.36 406.809C363.939 420.303 336.975 426.257 310.126 423.933C307.32 423.69 304.77 425.661 304.418 428.455L296.705 489.848Z" fill="#660098"/>
<path d="M184 81H1V110H184V81Z" fill="white" stroke="black"/>
<path d="M548 1H242V30H548V1Z" fill="white" stroke="black"/>
<path d="M658 46H420V75H658V46Z" fill="white" stroke="black"/>
<path d="M289 555H23V584H289V555Z" fill="white" stroke="black"/>
<path d="M676 500H467V529H676V500Z" fill="white" stroke="black"/>
<path d="M20 101.5C23.5899 101.5 26.5 98.5899 26.5 95C26.5 91.4101 23.5899 88.5 20 88.5C16.4101 88.5 13.5 91.4101 13.5 95C13.5 98.5899 16.4101 101.5 20 101.5Z" fill="#7D9699"/>
<path d="M261 21.5C264.59 21.5 267.5 18.5899 267.5 15C267.5 11.4101 264.59 8.5 261 8.5C257.41 8.5 254.5 11.4101 254.5 15C254.5 18.5899 257.41 21.5 261 21.5Z" fill="#02396C"/>
<path d="M439 66.5C442.59 66.5 445.5 63.5899 445.5 60C445.5 56.4101 442.59 53.5 439 53.5C435.41 53.5 432.5 56.4101 432.5 60C432.5 63.5899 435.41 66.5 439 66.5Z" fill="#F8A88F"/>
<path d="M42 575.5C45.5899 575.5 48.5 572.59 48.5 569C48.5 565.41 45.5899 562.5 42 562.5C38.4101 562.5 35.5 565.41 35.5 569C35.5 572.59 38.4101 575.5 42 575.5Z" fill="#497CFF"/>
<path d="M486 520.5C489.59 520.5 492.5 517.59 492.5 514C492.5 510.41 489.59 507.5 486 507.5C482.41 507.5 479.5 510.41 479.5 514C479.5 517.59 482.41 520.5 486 520.5Z" fill="#660098"/>
<path d="M507.728 508.77C508.764 508.77 509.67 508.971 510.444 509.372C511.228 509.764 511.83 510.333 512.25 511.08C512.68 511.817 512.894 512.681 512.894 513.67C512.894 514.659 512.68 515.518 512.25 516.246C511.83 516.974 511.228 517.534 510.444 517.926C509.67 518.309 508.764 518.5 507.728 518.5H504.55V508.77H507.728ZM507.728 517.198C508.867 517.198 509.74 516.89 510.346 516.274C510.953 515.658 511.256 514.79 511.256 513.67C511.256 512.541 510.953 511.659 510.346 511.024C509.74 510.389 508.867 510.072 507.728 510.072H506.146V517.198H507.728ZM520.342 516.512H516.268L515.568 518.5H513.902L517.388 508.756H519.236L522.722 518.5H521.042L520.342 516.512ZM519.894 515.21L518.312 510.688L516.716 515.21H519.894ZM528.676 518.598C527.771 518.598 526.935 518.388 526.17 517.968C525.414 517.539 524.812 516.946 524.364 516.19C523.925 515.425 523.706 514.566 523.706 513.614C523.706 512.662 523.925 511.808 524.364 511.052C524.812 510.296 525.414 509.708 526.17 509.288C526.935 508.859 527.771 508.644 528.676 508.644C529.591 508.644 530.426 508.859 531.182 509.288C531.947 509.708 532.549 510.296 532.988 511.052C533.427 511.808 533.646 512.662 533.646 513.614C533.646 514.566 533.427 515.425 532.988 516.19C532.549 516.946 531.947 517.539 531.182 517.968C530.426 518.388 529.591 518.598 528.676 518.598ZM528.676 517.212C529.32 517.212 529.894 517.067 530.398 516.778C530.902 516.479 531.294 516.059 531.574 515.518C531.863 514.967 532.008 514.333 532.008 513.614C532.008 512.895 531.863 512.265 531.574 511.724C531.294 511.183 530.902 510.767 530.398 510.478C529.894 510.189 529.32 510.044 528.676 510.044C528.032 510.044 527.458 510.189 526.954 510.478C526.45 510.767 526.053 511.183 525.764 511.724C525.484 512.265 525.344 512.895 525.344 513.614C525.344 514.333 525.484 514.967 525.764 515.518C526.053 516.059 526.45 516.479 526.954 516.778C527.458 517.067 528.032 517.212 528.676 517.212ZM545.139 508.77V510.072H542.549V518.5H540.953V510.072H538.349V508.77H545.139ZM551.81 518.5L549.57 514.608H548.352V518.5H546.756V508.77H550.116C550.862 508.77 551.492 508.901 552.006 509.162C552.528 509.423 552.916 509.773 553.168 510.212C553.429 510.651 553.56 511.141 553.56 511.682C553.56 512.317 553.373 512.895 553 513.418C552.636 513.931 552.071 514.281 551.306 514.468L553.714 518.5H551.81ZM548.352 513.334H550.116C550.713 513.334 551.161 513.185 551.46 512.886C551.768 512.587 551.922 512.186 551.922 511.682C551.922 511.178 551.772 510.786 551.474 510.506C551.175 510.217 550.722 510.072 550.116 510.072H548.352V513.334ZM557.197 510.058V512.914H560.557V514.216H557.197V517.198H560.977V518.5H555.601V508.756H560.977V510.058H557.197ZM568.809 516.512H564.735L564.035 518.5H562.369L565.855 508.756H567.703L571.189 518.5H569.509L568.809 516.512ZM568.361 515.21L566.779 510.688L565.183 515.21H568.361ZM575.911 518.598C575.257 518.598 574.669 518.486 574.147 518.262C573.624 518.029 573.213 517.702 572.915 517.282C572.616 516.862 572.467 516.372 572.467 515.812H574.175C574.212 516.232 574.375 516.577 574.665 516.848C574.963 517.119 575.379 517.254 575.911 517.254C576.461 517.254 576.891 517.123 577.199 516.862C577.507 516.591 577.661 516.246 577.661 515.826C577.661 515.499 577.563 515.233 577.367 515.028C577.18 514.823 576.942 514.664 576.653 514.552C576.373 514.44 575.981 514.319 575.477 514.188C574.842 514.02 574.324 513.852 573.923 513.684C573.531 513.507 573.195 513.236 572.915 512.872C572.635 512.508 572.495 512.023 572.495 511.416C572.495 510.856 572.635 510.366 572.915 509.946C573.195 509.526 573.587 509.204 574.091 508.98C574.595 508.756 575.178 508.644 575.841 508.644C576.783 508.644 577.553 508.882 578.151 509.358C578.757 509.825 579.093 510.469 579.159 511.29H577.395C577.367 510.935 577.199 510.632 576.891 510.38C576.583 510.128 576.177 510.002 575.673 510.002C575.215 510.002 574.842 510.119 574.553 510.352C574.263 510.585 574.119 510.921 574.119 511.36C574.119 511.659 574.207 511.906 574.385 512.102C574.571 512.289 574.805 512.438 575.085 512.55C575.365 512.662 575.747 512.783 576.233 512.914C576.877 513.091 577.399 513.269 577.801 513.446C578.211 513.623 578.557 513.899 578.837 514.272C579.126 514.636 579.271 515.126 579.271 515.742C579.271 516.237 579.135 516.703 578.865 517.142C578.603 517.581 578.216 517.935 577.703 518.206C577.199 518.467 576.601 518.598 575.911 518.598ZM582.736 508.77V514.972C582.736 515.709 582.927 516.265 583.31 516.638C583.702 517.011 584.243 517.198 584.934 517.198C585.634 517.198 586.175 517.011 586.558 516.638C586.95 516.265 587.146 515.709 587.146 514.972V508.77H588.742V514.944C588.742 515.737 588.569 516.409 588.224 516.96C587.879 517.511 587.417 517.921 586.838 518.192C586.259 518.463 585.62 518.598 584.92 518.598C584.22 518.598 583.581 518.463 583.002 518.192C582.433 517.921 581.98 517.511 581.644 516.96C581.308 516.409 581.14 515.737 581.14 514.944V508.77H582.736ZM595.874 518.5L593.634 514.608H592.416V518.5H590.82V508.77H594.18C594.927 508.77 595.557 508.901 596.07 509.162C596.593 509.423 596.98 509.773 597.232 510.212C597.493 510.651 597.624 511.141 597.624 511.682C597.624 512.317 597.437 512.895 597.064 513.418C596.7 513.931 596.135 514.281 595.37 514.468L597.778 518.5H595.874ZM592.416 513.334H594.18C594.777 513.334 595.225 513.185 595.524 512.886C595.832 512.587 595.986 512.186 595.986 511.682C595.986 511.178 595.837 510.786 595.538 510.506C595.239 510.217 594.787 510.072 594.18 510.072H592.416V513.334ZM606.876 508.77L603.656 514.972V518.5H602.06V514.972L598.826 508.77H600.604L602.858 513.544L605.112 508.77H606.876ZM615.01 516.372V515.168L619.714 508.42H621.646V514.986H622.948V516.372H621.646V518.5H620.078V516.372H615.01ZM620.148 510.044L616.844 514.986H620.148V510.044ZM625.152 516.33C626.048 515.555 626.753 514.921 627.266 514.426C627.789 513.922 628.223 513.399 628.568 512.858C628.914 512.317 629.086 511.775 629.086 511.234C629.086 510.674 628.951 510.235 628.68 509.918C628.419 509.601 628.004 509.442 627.434 509.442C626.884 509.442 626.454 509.619 626.146 509.974C625.848 510.319 625.689 510.786 625.67 511.374H624.13C624.158 510.31 624.476 509.498 625.082 508.938C625.698 508.369 626.478 508.084 627.42 508.084C628.438 508.084 629.231 508.364 629.8 508.924C630.379 509.484 630.668 510.231 630.668 511.164C630.668 511.836 630.496 512.485 630.15 513.11C629.814 513.726 629.408 514.281 628.932 514.776C628.466 515.261 627.868 515.826 627.14 516.47L626.51 517.03H630.948V518.36H624.144V517.198L625.152 516.33ZM633.204 518.598C632.915 518.598 632.672 518.5 632.476 518.304C632.28 518.108 632.182 517.865 632.182 517.576C632.182 517.287 632.28 517.044 632.476 516.848C632.672 516.652 632.915 516.554 633.204 516.554C633.484 516.554 633.722 516.652 633.918 516.848C634.114 517.044 634.212 517.287 634.212 517.576C634.212 517.865 634.114 518.108 633.918 518.304C633.722 518.5 633.484 518.598 633.204 518.598ZM642.195 509.526L638.303 518.5H636.693L640.627 509.694H635.447V508.336H642.195V509.526ZM645.283 513.166C644.313 512.681 643.827 511.915 643.827 510.87C643.827 510.366 643.953 509.904 644.205 509.484C644.457 509.064 644.835 508.733 645.339 508.49C645.843 508.238 646.459 508.112 647.187 508.112C647.906 508.112 648.517 508.238 649.021 508.49C649.535 508.733 649.917 509.064 650.169 509.484C650.421 509.904 650.547 510.366 650.547 510.87C650.547 511.393 650.412 511.855 650.141 512.256C649.88 512.648 649.53 512.951 649.091 513.166C649.623 513.362 650.043 513.684 650.351 514.132C650.659 514.571 650.813 515.089 650.813 515.686C650.813 516.293 650.659 516.829 650.351 517.296C650.043 517.763 649.614 518.122 649.063 518.374C648.513 518.626 647.887 518.752 647.187 518.752C646.487 518.752 645.862 518.626 645.311 518.374C644.77 518.122 644.345 517.763 644.037 517.296C643.729 516.829 643.575 516.293 643.575 515.686C643.575 515.079 643.729 514.557 644.037 514.118C644.345 513.679 644.761 513.362 645.283 513.166ZM649.021 511.066C649.021 510.543 648.858 510.142 648.531 509.862C648.205 509.582 647.757 509.442 647.187 509.442C646.627 509.442 646.184 509.582 645.857 509.862C645.531 510.142 645.367 510.548 645.367 511.08C645.367 511.547 645.535 511.929 645.871 512.228C646.217 512.517 646.655 512.662 647.187 512.662C647.719 512.662 648.158 512.513 648.503 512.214C648.849 511.915 649.021 511.533 649.021 511.066ZM647.187 513.866C646.571 513.866 646.067 514.02 645.675 514.328C645.293 514.627 645.101 515.061 645.101 515.63C645.101 516.162 645.288 516.596 645.661 516.932C646.035 517.259 646.543 517.422 647.187 517.422C647.822 517.422 648.321 517.254 648.685 516.918C649.059 516.582 649.245 516.153 649.245 515.63C649.245 515.07 649.054 514.636 648.671 514.328C648.298 514.02 647.803 513.866 647.187 513.866ZM652.237 510.758C652.237 510.077 652.433 509.545 652.825 509.162C653.226 508.77 653.74 508.574 654.365 508.574C654.99 508.574 655.499 508.77 655.891 509.162C656.292 509.545 656.493 510.077 656.493 510.758C656.493 511.439 656.292 511.976 655.891 512.368C655.499 512.76 654.99 512.956 654.365 512.956C653.74 512.956 653.226 512.76 652.825 512.368C652.433 511.976 652.237 511.439 652.237 510.758ZM660.777 508.756L655.191 518.5H653.623L659.209 508.756H660.777ZM654.365 509.54C653.777 509.54 653.483 509.946 653.483 510.758C653.483 511.579 653.777 511.99 654.365 511.99C654.645 511.99 654.86 511.892 655.009 511.696C655.168 511.491 655.247 511.178 655.247 510.758C655.247 509.946 654.953 509.54 654.365 509.54ZM657.935 516.484C657.935 515.803 658.131 515.271 658.523 514.888C658.924 514.496 659.438 514.3 660.063 514.3C660.679 514.3 661.183 514.496 661.575 514.888C661.976 515.271 662.177 515.803 662.177 516.484C662.177 517.165 661.976 517.702 661.575 518.094C661.183 518.486 660.679 518.682 660.063 518.682C659.438 518.682 658.924 518.486 658.523 518.094C658.131 517.702 657.935 517.165 657.935 516.484ZM660.049 515.266C659.461 515.266 659.167 515.672 659.167 516.484C659.167 517.296 659.461 517.702 660.049 517.702C660.637 517.702 660.931 517.296 660.931 516.484C660.931 515.672 660.637 515.266 660.049 515.266Z" fill="black"/>
<path d="M490.5 500V407.186" stroke="black"/>
<path d="M432.5 120.5V75.5" stroke="black"/>
<path d="M267.5 95.5V30.5" stroke="black"/>
<path d="M140.5 193.512V111.488" stroke="black"/>
<path d="M207.5 554.314V461.5" stroke="black"/>
<path d="M66.8359 563.77V565.072H64.2459V573.5H62.6499V565.072H60.0459V563.77H66.8359ZM70.0483 565.058V567.914H73.4083V569.216H70.0483V572.198H73.8283V573.5H68.4523V563.756H73.8283V565.058H70.0483ZM81.6601 571.512H77.5861L76.8861 573.5H75.2201L78.7061 563.756H80.5541L84.0401 573.5H82.3601L81.6601 571.512ZM81.2121 570.21L79.6301 565.688L78.0341 570.21H81.2121ZM95.8038 563.77V573.5H94.2078V566.836L91.2398 573.5H90.1338L87.1518 566.836V573.5H85.5558V563.77H87.2778L90.6938 571.4L94.0958 563.77H95.8038ZM107.405 571.512H103.331L102.631 573.5H100.965L104.451 563.756H106.299L109.785 573.5H108.105L107.405 571.512ZM106.957 570.21L105.375 565.688L103.779 570.21H106.957ZM119.294 573.5H117.698L112.896 566.234V573.5H111.3V563.756H112.896L117.698 571.008V563.756H119.294V573.5ZM124.568 563.77C125.604 563.77 126.509 563.971 127.284 564.372C128.068 564.764 128.67 565.333 129.09 566.08C129.519 566.817 129.734 567.681 129.734 568.67C129.734 569.659 129.519 570.518 129.09 571.246C128.67 571.974 128.068 572.534 127.284 572.926C126.509 573.309 125.604 573.5 124.568 573.5H121.39V563.77H124.568ZM124.568 572.198C125.707 572.198 126.579 571.89 127.186 571.274C127.793 570.658 128.096 569.79 128.096 568.67C128.096 567.541 127.793 566.659 127.186 566.024C126.579 565.389 125.707 565.072 124.568 565.072H122.986V572.198H124.568ZM140.679 563.77V565.072H136.549V567.942H139.769V569.244H136.549V573.5H134.953V563.77H140.679ZM143.74 563.77V569.972C143.74 570.709 143.931 571.265 144.314 571.638C144.706 572.011 145.247 572.198 145.938 572.198C146.638 572.198 147.179 572.011 147.562 571.638C147.954 571.265 148.15 570.709 148.15 569.972V563.77H149.746V569.944C149.746 570.737 149.573 571.409 149.228 571.96C148.882 572.511 148.42 572.921 147.842 573.192C147.263 573.463 146.624 573.598 145.924 573.598C145.224 573.598 144.584 573.463 144.006 573.192C143.436 572.921 142.984 572.511 142.648 571.96C142.312 571.409 142.144 570.737 142.144 569.944V563.77H143.74ZM158.11 563.77V565.072H155.52V573.5H153.924V565.072H151.32V563.77H158.11ZM161.308 563.77V569.972C161.308 570.709 161.499 571.265 161.882 571.638C162.274 572.011 162.815 572.198 163.506 572.198C164.206 572.198 164.747 572.011 165.13 571.638C165.522 571.265 165.718 570.709 165.718 569.972V563.77H167.314V569.944C167.314 570.737 167.141 571.409 166.796 571.96C166.451 572.511 165.989 572.921 165.41 573.192C164.831 573.463 164.192 573.598 163.492 573.598C162.792 573.598 162.153 573.463 161.574 573.192C161.005 572.921 160.552 572.511 160.216 571.96C159.88 571.409 159.712 570.737 159.712 569.944V563.77H161.308ZM174.446 573.5L172.206 569.608H170.988V573.5H169.392V563.77H172.752C173.499 563.77 174.129 563.901 174.642 564.162C175.165 564.423 175.552 564.773 175.804 565.212C176.065 565.651 176.196 566.141 176.196 566.682C176.196 567.317 176.009 567.895 175.636 568.418C175.272 568.931 174.707 569.281 173.942 569.468L176.35 573.5H174.446ZM170.988 568.334H172.752C173.349 568.334 173.797 568.185 174.096 567.886C174.404 567.587 174.558 567.186 174.558 566.682C174.558 566.178 174.409 565.786 174.11 565.506C173.811 565.217 173.359 565.072 172.752 565.072H170.988V568.334ZM179.834 565.058V567.914H183.194V569.216H179.834V572.198H183.614V573.5H178.238V563.756H183.614V565.058H179.834ZM195.502 563.77V565.072H192.912V573.5H191.316V565.072H188.712V563.77H195.502ZM198.715 565.058V567.914H202.075V569.216H198.715V572.198H202.495V573.5H197.119V563.756H202.495V565.058H198.715ZM210.326 571.512H206.252L205.552 573.5H203.886L207.372 563.756H209.22L212.706 573.5H211.026L210.326 571.512ZM209.878 570.21L208.296 565.688L206.7 570.21H209.878ZM224.47 563.77V573.5H222.874V566.836L219.906 573.5H218.8L215.818 566.836V573.5H214.222V563.77H215.944L219.36 571.4L222.762 563.77H224.47ZM234.513 571.33C235.409 570.555 236.114 569.921 236.627 569.426C237.15 568.922 237.584 568.399 237.929 567.858C238.275 567.317 238.447 566.775 238.447 566.234C238.447 565.674 238.312 565.235 238.041 564.918C237.78 564.601 237.365 564.442 236.795 564.442C236.245 564.442 235.815 564.619 235.507 564.974C235.209 565.319 235.05 565.786 235.031 566.374H233.491C233.519 565.31 233.837 564.498 234.443 563.938C235.059 563.369 235.839 563.084 236.781 563.084C237.799 563.084 238.592 563.364 239.161 563.924C239.74 564.484 240.029 565.231 240.029 566.164C240.029 566.836 239.857 567.485 239.511 568.11C239.175 568.726 238.769 569.281 238.293 569.776C237.827 570.261 237.229 570.826 236.501 571.47L235.871 572.03H240.309V573.36H233.505V572.198L234.513 571.33ZM247.199 565.66C247.097 565.231 246.91 564.909 246.639 564.694C246.369 564.479 245.991 564.372 245.505 564.372C244.768 564.372 244.217 564.657 243.853 565.226C243.489 565.786 243.298 566.719 243.279 568.026C243.522 567.615 243.877 567.298 244.343 567.074C244.81 566.85 245.314 566.738 245.855 566.738C246.471 566.738 247.013 566.873 247.479 567.144C247.955 567.405 248.324 567.788 248.585 568.292C248.856 568.796 248.991 569.398 248.991 570.098C248.991 570.751 248.861 571.335 248.599 571.848C248.347 572.361 247.969 572.767 247.465 573.066C246.961 573.355 246.355 573.5 245.645 573.5C244.684 573.5 243.928 573.29 243.377 572.87C242.836 572.441 242.453 571.839 242.229 571.064C242.015 570.289 241.907 569.323 241.907 568.166C241.907 564.75 243.111 563.042 245.519 563.042C246.453 563.042 247.185 563.294 247.717 563.798C248.259 564.302 248.576 564.923 248.669 565.66H247.199ZM245.505 568.082C244.936 568.082 244.451 568.255 244.049 568.6C243.657 568.936 243.461 569.426 243.461 570.07C243.461 570.714 243.643 571.227 244.007 571.61C244.381 571.983 244.899 572.17 245.561 572.17C246.149 572.17 246.611 571.988 246.947 571.624C247.293 571.26 247.465 570.775 247.465 570.168C247.465 569.533 247.297 569.029 246.961 568.656C246.635 568.273 246.149 568.082 245.505 568.082ZM251.548 573.598C251.258 573.598 251.016 573.5 250.82 573.304C250.624 573.108 250.526 572.865 250.526 572.576C250.526 572.287 250.624 572.044 250.82 571.848C251.016 571.652 251.258 571.554 251.548 571.554C251.828 571.554 252.066 571.652 252.262 571.848C252.458 572.044 252.556 572.287 252.556 572.576C252.556 572.865 252.458 573.108 252.262 573.304C252.066 573.5 251.828 573.598 251.548 573.598ZM256.059 570.728C256.152 571.195 256.353 571.549 256.661 571.792C256.969 572.035 257.384 572.156 257.907 572.156C258.569 572.156 259.055 571.895 259.363 571.372C259.671 570.849 259.825 569.958 259.825 568.698C259.601 569.015 259.283 569.263 258.873 569.44C258.471 569.608 258.033 569.692 257.557 569.692C256.95 569.692 256.399 569.571 255.905 569.328C255.41 569.076 255.018 568.707 254.729 568.222C254.449 567.727 254.309 567.13 254.309 566.43C254.309 565.403 254.607 564.587 255.205 563.98C255.811 563.364 256.642 563.056 257.697 563.056C258.966 563.056 259.867 563.481 260.399 564.33C260.94 565.17 261.211 566.463 261.211 568.208C261.211 569.412 261.108 570.397 260.903 571.162C260.707 571.927 260.361 572.506 259.867 572.898C259.372 573.29 258.686 573.486 257.809 573.486C256.81 573.486 256.04 573.225 255.499 572.702C254.957 572.179 254.654 571.521 254.589 570.728H256.059ZM257.837 568.348C258.397 568.348 258.835 568.175 259.153 567.83C259.479 567.475 259.643 567.009 259.643 566.43C259.643 565.786 259.47 565.287 259.125 564.932C258.789 564.568 258.327 564.386 257.739 564.386C257.151 564.386 256.684 564.573 256.339 564.946C256.003 565.31 255.835 565.791 255.835 566.388C255.835 566.957 255.998 567.429 256.325 567.802C256.661 568.166 257.165 568.348 257.837 568.348ZM262.761 571.372V570.168L267.465 563.42H269.397V569.986H270.699V571.372H269.397V573.5H267.829V571.372H262.761ZM267.899 565.044L264.595 569.986H267.899V565.044ZM271.77 565.758C271.77 565.077 271.966 564.545 272.358 564.162C272.759 563.77 273.273 563.574 273.898 563.574C274.523 563.574 275.032 563.77 275.424 564.162C275.825 564.545 276.026 565.077 276.026 565.758C276.026 566.439 275.825 566.976 275.424 567.368C275.032 567.76 274.523 567.956 273.898 567.956C273.273 567.956 272.759 567.76 272.358 567.368C271.966 566.976 271.77 566.439 271.77 565.758ZM280.31 563.756L274.724 573.5H273.156L278.742 563.756H280.31ZM273.898 564.54C273.31 564.54 273.016 564.946 273.016 565.758C273.016 566.579 273.31 566.99 273.898 566.99C274.178 566.99 274.393 566.892 274.542 566.696C274.701 566.491 274.78 566.178 274.78 565.758C274.78 564.946 274.486 564.54 273.898 564.54ZM277.468 571.484C277.468 570.803 277.664 570.271 278.056 569.888C278.457 569.496 278.971 569.3 279.596 569.3C280.212 569.3 280.716 569.496 281.108 569.888C281.509 570.271 281.71 570.803 281.71 571.484C281.71 572.165 281.509 572.702 281.108 573.094C280.716 573.486 280.212 573.682 279.596 573.682C278.971 573.682 278.457 573.486 278.056 573.094C277.664 572.702 277.468 572.165 277.468 571.484ZM279.582 570.266C278.994 570.266 278.7 570.672 278.7 571.484C278.7 572.296 278.994 572.702 279.582 572.702C280.17 572.702 280.464 572.296 280.464 571.484C280.464 570.672 280.17 570.266 279.582 570.266Z" fill="black"/>
<path d="M459.146 54.77V64.5H457.55V54.77H459.146ZM469.235 64.5H467.639L462.837 57.234V64.5H461.241V54.756H462.837L467.639 62.008V54.756H469.235V64.5ZM474.509 54.77C475.545 54.77 476.451 54.9707 477.225 55.372C478.009 55.764 478.611 56.3333 479.031 57.08C479.461 57.8173 479.675 58.6807 479.675 59.67C479.675 60.6593 479.461 61.518 479.031 62.246C478.611 62.974 478.009 63.534 477.225 63.926C476.451 64.3087 475.545 64.5 474.509 64.5H471.331V54.77H474.509ZM474.509 63.198C475.648 63.198 476.521 62.89 477.127 62.274C477.734 61.658 478.037 60.79 478.037 59.67C478.037 58.5407 477.734 57.6587 477.127 57.024C476.521 56.3893 475.648 56.072 474.509 56.072H472.927V63.198H474.509ZM482.853 54.77V64.5H481.257V54.77H482.853ZM493.334 54.77L489.68 64.5H487.832L484.164 54.77H485.872L488.756 62.862L491.654 54.77H493.334ZM496.265 54.77V64.5H494.669V54.77H496.265ZM501.539 54.77C502.575 54.77 503.48 54.9707 504.255 55.372C505.039 55.764 505.641 56.3333 506.061 57.08C506.49 57.8173 506.705 58.6807 506.705 59.67C506.705 60.6593 506.49 61.518 506.061 62.246C505.641 62.974 505.039 63.534 504.255 63.926C503.48 64.3087 502.575 64.5 501.539 64.5H498.361V54.77H501.539ZM501.539 63.198C502.677 63.198 503.55 62.89 504.157 62.274C504.763 61.658 505.067 60.79 505.067 59.67C505.067 58.5407 504.763 57.6587 504.157 57.024C503.55 56.3893 502.677 56.072 501.539 56.072H499.957V63.198H501.539ZM509.868 54.77V60.972C509.868 61.7093 510.06 62.2647 510.442 62.638C510.834 63.0113 511.376 63.198 512.066 63.198C512.766 63.198 513.308 63.0113 513.69 62.638C514.082 62.2647 514.278 61.7093 514.278 60.972V54.77H515.874V60.944C515.874 61.7373 515.702 62.4093 515.356 62.96C515.011 63.5107 514.549 63.9213 513.97 64.192C513.392 64.4627 512.752 64.598 512.052 64.598C511.352 64.598 510.713 64.4627 510.134 64.192C509.565 63.9213 509.112 63.5107 508.776 62.96C508.44 62.4093 508.272 61.7373 508.272 60.944V54.77H509.868ZM523.818 62.512H519.744L519.044 64.5H517.378L520.864 54.756H522.712L526.198 64.5H524.518L523.818 62.512ZM523.37 61.21L521.788 56.688L520.192 61.21H523.37ZM529.31 63.212H532.6V64.5H527.714V54.77H529.31V63.212ZM550.241 54.77L547.357 64.5H545.551L543.507 57.136L541.337 64.5L539.545 64.514L536.787 54.77H538.481L540.497 62.694L542.681 54.77H544.473L546.503 62.652L548.533 54.77H550.241ZM557.424 62.512H553.35L552.65 64.5H550.984L554.47 54.756H556.318L559.804 64.5H558.124L557.424 62.512ZM556.976 61.21L555.394 56.688L553.798 61.21H556.976ZM562.916 63.212H566.206V64.5H561.32V54.77H562.916V63.212ZM569.136 63.212H572.426V64.5H567.54V54.77H569.136V63.212ZM575.357 56.058V58.914H578.717V60.216H575.357V63.198H579.137V64.5H573.761V54.756H579.137V56.058H575.357ZM587.389 54.77V56.072H584.799V64.5H583.203V56.072H580.599V54.77H587.389ZM592.211 64.598C591.558 64.598 590.97 64.486 590.447 64.262C589.924 64.0287 589.514 63.702 589.215 63.282C588.916 62.862 588.767 62.372 588.767 61.812H590.475C590.512 62.232 590.676 62.5773 590.965 62.848C591.264 63.1187 591.679 63.254 592.211 63.254C592.762 63.254 593.191 63.1233 593.499 62.862C593.807 62.5913 593.961 62.246 593.961 61.826C593.961 61.4993 593.863 61.2333 593.667 61.028C593.48 60.8227 593.242 60.664 592.953 60.552C592.673 60.44 592.281 60.3187 591.777 60.188C591.142 60.02 590.624 59.852 590.223 59.684C589.831 59.5067 589.495 59.236 589.215 58.872C588.935 58.508 588.795 58.0227 588.795 57.416C588.795 56.856 588.935 56.366 589.215 55.946C589.495 55.526 589.887 55.204 590.391 54.98C590.895 54.756 591.478 54.644 592.141 54.644C593.084 54.644 593.854 54.882 594.451 55.358C595.058 55.8247 595.394 56.4687 595.459 57.29H593.695C593.667 56.9353 593.499 56.632 593.191 56.38C592.883 56.128 592.477 56.002 591.973 56.002C591.516 56.002 591.142 56.1187 590.853 56.352C590.564 56.5853 590.419 56.9213 590.419 57.36C590.419 57.6587 590.508 57.906 590.685 58.102C590.872 58.2887 591.105 58.438 591.385 58.55C591.665 58.662 592.048 58.7833 592.533 58.914C593.177 59.0913 593.7 59.2687 594.101 59.446C594.512 59.6233 594.857 59.8987 595.137 60.272C595.426 60.636 595.571 61.126 595.571 61.742C595.571 62.2367 595.436 62.7033 595.165 63.142C594.904 63.5807 594.516 63.9353 594.003 64.206C593.499 64.4673 592.902 64.598 592.211 64.598ZM604.308 55.75V54.294H607.22V64.5H605.61V55.75H604.308ZM609.202 55.75V54.294H612.114V64.5H610.504V55.75H609.202ZM615.161 64.598C614.871 64.598 614.629 64.5 614.433 64.304C614.237 64.108 614.139 63.8653 614.139 63.576C614.139 63.2867 614.237 63.044 614.433 62.848C614.629 62.652 614.871 62.554 615.161 62.554C615.441 62.554 615.679 62.652 615.875 62.848C616.071 63.044 616.169 63.2867 616.169 63.576C616.169 63.8653 616.071 64.108 615.875 64.304C615.679 64.5 615.441 64.598 615.161 64.598ZM623.172 56.66C623.069 56.2307 622.882 55.9087 622.612 55.694C622.341 55.4793 621.963 55.372 621.478 55.372C620.74 55.372 620.19 55.6567 619.826 56.226C619.462 56.786 619.27 57.7193 619.252 59.026C619.494 58.6153 619.849 58.298 620.316 58.074C620.782 57.85 621.286 57.738 621.828 57.738C622.444 57.738 622.985 57.8733 623.452 58.144C623.928 58.4053 624.296 58.788 624.558 59.292C624.828 59.796 624.964 60.398 624.964 61.098C624.964 61.7513 624.833 62.3347 624.572 62.848C624.32 63.3613 623.942 63.7673 623.438 64.066C622.934 64.3553 622.327 64.5 621.618 64.5C620.656 64.5 619.9 64.29 619.35 63.87C618.808 63.4407 618.426 62.8387 618.202 62.064C617.987 61.2893 617.88 60.3233 617.88 59.166C617.88 55.75 619.084 54.042 621.492 54.042C622.425 54.042 623.158 54.294 623.69 54.798C624.231 55.302 624.548 55.9227 624.642 56.66H623.172ZM621.478 59.082C620.908 59.082 620.423 59.2547 620.022 59.6C619.63 59.936 619.434 60.426 619.434 61.07C619.434 61.714 619.616 62.2273 619.98 62.61C620.353 62.9833 620.871 63.17 621.534 63.17C622.122 63.17 622.584 62.988 622.92 62.624C623.265 62.26 623.438 61.7747 623.438 61.168C623.438 60.5333 623.27 60.0293 622.934 59.656C622.607 59.2733 622.122 59.082 621.478 59.082ZM626.47 62.372V61.168L631.174 54.42H633.106V60.986H634.408V62.372H633.106V64.5H631.538V62.372H626.47ZM631.608 56.044L628.304 60.986H631.608V56.044ZM635.479 56.758C635.479 56.0767 635.675 55.5447 636.067 55.162C636.468 54.77 636.981 54.574 637.607 54.574C638.232 54.574 638.741 54.77 639.133 55.162C639.534 55.5447 639.735 56.0767 639.735 56.758C639.735 57.4393 639.534 57.976 639.133 58.368C638.741 58.76 638.232 58.956 637.607 58.956C636.981 58.956 636.468 58.76 636.067 58.368C635.675 57.976 635.479 57.4393 635.479 56.758ZM644.019 54.756L638.433 64.5H636.865L642.451 54.756H644.019ZM637.607 55.54C637.019 55.54 636.725 55.946 636.725 56.758C636.725 57.5793 637.019 57.99 637.607 57.99C637.887 57.99 638.101 57.892 638.251 57.696C638.409 57.4907 638.489 57.178 638.489 56.758C638.489 55.946 638.195 55.54 637.607 55.54ZM641.177 62.484C641.177 61.8027 641.373 61.2707 641.765 60.888C642.166 60.496 642.679 60.3 643.305 60.3C643.921 60.3 644.425 60.496 644.817 60.888C645.218 61.2707 645.419 61.8027 645.419 62.484C645.419 63.1653 645.218 63.702 644.817 64.094C644.425 64.486 643.921 64.682 643.305 64.682C642.679 64.682 642.166 64.486 641.765 64.094C641.373 63.702 641.177 63.1653 641.177 62.484ZM643.291 61.266C642.703 61.266 642.409 61.672 642.409 62.484C642.409 63.296 642.703 63.702 643.291 63.702C643.879 63.702 644.173 63.296 644.173 62.484C644.173 61.672 643.879 61.266 643.291 61.266Z" fill="black"/>
<path d="M282.728 9.76999C283.764 9.76999 284.669 9.97066 285.444 10.372C286.228 10.764 286.83 11.3333 287.25 12.08C287.679 12.8173 287.894 13.6807 287.894 14.67C287.894 15.6593 287.679 16.518 287.25 17.246C286.83 17.974 286.228 18.534 285.444 18.926C284.669 19.3087 283.764 19.5 282.728 19.5H279.55V9.76999H282.728ZM282.728 18.198C283.867 18.198 284.739 17.89 285.346 17.274C285.953 16.658 286.256 15.79 286.256 14.67C286.256 13.5407 285.953 12.6587 285.346 12.024C284.739 11.3893 283.867 11.072 282.728 11.072H281.146V18.198H282.728ZM295.342 17.512H291.268L290.568 19.5H288.902L292.388 9.75599H294.236L297.722 19.5H296.042L295.342 17.512ZM294.894 16.21L293.312 11.688L291.716 16.21H294.894ZM303.676 19.598C302.77 19.598 301.935 19.388 301.17 18.968C300.414 18.5387 299.812 17.946 299.364 17.19C298.925 16.4247 298.706 15.566 298.706 14.614C298.706 13.662 298.925 12.808 299.364 12.052C299.812 11.296 300.414 10.708 301.17 10.288C301.935 9.85866 302.77 9.64399 303.676 9.64399C304.59 9.64399 305.426 9.85866 306.182 10.288C306.947 10.708 307.549 11.296 307.988 12.052C308.426 12.808 308.646 13.662 308.646 14.614C308.646 15.566 308.426 16.4247 307.988 17.19C307.549 17.946 306.947 18.5387 306.182 18.968C305.426 19.388 304.59 19.598 303.676 19.598ZM303.676 18.212C304.32 18.212 304.894 18.0673 305.398 17.778C305.902 17.4793 306.294 17.0593 306.574 16.518C306.863 15.9673 307.008 15.3327 307.008 14.614C307.008 13.8953 306.863 13.2653 306.574 12.724C306.294 12.1827 305.902 11.7673 305.398 11.478C304.894 11.1887 304.32 11.044 303.676 11.044C303.032 11.044 302.458 11.1887 301.954 11.478C301.45 11.7673 301.053 12.1827 300.764 12.724C300.484 13.2653 300.344 13.8953 300.344 14.614C300.344 15.3327 300.484 15.9673 300.764 16.518C301.053 17.0593 301.45 17.4793 301.954 17.778C302.458 18.0673 303.032 18.212 303.676 18.212ZM310.468 9.76999H312.204L310.734 13.102H309.614L310.468 9.76999ZM316.407 19.626C315.8 19.626 315.254 19.5187 314.769 19.304C314.293 19.08 313.915 18.7813 313.635 18.408C313.355 18.0253 313.205 17.6007 313.187 17.134H314.839C314.867 17.4607 315.021 17.736 315.301 17.96C315.59 18.1747 315.949 18.282 316.379 18.282C316.827 18.282 317.172 18.198 317.415 18.03C317.667 17.8527 317.793 17.6287 317.793 17.358C317.793 17.0687 317.653 16.854 317.373 16.714C317.102 16.574 316.668 16.42 316.071 16.252C315.492 16.0933 315.021 15.9393 314.657 15.79C314.293 15.6407 313.975 15.412 313.705 15.104C313.443 14.796 313.313 14.39 313.313 13.886C313.313 13.4753 313.434 13.102 313.677 12.766C313.919 12.4207 314.265 12.15 314.713 11.954C315.17 11.758 315.693 11.66 316.281 11.66C317.158 11.66 317.863 11.884 318.395 12.332C318.936 12.7707 319.225 13.3727 319.263 14.138H317.667C317.639 13.7927 317.499 13.5173 317.247 13.312C316.995 13.1067 316.654 13.004 316.225 13.004C315.805 13.004 315.483 13.0833 315.259 13.242C315.035 13.4007 314.923 13.6107 314.923 13.872C314.923 14.0773 314.997 14.25 315.147 14.39C315.296 14.53 315.478 14.642 315.693 14.726C315.907 14.8007 316.225 14.8987 316.645 15.02C317.205 15.1693 317.662 15.3233 318.017 15.482C318.381 15.6313 318.693 15.8553 318.955 16.154C319.216 16.4527 319.351 16.8493 319.361 17.344C319.361 17.7827 319.239 18.1747 318.997 18.52C318.754 18.8653 318.409 19.136 317.961 19.332C317.522 19.528 317.004 19.626 316.407 19.626ZM326.318 9.76999V19.5H324.722V9.76999H326.318ZM336.407 19.5H334.811L330.009 12.234V19.5H328.413V9.75599H330.009L334.811 17.008V9.75599H336.407V19.5ZM348.006 17.512H343.932L343.232 19.5H341.566L345.052 9.75599H346.9L350.386 19.5H348.706L348.006 17.512ZM347.558 16.21L345.976 11.688L344.38 16.21H347.558ZM356.956 19.5L354.716 15.608H353.498V19.5H351.902V9.76999H355.262C356.008 9.76999 356.638 9.90066 357.152 10.162C357.674 10.4233 358.062 10.7733 358.314 11.212C358.575 11.6507 358.706 12.1407 358.706 12.682C358.706 13.3167 358.519 13.8953 358.146 14.418C357.782 14.9313 357.217 15.2813 356.452 15.468L358.86 19.5H356.956ZM353.498 14.334H355.262C355.859 14.334 356.307 14.1847 356.606 13.886C356.914 13.5873 357.068 13.186 357.068 12.682C357.068 12.178 356.918 11.786 356.62 11.506C356.321 11.2167 355.868 11.072 355.262 11.072H353.498V14.334ZM365.955 14.502C366.478 14.5953 366.921 14.8707 367.285 15.328C367.649 15.7853 367.831 16.3033 367.831 16.882C367.831 17.3767 367.701 17.8247 367.439 18.226C367.187 18.618 366.819 18.9307 366.333 19.164C365.848 19.388 365.283 19.5 364.639 19.5H360.747V9.76999H364.457C365.12 9.76999 365.689 9.88199 366.165 10.106C366.641 10.33 367.001 10.6333 367.243 11.016C367.486 11.3893 367.607 11.8093 367.607 12.276C367.607 12.836 367.458 13.3027 367.159 13.676C366.861 14.0493 366.459 14.3247 365.955 14.502ZM362.343 13.858H364.317C364.84 13.858 365.246 13.7413 365.535 13.508C365.834 13.2653 365.983 12.92 365.983 12.472C365.983 12.0333 365.834 11.6927 365.535 11.45C365.246 11.198 364.84 11.072 364.317 11.072H362.343V13.858ZM364.499 18.198C365.041 18.198 365.465 18.0673 365.773 17.806C366.081 17.5447 366.235 17.1807 366.235 16.714C366.235 16.238 366.072 15.86 365.745 15.58C365.419 15.3 364.985 15.16 364.443 15.16H362.343V18.198H364.499ZM371.162 9.76999V19.5H369.566V9.76999H371.162ZM379.543 9.76999V11.072H376.953V19.5H375.357V11.072H372.753V9.76999H379.543ZM386.213 19.5L383.973 15.608H382.755V19.5H381.159V9.76999H384.519C385.266 9.76999 385.896 9.90066 386.409 10.162C386.932 10.4233 387.319 10.7733 387.571 11.212C387.833 11.6507 387.963 12.1407 387.963 12.682C387.963 13.3167 387.777 13.8953 387.403 14.418C387.039 14.9313 386.475 15.2813 385.709 15.468L388.117 19.5H386.213ZM382.755 14.334H384.519C385.117 14.334 385.565 14.1847 385.863 13.886C386.171 13.5873 386.325 13.186 386.325 12.682C386.325 12.178 386.176 11.786 385.877 11.506C385.579 11.2167 385.126 11.072 384.519 11.072H382.755V14.334ZM391.587 9.76999V15.972C391.587 16.7093 391.778 17.2647 392.161 17.638C392.553 18.0113 393.094 18.198 393.785 18.198C394.485 18.198 395.026 18.0113 395.409 17.638C395.801 17.2647 395.997 16.7093 395.997 15.972V9.76999H397.593V15.944C397.593 16.7373 397.42 17.4093 397.075 17.96C396.73 18.5107 396.268 18.9213 395.689 19.192C395.11 19.4627 394.471 19.598 393.771 19.598C393.071 19.598 392.432 19.4627 391.853 19.192C391.284 18.9213 390.831 18.5107 390.495 17.96C390.159 17.4093 389.991 16.7373 389.991 15.944V9.76999H391.587ZM409.919 9.76999V19.5H408.323V12.836L405.355 19.5H404.249L401.267 12.836V19.5H399.671V9.76999H401.393L404.809 17.4L408.211 9.76999H409.919ZM417.25 11.058V13.914H420.61V15.216H417.25V18.198H421.03V19.5H415.654V9.75599H421.03V11.058H417.25ZM422.463 14.614C422.463 13.662 422.683 12.808 423.121 12.052C423.569 11.296 424.171 10.708 424.927 10.288C425.693 9.85866 426.528 9.64399 427.433 9.64399C428.469 9.64399 429.389 9.90066 430.191 10.414C431.003 10.918 431.591 11.6367 431.955 12.57H430.037C429.785 12.0567 429.435 11.674 428.987 11.422C428.539 11.17 428.021 11.044 427.433 11.044C426.789 11.044 426.215 11.1887 425.711 11.478C425.207 11.7673 424.811 12.1827 424.521 12.724C424.241 13.2653 424.101 13.8953 424.101 14.614C424.101 15.3327 424.241 15.9627 424.521 16.504C424.811 17.0453 425.207 17.4653 425.711 17.764C426.215 18.0533 426.789 18.198 427.433 18.198C428.021 18.198 428.539 18.072 428.987 17.82C429.435 17.568 429.785 17.1853 430.037 16.672H431.955C431.591 17.6053 431.003 18.324 430.191 18.828C429.389 19.332 428.469 19.584 427.433 19.584C426.519 19.584 425.683 19.374 424.927 18.954C424.171 18.5247 423.569 17.932 423.121 17.176C422.683 16.42 422.463 15.566 422.463 14.614ZM438.261 19.598C437.356 19.598 436.521 19.388 435.755 18.968C434.999 18.5387 434.397 17.946 433.949 17.19C433.511 16.4247 433.291 15.566 433.291 14.614C433.291 13.662 433.511 12.808 433.949 12.052C434.397 11.296 434.999 10.708 435.755 10.288C436.521 9.85866 437.356 9.64399 438.261 9.64399C439.176 9.64399 440.011 9.85866 440.767 10.288C441.533 10.708 442.135 11.296 442.573 12.052C443.012 12.808 443.231 13.662 443.231 14.614C443.231 15.566 443.012 16.4247 442.573 17.19C442.135 17.946 441.533 18.5387 440.767 18.968C440.011 19.388 439.176 19.598 438.261 19.598ZM438.261 18.212C438.905 18.212 439.479 18.0673 439.983 17.778C440.487 17.4793 440.879 17.0593 441.159 16.518C441.449 15.9673 441.593 15.3327 441.593 14.614C441.593 13.8953 441.449 13.2653 441.159 12.724C440.879 12.1827 440.487 11.7673 439.983 11.478C439.479 11.1887 438.905 11.044 438.261 11.044C437.617 11.044 437.043 11.1887 436.539 11.478C436.035 11.7673 435.639 12.1827 435.349 12.724C435.069 13.2653 434.929 13.8953 434.929 14.614C434.929 15.3327 435.069 15.9673 435.349 16.518C435.639 17.0593 436.035 17.4793 436.539 17.778C437.043 18.0673 437.617 18.212 438.261 18.212ZM448.008 19.598C447.355 19.598 446.767 19.486 446.244 19.262C445.721 19.0287 445.311 18.702 445.012 18.282C444.713 17.862 444.564 17.372 444.564 16.812H446.272C446.309 17.232 446.473 17.5773 446.762 17.848C447.061 18.1187 447.476 18.254 448.008 18.254C448.559 18.254 448.988 18.1233 449.296 17.862C449.604 17.5913 449.758 17.246 449.758 16.826C449.758 16.4993 449.66 16.2333 449.464 16.028C449.277 15.8227 449.039 15.664 448.75 15.552C448.47 15.44 448.078 15.3187 447.574 15.188C446.939 15.02 446.421 14.852 446.02 14.684C445.628 14.5067 445.292 14.236 445.012 13.872C444.732 13.508 444.592 13.0227 444.592 12.416C444.592 11.856 444.732 11.366 445.012 10.946C445.292 10.526 445.684 10.204 446.188 9.97999C446.692 9.75599 447.275 9.64399 447.938 9.64399C448.881 9.64399 449.651 9.88199 450.248 10.358C450.855 10.8247 451.191 11.4687 451.256 12.29H449.492C449.464 11.9353 449.296 11.632 448.988 11.38C448.68 11.128 448.274 11.002 447.77 11.002C447.313 11.002 446.939 11.1187 446.65 11.352C446.361 11.5853 446.216 11.9213 446.216 12.36C446.216 12.6587 446.305 12.906 446.482 13.102C446.669 13.2887 446.902 13.438 447.182 13.55C447.462 13.662 447.845 13.7833 448.33 13.914C448.974 14.0913 449.497 14.2687 449.898 14.446C450.309 14.6233 450.654 14.8987 450.934 15.272C451.223 15.636 451.368 16.126 451.368 16.742C451.368 17.2367 451.233 17.7033 450.962 18.142C450.701 18.5807 450.313 18.9353 449.8 19.206C449.296 19.4673 448.699 19.598 448.008 19.598ZM460.461 9.76999L457.241 15.972V19.5H455.645V15.972L452.411 9.76999H454.189L456.443 14.544L458.697 9.76999H460.461ZM464.934 19.598C464.28 19.598 463.692 19.486 463.17 19.262C462.647 19.0287 462.236 18.702 461.938 18.282C461.639 17.862 461.49 17.372 461.49 16.812H463.198C463.235 17.232 463.398 17.5773 463.688 17.848C463.986 18.1187 464.402 18.254 464.934 18.254C465.484 18.254 465.914 18.1233 466.222 17.862C466.53 17.5913 466.684 17.246 466.684 16.826C466.684 16.4993 466.586 16.2333 466.39 16.028C466.203 15.8227 465.965 15.664 465.676 15.552C465.396 15.44 465.004 15.3187 464.5 15.188C463.865 15.02 463.347 14.852 462.946 14.684C462.554 14.5067 462.218 14.236 461.938 13.872C461.658 13.508 461.518 13.0227 461.518 12.416C461.518 11.856 461.658 11.366 461.938 10.946C462.218 10.526 462.61 10.204 463.114 9.97999C463.618 9.75599 464.201 9.64399 464.864 9.64399C465.806 9.64399 466.576 9.88199 467.174 10.358C467.78 10.8247 468.116 11.4687 468.182 12.29H466.418C466.39 11.9353 466.222 11.632 465.914 11.38C465.606 11.128 465.2 11.002 464.696 11.002C464.238 11.002 463.865 11.1187 463.576 11.352C463.286 11.5853 463.142 11.9213 463.142 12.36C463.142 12.6587 463.23 12.906 463.408 13.102C463.594 13.2887 463.828 13.438 464.108 13.55C464.388 13.662 464.77 13.7833 465.256 13.914C465.9 14.0913 466.422 14.2687 466.824 14.446C467.234 14.6233 467.58 14.8987 467.86 15.272C468.149 15.636 468.294 16.126 468.294 16.742C468.294 17.2367 468.158 17.7033 467.888 18.142C467.626 18.5807 467.239 18.9353 466.726 19.206C466.222 19.4673 465.624 19.598 464.934 19.598ZM476.463 9.76999V11.072H473.873V19.5H472.277V11.072H469.673V9.76999H476.463ZM488.327 9.76999V19.5H486.731V12.836L483.763 19.5H482.657L479.675 12.836V19.5H478.079V9.76999H479.801L483.217 17.4L486.619 9.76999H488.327ZM497.278 10.75V9.29399H500.19V19.5H498.58V10.75H497.278ZM503.237 19.598C502.948 19.598 502.705 19.5 502.509 19.304C502.313 19.108 502.215 18.8653 502.215 18.576C502.215 18.2867 502.313 18.044 502.509 17.848C502.705 17.652 502.948 17.554 503.237 17.554C503.517 17.554 503.755 17.652 503.951 17.848C504.147 18.044 504.245 18.2867 504.245 18.576C504.245 18.8653 504.147 19.108 503.951 19.304C503.755 19.5 503.517 19.598 503.237 19.598ZM511.248 11.66C511.145 11.2307 510.959 10.9087 510.688 10.694C510.417 10.4793 510.039 10.372 509.554 10.372C508.817 10.372 508.266 10.6567 507.902 11.226C507.538 11.786 507.347 12.7193 507.328 14.026C507.571 13.6153 507.925 13.298 508.392 13.074C508.859 12.85 509.363 12.738 509.904 12.738C510.52 12.738 511.061 12.8733 511.528 13.144C512.004 13.4053 512.373 13.788 512.634 14.292C512.905 14.796 513.04 15.398 513.04 16.098C513.04 16.7513 512.909 17.3347 512.648 17.848C512.396 18.3613 512.018 18.7673 511.514 19.066C511.01 19.3553 510.403 19.5 509.694 19.5C508.733 19.5 507.977 19.29 507.426 18.87C506.885 18.4407 506.502 17.8387 506.278 17.064C506.063 16.2893 505.956 15.3233 505.956 14.166C505.956 10.75 507.16 9.04199 509.568 9.04199C510.501 9.04199 511.234 9.29399 511.766 9.79799C512.307 10.302 512.625 10.9227 512.718 11.66H511.248ZM509.554 14.082C508.985 14.082 508.499 14.2547 508.098 14.6C507.706 14.936 507.51 15.426 507.51 16.07C507.51 16.714 507.692 17.2273 508.056 17.61C508.429 17.9833 508.947 18.17 509.61 18.17C510.198 18.17 510.66 17.988 510.996 17.624C511.341 17.26 511.514 16.7747 511.514 16.168C511.514 15.5333 511.346 15.0293 511.01 14.656C510.683 14.2733 510.198 14.082 509.554 14.082ZM514.546 17.372V16.168L519.25 9.41999H521.182V15.986H522.484V17.372H521.182V19.5H519.614V17.372H514.546ZM519.684 11.044L516.38 15.986H519.684V11.044ZM523.555 11.758C523.555 11.0767 523.751 10.5447 524.143 10.162C524.544 9.76999 525.057 9.57399 525.683 9.57399C526.308 9.57399 526.817 9.76999 527.209 10.162C527.61 10.5447 527.811 11.0767 527.811 11.758C527.811 12.4393 527.61 12.976 527.209 13.368C526.817 13.76 526.308 13.956 525.683 13.956C525.057 13.956 524.544 13.76 524.143 13.368C523.751 12.976 523.555 12.4393 523.555 11.758ZM532.095 9.75599L526.509 19.5H524.941L530.527 9.75599H532.095ZM525.683 10.54C525.095 10.54 524.801 10.946 524.801 11.758C524.801 12.5793 525.095 12.99 525.683 12.99C525.963 12.99 526.177 12.892 526.327 12.696C526.485 12.4907 526.565 12.178 526.565 11.758C526.565 10.946 526.271 10.54 525.683 10.54ZM529.253 17.484C529.253 16.8027 529.449 16.2707 529.841 15.888C530.242 15.496 530.755 15.3 531.381 15.3C531.997 15.3 532.501 15.496 532.893 15.888C533.294 16.2707 533.495 16.8027 533.495 17.484C533.495 18.1653 533.294 18.702 532.893 19.094C532.501 19.486 531.997 19.682 531.381 19.682C530.755 19.682 530.242 19.486 529.841 19.094C529.449 18.702 529.253 18.1653 529.253 17.484ZM531.367 16.266C530.779 16.266 530.485 16.672 530.485 17.484C530.485 18.296 530.779 18.702 531.367 18.702C531.955 18.702 532.249 18.296 532.249 17.484C532.249 16.672 531.955 16.266 531.367 16.266Z" fill="black"/>
<path d="M40.1458 89.77V99.5H38.5498V89.77H40.1458ZM50.2352 99.5H48.6392L43.8372 92.234V99.5H42.2412V89.756H43.8372L48.6392 97.008V89.756H50.2352V99.5ZM60.717 89.77L57.063 99.5H55.215L51.547 89.77H53.255L56.139 97.862L59.037 89.77H60.717ZM63.6477 91.058V93.914H67.0077V95.216H63.6477V98.198H67.4277V99.5H62.0517V89.756H67.4277V91.058H63.6477ZM72.5995 99.598C71.9462 99.598 71.3582 99.486 70.8355 99.262C70.3128 99.0287 69.9022 98.702 69.6035 98.282C69.3048 97.862 69.1555 97.372 69.1555 96.812H70.8635C70.9008 97.232 71.0642 97.5773 71.3535 97.848C71.6522 98.1187 72.0675 98.254 72.5995 98.254C73.1502 98.254 73.5795 98.1233 73.8875 97.862C74.1955 97.5913 74.3495 97.246 74.3495 96.826C74.3495 96.4993 74.2515 96.2333 74.0555 96.028C73.8688 95.8227 73.6308 95.664 73.3415 95.552C73.0615 95.44 72.6695 95.3187 72.1655 95.188C71.5308 95.02 71.0128 94.852 70.6115 94.684C70.2195 94.5067 69.8835 94.236 69.6035 93.872C69.3235 93.508 69.1835 93.0227 69.1835 92.416C69.1835 91.856 69.3235 91.366 69.6035 90.946C69.8835 90.526 70.2755 90.204 70.7795 89.98C71.2835 89.756 71.8668 89.644 72.5295 89.644C73.4722 89.644 74.2422 89.882 74.8395 90.358C75.4462 90.8247 75.7822 91.4687 75.8475 92.29H74.0835C74.0555 91.9353 73.8875 91.632 73.5795 91.38C73.2715 91.128 72.8655 91.002 72.3615 91.002C71.9042 91.002 71.5308 91.1187 71.2415 91.352C70.9522 91.5853 70.8075 91.9213 70.8075 92.36C70.8075 92.6587 70.8962 92.906 71.0735 93.102C71.2602 93.2887 71.4935 93.438 71.7735 93.55C72.0535 93.662 72.4362 93.7833 72.9215 93.914C73.5655 94.0913 74.0882 94.2687 74.4895 94.446C74.9002 94.6233 75.2455 94.8987 75.5255 95.272C75.8148 95.636 75.9595 96.126 75.9595 96.742C75.9595 97.2367 75.8242 97.7033 75.5535 98.142C75.2922 98.5807 74.9048 98.9353 74.3915 99.206C73.8875 99.4673 73.2902 99.598 72.5995 99.598ZM84.1287 89.77V91.072H81.5387V99.5H79.9427V91.072H77.3387V89.77H84.1287ZM90.1831 99.598C89.2777 99.598 88.4424 99.388 87.6771 98.968C86.9211 98.5387 86.3191 97.946 85.8711 97.19C85.4324 96.4247 85.2131 95.566 85.2131 94.614C85.2131 93.662 85.4324 92.808 85.8711 92.052C86.3191 91.296 86.9211 90.708 87.6771 90.288C88.4424 89.8587 89.2777 89.644 90.1831 89.644C91.0977 89.644 91.9331 89.8587 92.6891 90.288C93.4544 90.708 94.0564 91.296 94.4951 92.052C94.9337 92.808 95.1531 93.662 95.1531 94.614C95.1531 95.566 94.9337 96.4247 94.4951 97.19C94.0564 97.946 93.4544 98.5387 92.6891 98.968C91.9331 99.388 91.0977 99.598 90.1831 99.598ZM90.1831 98.212C90.8271 98.212 91.4011 98.0673 91.9051 97.778C92.4091 97.4793 92.8011 97.0593 93.0811 96.518C93.3704 95.9673 93.5151 95.3327 93.5151 94.614C93.5151 93.8953 93.3704 93.2653 93.0811 92.724C92.8011 92.1827 92.4091 91.7673 91.9051 91.478C91.4011 91.1887 90.8271 91.044 90.1831 91.044C89.5391 91.044 88.9651 91.1887 88.4611 91.478C87.9571 91.7673 87.5604 92.1827 87.2711 92.724C86.9911 93.2653 86.8511 93.8953 86.8511 94.614C86.8511 95.3327 86.9911 95.9673 87.2711 96.518C87.5604 97.0593 87.9571 97.4793 88.4611 97.778C88.9651 98.0673 89.5391 98.212 90.1831 98.212ZM101.778 99.5L99.5376 95.608H98.3196V99.5H96.7236V89.77H100.084C100.83 89.77 101.46 89.9007 101.974 90.162C102.496 90.4233 102.884 90.7733 103.136 91.212C103.397 91.6507 103.528 92.1407 103.528 92.682C103.528 93.3167 103.341 93.8953 102.968 94.418C102.604 94.9313 102.039 95.2813 101.274 95.468L103.682 99.5H101.778ZM98.3196 94.334H100.084C100.681 94.334 101.129 94.1847 101.428 93.886C101.736 93.5873 101.89 93.186 101.89 92.682C101.89 92.178 101.74 91.786 101.442 91.506C101.143 91.2167 100.69 91.072 100.084 91.072H98.3196V94.334ZM108.775 99.598C108.122 99.598 107.534 99.486 107.011 99.262C106.489 99.0287 106.078 98.702 105.779 98.282C105.481 97.862 105.331 97.372 105.331 96.812H107.039C107.077 97.232 107.24 97.5773 107.529 97.848C107.828 98.1187 108.243 98.254 108.775 98.254C109.326 98.254 109.755 98.1233 110.063 97.862C110.371 97.5913 110.525 97.246 110.525 96.826C110.525 96.4993 110.427 96.2333 110.231 96.028C110.045 95.8227 109.807 95.664 109.517 95.552C109.237 95.44 108.845 95.3187 108.341 95.188C107.707 95.02 107.189 94.852 106.787 94.684C106.395 94.5067 106.059 94.236 105.779 93.872C105.499 93.508 105.359 93.0227 105.359 92.416C105.359 91.856 105.499 91.366 105.779 90.946C106.059 90.526 106.451 90.204 106.955 89.98C107.459 89.756 108.043 89.644 108.705 89.644C109.648 89.644 110.418 89.882 111.015 90.358C111.622 90.8247 111.958 91.4687 112.023 92.29H110.259C110.231 91.9353 110.063 91.632 109.755 91.38C109.447 91.128 109.041 91.002 108.537 91.002C108.08 91.002 107.707 91.1187 107.417 91.352C107.128 91.5853 106.983 91.9213 106.983 92.36C106.983 92.6587 107.072 92.906 107.249 93.102C107.436 93.2887 107.669 93.438 107.949 93.55C108.229 93.662 108.612 93.7833 109.097 93.914C109.741 94.0913 110.264 94.2687 110.665 94.446C111.076 94.6233 111.421 94.8987 111.701 95.272C111.991 95.636 112.135 96.126 112.135 96.742C112.135 97.2367 112 97.7033 111.729 98.142C111.468 98.5807 111.081 98.9353 110.567 99.206C110.063 99.4673 109.466 99.598 108.775 99.598ZM120.872 90.75V89.294H123.784V99.5H122.174V90.75H120.872ZM132.444 90.526L128.552 99.5H126.942L130.876 90.694H125.696V89.336H132.444V90.526ZM134.664 99.598C134.375 99.598 134.132 99.5 133.936 99.304C133.74 99.108 133.642 98.8653 133.642 98.576C133.642 98.2867 133.74 98.044 133.936 97.848C134.132 97.652 134.375 97.554 134.664 97.554C134.944 97.554 135.182 97.652 135.378 97.848C135.574 98.044 135.672 98.2867 135.672 98.576C135.672 98.8653 135.574 99.108 135.378 99.304C135.182 99.5 134.944 99.598 134.664 99.598ZM142.675 91.66C142.573 91.2307 142.386 90.9087 142.115 90.694C141.845 90.4793 141.467 90.372 140.981 90.372C140.244 90.372 139.693 90.6567 139.329 91.226C138.965 91.786 138.774 92.7193 138.755 94.026C138.998 93.6153 139.353 93.298 139.819 93.074C140.286 92.85 140.79 92.738 141.331 92.738C141.947 92.738 142.489 92.8733 142.955 93.144C143.431 93.4053 143.8 93.788 144.061 94.292C144.332 94.796 144.467 95.398 144.467 96.098C144.467 96.7513 144.337 97.3347 144.075 97.848C143.823 98.3613 143.445 98.7673 142.941 99.066C142.437 99.3553 141.831 99.5 141.121 99.5C140.16 99.5 139.404 99.29 138.853 98.87C138.312 98.4407 137.929 97.8387 137.705 97.064C137.491 96.2893 137.383 95.3233 137.383 94.166C137.383 90.75 138.587 89.042 140.995 89.042C141.929 89.042 142.661 89.294 143.193 89.798C143.735 90.302 144.052 90.9227 144.145 91.66H142.675ZM140.981 94.082C140.412 94.082 139.927 94.2547 139.525 94.6C139.133 94.936 138.937 95.426 138.937 96.07C138.937 96.714 139.119 97.2273 139.483 97.61C139.857 97.9833 140.375 98.17 141.037 98.17C141.625 98.17 142.087 97.988 142.423 97.624C142.769 97.26 142.941 96.7747 142.941 96.168C142.941 95.5333 142.773 95.0293 142.437 94.656C142.111 94.2733 141.625 94.082 140.981 94.082ZM145.974 97.372V96.168L150.678 89.42H152.61V95.986H153.912V97.372H152.61V99.5H151.042V97.372H145.974ZM151.112 91.044L147.808 95.986H151.112V91.044ZM154.982 91.758C154.982 91.0767 155.178 90.5447 155.57 90.162C155.972 89.77 156.485 89.574 157.11 89.574C157.736 89.574 158.244 89.77 158.636 90.162C159.038 90.5447 159.238 91.0767 159.238 91.758C159.238 92.4393 159.038 92.976 158.636 93.368C158.244 93.76 157.736 93.956 157.11 93.956C156.485 93.956 155.972 93.76 155.57 93.368C155.178 92.976 154.982 92.4393 154.982 91.758ZM163.522 89.756L157.936 99.5H156.368L161.954 89.756H163.522ZM157.11 90.54C156.522 90.54 156.228 90.946 156.228 91.758C156.228 92.5793 156.522 92.99 157.11 92.99C157.39 92.99 157.605 92.892 157.754 92.696C157.913 92.4907 157.992 92.178 157.992 91.758C157.992 90.946 157.698 90.54 157.11 90.54ZM160.68 97.484C160.68 96.8027 160.876 96.2707 161.268 95.888C161.67 95.496 162.183 95.3 162.808 95.3C163.424 95.3 163.928 95.496 164.32 95.888C164.722 96.2707 164.922 96.8027 164.922 97.484C164.922 98.1653 164.722 98.702 164.32 99.094C163.928 99.486 163.424 99.682 162.808 99.682C162.183 99.682 161.67 99.486 161.268 99.094C160.876 98.702 160.68 98.1653 160.68 97.484ZM162.794 96.266C162.206 96.266 161.912 96.672 161.912 97.484C161.912 98.296 162.206 98.702 162.794 98.702C163.382 98.702 163.676 98.296 163.676 97.484C163.676 96.672 163.382 96.266 162.794 96.266Z" fill="black"/>
<g clip-path="url(#clip1_101_18318)">
<path fillRule="evenodd" clipRule="evenodd" d="M360 279.56C349.68 273.6 335.64 268.6 334 268C335.4 268.28 346.44 270.72 357.96 274.48C351.48 261.16 337.8 252 322 252C303.6 252 288.08 264.4 283.44 281.36C282.92 283.24 282.52 285.16 282.32 287.12C278.56 287.44 275.68 288.32 274 290C269.72 294.28 275.72 299.68 284 304.44C294.32 310.4 308.36 315.4 310 316C308.6 315.72 297.56 313.28 286.04 309.52C292.56 322.84 306.2 332 322 332C340.4 332 355.92 319.56 360.56 302.64C361.08 300.76 361.48 298.84 361.68 296.88C365.44 296.56 368.32 295.68 370 294C374.28 289.72 368.28 284.32 360 279.56ZM314 320C311.8 320 310 318.2 310 316C310 313.8 311.8 312 314 312C316.2 312 318 313.8 318 316C318 318.2 316.2 320 314 320ZM330 272C327.8 272 326 270.2 326 268C326 265.8 327.8 264 330 264C332.2 264 334 265.8 334 268C334 270.2 332.2 272 330 272Z" fill="url(#paint0_linear_101_18318)"/>
<path d="M318.08 284V300H314.2V290.4L310.64 300H307.48L303.88 290.4V300H300V284H304.6L309.08 295.08L313.52 284H318.12H318.08Z" fill="white"/>
<path d="M325 299.16C323.76 298.48 322.76 297.48 322 296.24C321.24 295 320.88 293.56 320.88 292C320.88 290.44 321.24 289.04 322 287.8C322.76 286.56 323.72 285.6 325 284.88C326.28 284.16 327.64 283.84 329.12 283.84C330.6 283.84 332 284.2 333.24 284.88C334.48 285.56 335.48 286.56 336.2 287.8C336.92 289.04 337.28 290.44 337.28 292C337.28 293.56 336.92 294.96 336.2 296.24C335.48 297.48 334.48 298.48 333.24 299.16C332 299.84 330.6 300.2 329.12 300.2C327.64 300.2 326.24 299.84 325 299.16ZM332.2 295.36C332.96 294.52 333.36 293.4 333.36 292C333.36 290.6 332.96 289.44 332.2 288.6C331.44 287.76 330.4 287.32 329.12 287.32C327.84 287.32 326.8 287.72 326.04 288.56C325.28 289.4 324.88 290.52 324.88 291.96C324.88 293.4 325.28 294.52 326.04 295.36C326.8 296.2 327.84 296.64 329.12 296.64C330.4 296.64 331.4 296.2 332.2 295.36Z" fill="white"/>
<path d="M344 284V300H340.12V284H344Z" fill="white"/>
</g>
</g>
<defs>
<linearGradient id="paint0_linear_101_18318" x1="322" y1="252" x2="322" y2="332" gradientUnits="userSpaceOnUse">
<stop stop-color="#320F99"/>
<stop offset="1" stop-color="#4B17E5"/>
</linearGradient>
<clipPath id="clip0_101_18318">
<rect width="677" height="585" fill="white"/>
</clipPath>
<clipPath id="clip1_101_18318">
<rect width="100" height="80" fill="white" transform="translate(272 252)"/>
</clipPath>
</defs>
</svg>
