<svg width="22" height="22" viewBox="0 0 22 22" fill="none" xmlns="http://www.w3.org/2000/svg">
<path d="M19.8205 0.5H2.29437C1.33672 0.5 0.5 1.18906 0.5 2.13547V19.7005C0.5 20.652 1.33672 21.5 2.29437 21.5H19.8153C20.7781 21.5 21.5 20.6464 21.5 19.7005V2.13547C21.5056 1.18906 20.7781 0.5 19.8205 0.5ZM7.00953 18.0045H4.00109V8.65063H7.00953V18.0045ZM5.60938 7.22844H5.58781C4.625 7.22844 4.00156 6.51172 4.00156 5.61453C4.00156 4.70094 4.64141 4.00109 5.62578 4.00109C6.61016 4.00109 7.2125 4.69578 7.23406 5.61453C7.23359 6.51172 6.61016 7.22844 5.60938 7.22844ZM18.0045 18.0045H14.9961V12.89C14.9961 11.6647 14.5583 10.8275 13.4698 10.8275C12.6383 10.8275 12.1461 11.39 11.9272 11.938C11.8452 12.1348 11.8231 12.403 11.8231 12.6767V18.0045H8.81469V8.65063H11.8231V9.95234C12.2609 9.32891 12.9448 8.43172 14.5363 8.43172C16.5111 8.43172 18.005 9.73344 18.005 12.5398L18.0045 18.0045Z" fill="#8E20C6"/>
</svg>
