<svg width="394" height="439" viewBox="0 0 394 439" fill="none" xmlns="http://www.w3.org/2000/svg">
<g filter="url(#filter0_f_20_36482)">
<path fill-rule="evenodd" clip-rule="evenodd" d="M353.142 108.131C353.142 70.5035 322.639 40 285.011 40C247.383 40 216.88 70.5035 216.88 108.131V227.361H250.945V108.131C250.945 89.3174 266.197 74.0657 285.011 74.0657C303.825 74.0657 319.077 89.3174 319.077 108.131V157.046H353.142V108.131Z" fill="white"/>
<rect x="186.745" y="167.091" width="131.022" height="231.909" rx="8" fill="url(#paint0_linear_20_36482)"/>
<mask id="mask0_20_36482" style="mask-type:alpha" maskUnits="userSpaceOnUse" x="186" y="167" width="132" height="232">
<rect x="186.745" y="167.091" width="131.022" height="231.909" rx="8" fill="url(#paint1_linear_20_36482)"/>
</mask>
<g mask="url(#mask0_20_36482)">
<circle cx="184.779" cy="170.367" r="1.96533" fill="black"/>
<circle cx="184.779" cy="178.228" r="1.96533" fill="black"/>
<circle cx="184.779" cy="186.089" r="1.96533" fill="black"/>
<circle cx="184.779" cy="193.951" r="1.96533" fill="black"/>
<circle cx="184.779" cy="201.812" r="1.96533" fill="black"/>
<circle cx="184.779" cy="209.673" r="1.96533" fill="black"/>
<circle cx="184.779" cy="217.535" r="1.96533" fill="black"/>
<circle cx="184.779" cy="225.396" r="1.96533" fill="black"/>
<circle cx="184.779" cy="233.257" r="1.96533" fill="black"/>
<circle cx="184.779" cy="241.119" r="1.96533" fill="black"/>
<circle cx="184.779" cy="248.98" r="1.96533" fill="black"/>
<circle cx="184.779" cy="256.841" r="1.96533" fill="black"/>
<circle cx="184.779" cy="264.703" r="1.96533" fill="black"/>
<circle cx="184.779" cy="272.564" r="1.96533" fill="black"/>
<circle cx="184.779" cy="280.425" r="1.96533" fill="black"/>
<circle cx="184.779" cy="288.286" r="1.96533" fill="black"/>
<circle cx="184.779" cy="296.148" r="1.96533" fill="black"/>
<circle cx="184.779" cy="304.009" r="1.96533" fill="black"/>
<circle cx="184.779" cy="311.87" r="1.96533" fill="black"/>
<circle cx="184.779" cy="319.732" r="1.96533" fill="black"/>
<circle cx="184.779" cy="327.593" r="1.96533" fill="black"/>
<circle cx="184.779" cy="335.454" r="1.96533" fill="black"/>
<circle cx="184.779" cy="343.316" r="1.96533" fill="black"/>
<circle cx="184.779" cy="351.177" r="1.96533" fill="black"/>
<circle cx="184.779" cy="359.038" r="1.96533" fill="black"/>
<circle cx="184.779" cy="366.9" r="1.96533" fill="black"/>
<circle cx="184.779" cy="374.761" r="1.96533" fill="black"/>
<circle cx="184.779" cy="382.622" r="1.96533" fill="black"/>
<circle cx="184.779" cy="390.484" r="1.96533" fill="black"/>
<circle cx="184.779" cy="398.345" r="1.96533" fill="black"/>
<circle cx="192.641" cy="170.367" r="1.96533" fill="black"/>
<circle cx="192.641" cy="178.228" r="1.96533" fill="black"/>
<circle cx="192.641" cy="186.089" r="1.96533" fill="black"/>
<circle cx="192.641" cy="193.951" r="1.96533" fill="black"/>
<circle cx="192.641" cy="201.812" r="1.96533" fill="black"/>
<circle cx="192.641" cy="209.673" r="1.96533" fill="black"/>
<circle cx="192.641" cy="217.535" r="1.96533" fill="black"/>
<circle cx="192.641" cy="225.396" r="1.96533" fill="black"/>
<circle cx="192.641" cy="233.257" r="1.96533" fill="black"/>
<circle cx="192.641" cy="241.119" r="1.96533" fill="black"/>
<circle cx="192.641" cy="248.98" r="1.96533" fill="black"/>
<circle cx="192.641" cy="256.841" r="1.96533" fill="black"/>
<circle cx="192.641" cy="264.703" r="1.96533" fill="black"/>
<circle cx="192.641" cy="272.564" r="1.96533" fill="black"/>
<circle cx="192.641" cy="280.425" r="1.96533" fill="black"/>
<circle cx="192.641" cy="288.286" r="1.96533" fill="black"/>
<circle cx="192.641" cy="296.148" r="1.96533" fill="black"/>
<circle cx="192.641" cy="304.009" r="1.96533" fill="black"/>
<circle cx="192.641" cy="311.87" r="1.96533" fill="black"/>
<circle cx="192.641" cy="319.732" r="1.96533" fill="black"/>
<circle cx="192.641" cy="327.593" r="1.96533" fill="black"/>
<circle cx="192.641" cy="335.454" r="1.96533" fill="black"/>
<circle cx="192.641" cy="343.316" r="1.96533" fill="black"/>
<circle cx="192.641" cy="351.177" r="1.96533" fill="black"/>
<circle cx="192.641" cy="359.038" r="1.96533" fill="black"/>
<circle cx="192.641" cy="366.9" r="1.96533" fill="black"/>
<circle cx="192.641" cy="374.761" r="1.96533" fill="black"/>
<circle cx="192.641" cy="382.622" r="1.96533" fill="black"/>
<circle cx="192.641" cy="390.484" r="1.96533" fill="black"/>
<circle cx="192.641" cy="398.345" r="1.96533" fill="black"/>
<circle cx="200.502" cy="170.367" r="1.96533" fill="black"/>
<circle cx="200.502" cy="178.228" r="1.96533" fill="black"/>
<circle cx="200.502" cy="186.089" r="1.96533" fill="black"/>
<circle cx="200.502" cy="193.951" r="1.96533" fill="black"/>
<circle cx="200.502" cy="201.812" r="1.96533" fill="black"/>
<circle cx="200.502" cy="209.673" r="1.96533" fill="black"/>
<circle cx="200.502" cy="217.535" r="1.96533" fill="black"/>
<circle cx="200.502" cy="225.396" r="1.96533" fill="black"/>
<circle cx="200.502" cy="233.257" r="1.96533" fill="black"/>
<circle cx="200.502" cy="241.119" r="1.96533" fill="black"/>
<circle cx="200.502" cy="248.98" r="1.96533" fill="black"/>
<circle cx="200.502" cy="256.841" r="1.96533" fill="black"/>
<circle cx="200.502" cy="264.703" r="1.96533" fill="black"/>
<circle cx="200.502" cy="272.564" r="1.96533" fill="black"/>
<circle cx="200.502" cy="280.425" r="1.96533" fill="black"/>
<circle cx="200.502" cy="288.286" r="1.96533" fill="black"/>
<circle cx="200.502" cy="296.148" r="1.96533" fill="black"/>
<circle cx="200.502" cy="304.009" r="1.96533" fill="black"/>
<circle cx="200.502" cy="311.87" r="1.96533" fill="black"/>
<circle cx="200.502" cy="319.732" r="1.96533" fill="black"/>
<circle cx="200.502" cy="327.593" r="1.96533" fill="black"/>
<circle cx="200.502" cy="335.454" r="1.96533" fill="black"/>
<circle cx="200.502" cy="343.316" r="1.96533" fill="black"/>
<circle cx="200.502" cy="351.177" r="1.96533" fill="black"/>
<circle cx="200.502" cy="359.038" r="1.96533" fill="black"/>
<circle cx="200.502" cy="366.9" r="1.96533" fill="black"/>
<circle cx="200.502" cy="374.761" r="1.96533" fill="black"/>
<circle cx="200.502" cy="382.622" r="1.96533" fill="black"/>
<circle cx="200.502" cy="390.484" r="1.96533" fill="black"/>
<circle cx="200.502" cy="398.345" r="1.96533" fill="black"/>
<circle cx="208.363" cy="170.367" r="1.96533" fill="black"/>
<circle cx="208.363" cy="178.228" r="1.96533" fill="black"/>
<circle cx="208.363" cy="186.089" r="1.96533" fill="black"/>
<circle cx="208.363" cy="193.951" r="1.96533" fill="black"/>
<circle cx="208.363" cy="201.812" r="1.96533" fill="black"/>
<circle cx="208.363" cy="209.673" r="1.96533" fill="black"/>
<circle cx="208.363" cy="217.535" r="1.96533" fill="black"/>
<circle cx="208.363" cy="225.396" r="1.96533" fill="black"/>
<circle cx="208.363" cy="233.257" r="1.96533" fill="black"/>
<circle cx="208.363" cy="241.119" r="1.96533" fill="black"/>
<circle cx="208.363" cy="248.98" r="1.96533" fill="black"/>
<circle cx="208.363" cy="256.841" r="1.96533" fill="black"/>
<circle cx="208.363" cy="264.703" r="1.96533" fill="black"/>
<circle cx="208.363" cy="272.564" r="1.96533" fill="black"/>
<circle cx="208.363" cy="280.425" r="1.96533" fill="black"/>
<circle cx="208.363" cy="288.286" r="1.96533" fill="black"/>
<circle cx="208.363" cy="296.148" r="1.96533" fill="black"/>
<circle cx="208.363" cy="304.009" r="1.96533" fill="black"/>
<circle cx="208.363" cy="311.87" r="1.96533" fill="black"/>
<circle cx="208.363" cy="319.732" r="1.96533" fill="black"/>
<circle cx="208.363" cy="327.593" r="1.96533" fill="black"/>
<circle cx="208.363" cy="335.454" r="1.96533" fill="black"/>
<circle cx="208.363" cy="343.316" r="1.96533" fill="black"/>
<circle cx="208.363" cy="351.177" r="1.96533" fill="black"/>
<circle cx="208.363" cy="359.038" r="1.96533" fill="black"/>
<circle cx="208.363" cy="366.9" r="1.96533" fill="black"/>
<circle cx="208.363" cy="374.761" r="1.96533" fill="black"/>
<circle cx="208.363" cy="382.622" r="1.96533" fill="black"/>
<circle cx="208.363" cy="390.484" r="1.96533" fill="black"/>
<circle cx="208.363" cy="398.345" r="1.96533" fill="black"/>
<circle cx="216.225" cy="170.367" r="1.96533" fill="black"/>
<circle cx="216.225" cy="178.228" r="1.96533" fill="black"/>
<circle cx="216.225" cy="186.089" r="1.96533" fill="black"/>
<circle cx="216.225" cy="193.951" r="1.96533" fill="black"/>
<circle cx="216.225" cy="201.812" r="1.96533" fill="black"/>
<circle cx="216.225" cy="209.673" r="1.96533" fill="black"/>
<circle cx="216.225" cy="217.535" r="1.96533" fill="black"/>
<circle cx="216.225" cy="225.396" r="1.96533" fill="black"/>
<circle cx="216.225" cy="233.257" r="1.96533" fill="black"/>
<circle cx="216.225" cy="241.119" r="1.96533" fill="black"/>
<circle cx="216.225" cy="248.98" r="1.96533" fill="black"/>
<circle cx="216.225" cy="256.841" r="1.96533" fill="black"/>
<circle cx="216.225" cy="264.703" r="1.96533" fill="black"/>
<circle cx="216.225" cy="272.564" r="1.96533" fill="black"/>
<circle cx="216.225" cy="280.425" r="1.96533" fill="black"/>
<circle cx="216.225" cy="288.286" r="1.96533" fill="black"/>
<circle cx="216.225" cy="296.148" r="1.96533" fill="black"/>
<circle cx="216.225" cy="304.009" r="1.96533" fill="black"/>
<circle cx="216.225" cy="311.87" r="1.96533" fill="black"/>
<circle cx="216.225" cy="319.732" r="1.96533" fill="black"/>
<circle cx="216.225" cy="327.593" r="1.96533" fill="black"/>
<circle cx="216.225" cy="335.454" r="1.96533" fill="black"/>
<circle cx="216.225" cy="343.316" r="1.96533" fill="black"/>
<circle cx="216.225" cy="351.177" r="1.96533" fill="black"/>
<circle cx="216.225" cy="359.038" r="1.96533" fill="black"/>
<circle cx="216.225" cy="366.9" r="1.96533" fill="black"/>
<circle cx="216.225" cy="374.761" r="1.96533" fill="black"/>
<circle cx="216.225" cy="382.622" r="1.96533" fill="black"/>
<circle cx="216.225" cy="390.484" r="1.96533" fill="black"/>
<circle cx="216.225" cy="398.345" r="1.96533" fill="black"/>
<circle cx="224.086" cy="170.367" r="1.96533" fill="black"/>
<circle cx="224.086" cy="178.228" r="1.96533" fill="black"/>
<circle cx="224.086" cy="186.089" r="1.96533" fill="black"/>
<circle cx="224.086" cy="193.951" r="1.96533" fill="black"/>
<circle cx="224.086" cy="201.812" r="1.96533" fill="black"/>
<circle cx="224.086" cy="209.673" r="1.96533" fill="black"/>
<circle cx="224.086" cy="217.535" r="1.96533" fill="black"/>
<circle cx="224.086" cy="225.396" r="1.96533" fill="black"/>
<circle cx="224.086" cy="233.257" r="1.96533" fill="black"/>
<circle cx="224.086" cy="241.119" r="1.96533" fill="black"/>
<circle cx="224.086" cy="248.98" r="1.96533" fill="black"/>
<circle cx="224.086" cy="256.841" r="1.96533" fill="black"/>
<circle cx="224.086" cy="264.703" r="1.96533" fill="black"/>
<circle cx="224.086" cy="272.564" r="1.96533" fill="black"/>
<circle cx="224.086" cy="280.425" r="1.96533" fill="black"/>
<circle cx="224.086" cy="288.286" r="1.96533" fill="black"/>
<circle cx="224.086" cy="296.148" r="1.96533" fill="black"/>
<circle cx="224.086" cy="304.009" r="1.96533" fill="black"/>
<circle cx="224.086" cy="311.87" r="1.96533" fill="black"/>
<circle cx="224.086" cy="319.732" r="1.96533" fill="black"/>
<circle cx="224.086" cy="327.593" r="1.96533" fill="black"/>
<circle cx="224.086" cy="335.454" r="1.96533" fill="black"/>
<circle cx="224.086" cy="343.316" r="1.96533" fill="black"/>
<circle cx="224.086" cy="351.177" r="1.96533" fill="black"/>
<circle cx="224.086" cy="359.038" r="1.96533" fill="black"/>
<circle cx="224.086" cy="366.9" r="1.96533" fill="black"/>
<circle cx="224.086" cy="374.761" r="1.96533" fill="black"/>
<circle cx="224.086" cy="382.622" r="1.96533" fill="black"/>
<circle cx="224.086" cy="390.484" r="1.96533" fill="black"/>
<circle cx="224.086" cy="398.345" r="1.96533" fill="black"/>
<circle cx="231.947" cy="170.367" r="1.96533" fill="black"/>
<circle cx="231.947" cy="178.228" r="1.96533" fill="black"/>
<circle cx="231.947" cy="186.089" r="1.96533" fill="black"/>
<circle cx="231.947" cy="193.951" r="1.96533" fill="black"/>
<circle cx="231.947" cy="201.812" r="1.96533" fill="black"/>
<circle cx="231.947" cy="209.673" r="1.96533" fill="black"/>
<circle cx="231.947" cy="217.535" r="1.96533" fill="black"/>
<circle cx="231.947" cy="225.396" r="1.96533" fill="black"/>
<circle cx="231.947" cy="233.257" r="1.96533" fill="black"/>
<circle cx="231.947" cy="241.119" r="1.96533" fill="black"/>
<circle cx="231.947" cy="248.98" r="1.96533" fill="black"/>
<circle cx="231.947" cy="256.841" r="1.96533" fill="black"/>
<circle cx="231.947" cy="264.703" r="1.96533" fill="black"/>
<circle cx="231.947" cy="272.564" r="1.96533" fill="black"/>
<circle cx="231.947" cy="280.425" r="1.96533" fill="black"/>
<circle cx="231.947" cy="288.286" r="1.96533" fill="black"/>
<circle cx="231.947" cy="296.148" r="1.96533" fill="black"/>
<circle cx="231.947" cy="304.009" r="1.96533" fill="black"/>
<circle cx="231.947" cy="311.87" r="1.96533" fill="black"/>
<circle cx="231.947" cy="319.732" r="1.96533" fill="black"/>
<circle cx="231.947" cy="327.593" r="1.96533" fill="black"/>
<circle cx="231.947" cy="335.454" r="1.96533" fill="black"/>
<circle cx="231.947" cy="343.316" r="1.96533" fill="black"/>
<circle cx="231.947" cy="351.177" r="1.96533" fill="black"/>
<circle cx="231.947" cy="359.038" r="1.96533" fill="black"/>
<circle cx="231.947" cy="366.9" r="1.96533" fill="black"/>
<circle cx="231.947" cy="374.761" r="1.96533" fill="black"/>
<circle cx="231.947" cy="382.622" r="1.96533" fill="black"/>
<circle cx="231.947" cy="390.484" r="1.96533" fill="black"/>
<circle cx="231.947" cy="398.345" r="1.96533" fill="black"/>
<circle cx="239.808" cy="170.367" r="1.96533" fill="black"/>
<circle cx="239.808" cy="178.228" r="1.96533" fill="black"/>
<circle cx="239.808" cy="186.089" r="1.96533" fill="black"/>
<circle cx="239.808" cy="193.951" r="1.96533" fill="black"/>
<circle cx="239.808" cy="201.812" r="1.96533" fill="black"/>
<circle cx="239.808" cy="209.673" r="1.96533" fill="black"/>
<circle cx="239.808" cy="217.535" r="1.96533" fill="black"/>
<circle cx="239.808" cy="225.396" r="1.96533" fill="black"/>
<circle cx="239.808" cy="233.257" r="1.96533" fill="black"/>
<circle cx="239.808" cy="241.119" r="1.96533" fill="black"/>
<circle cx="239.808" cy="248.98" r="1.96533" fill="black"/>
<circle cx="239.808" cy="256.841" r="1.96533" fill="black"/>
<circle cx="239.808" cy="264.703" r="1.96533" fill="black"/>
<circle cx="239.808" cy="272.564" r="1.96533" fill="black"/>
<circle cx="239.808" cy="280.425" r="1.96533" fill="black"/>
<circle cx="239.808" cy="288.286" r="1.96533" fill="black"/>
<circle cx="239.808" cy="296.148" r="1.96533" fill="black"/>
<circle cx="239.808" cy="304.009" r="1.96533" fill="black"/>
<circle cx="239.808" cy="311.87" r="1.96533" fill="black"/>
<circle cx="239.808" cy="319.732" r="1.96533" fill="black"/>
<circle cx="239.808" cy="327.593" r="1.96533" fill="black"/>
<circle cx="239.808" cy="335.454" r="1.96533" fill="black"/>
<circle cx="239.808" cy="343.316" r="1.96533" fill="black"/>
<circle cx="239.808" cy="351.177" r="1.96533" fill="black"/>
<circle cx="239.808" cy="359.038" r="1.96533" fill="black"/>
<circle cx="239.808" cy="366.9" r="1.96533" fill="black"/>
<circle cx="239.808" cy="374.761" r="1.96533" fill="black"/>
<circle cx="239.808" cy="382.622" r="1.96533" fill="black"/>
<circle cx="239.808" cy="390.484" r="1.96533" fill="black"/>
<circle cx="239.808" cy="398.345" r="1.96533" fill="black"/>
<circle cx="247.67" cy="170.367" r="1.96533" fill="black"/>
<circle cx="247.67" cy="178.228" r="1.96533" fill="black"/>
<circle cx="247.67" cy="186.089" r="1.96533" fill="black"/>
<circle cx="247.67" cy="193.951" r="1.96533" fill="black"/>
<circle cx="247.67" cy="201.812" r="1.96533" fill="black"/>
<circle cx="247.67" cy="209.673" r="1.96533" fill="black"/>
<circle cx="247.67" cy="217.535" r="1.96533" fill="black"/>
<circle cx="247.67" cy="225.396" r="1.96533" fill="black"/>
<circle cx="247.67" cy="233.257" r="1.96533" fill="black"/>
<circle cx="247.67" cy="241.119" r="1.96533" fill="black"/>
<circle cx="247.67" cy="248.98" r="1.96533" fill="black"/>
<circle cx="247.67" cy="256.841" r="1.96533" fill="black"/>
<circle cx="247.67" cy="264.703" r="1.96533" fill="black"/>
<circle cx="247.67" cy="272.564" r="1.96533" fill="black"/>
<circle cx="247.67" cy="280.425" r="1.96533" fill="black"/>
<circle cx="247.67" cy="288.286" r="1.96533" fill="black"/>
<circle cx="247.67" cy="296.148" r="1.96533" fill="black"/>
<circle cx="247.67" cy="304.009" r="1.96533" fill="black"/>
<circle cx="247.67" cy="311.87" r="1.96533" fill="black"/>
<circle cx="247.67" cy="319.732" r="1.96533" fill="black"/>
<circle cx="247.67" cy="327.593" r="1.96533" fill="black"/>
<circle cx="247.67" cy="335.454" r="1.96533" fill="black"/>
<circle cx="247.67" cy="343.316" r="1.96533" fill="black"/>
<circle cx="247.67" cy="351.177" r="1.96533" fill="black"/>
<circle cx="247.67" cy="359.038" r="1.96533" fill="black"/>
<circle cx="247.67" cy="366.9" r="1.96533" fill="black"/>
<circle cx="247.67" cy="374.761" r="1.96533" fill="black"/>
<circle cx="247.67" cy="382.622" r="1.96533" fill="black"/>
<circle cx="247.67" cy="390.484" r="1.96533" fill="black"/>
<circle cx="247.67" cy="398.345" r="1.96533" fill="black"/>
<circle cx="255.531" cy="170.367" r="1.96533" fill="black"/>
<circle cx="255.531" cy="178.228" r="1.96533" fill="black"/>
<circle cx="255.531" cy="186.089" r="1.96533" fill="black"/>
<circle cx="255.531" cy="193.951" r="1.96533" fill="black"/>
<circle cx="255.531" cy="201.812" r="1.96533" fill="black"/>
<circle cx="255.531" cy="209.673" r="1.96533" fill="black"/>
<circle cx="255.531" cy="217.535" r="1.96533" fill="black"/>
<circle cx="255.531" cy="225.396" r="1.96533" fill="black"/>
<circle cx="255.531" cy="233.257" r="1.96533" fill="black"/>
<circle cx="255.531" cy="241.119" r="1.96533" fill="black"/>
<circle cx="255.531" cy="248.98" r="1.96533" fill="black"/>
<circle cx="255.531" cy="256.841" r="1.96533" fill="black"/>
<circle cx="255.531" cy="264.703" r="1.96533" fill="black"/>
<circle cx="255.531" cy="272.564" r="1.96533" fill="black"/>
<circle cx="255.531" cy="280.425" r="1.96533" fill="black"/>
<circle cx="255.531" cy="288.286" r="1.96533" fill="black"/>
<circle cx="255.531" cy="296.148" r="1.96533" fill="black"/>
<circle cx="255.531" cy="304.009" r="1.96533" fill="black"/>
<circle cx="255.531" cy="311.87" r="1.96533" fill="black"/>
<circle cx="255.531" cy="319.732" r="1.96533" fill="black"/>
<circle cx="255.531" cy="327.593" r="1.96533" fill="black"/>
<circle cx="255.531" cy="335.454" r="1.96533" fill="black"/>
<circle cx="255.531" cy="343.316" r="1.96533" fill="black"/>
<circle cx="255.531" cy="351.177" r="1.96533" fill="black"/>
<circle cx="255.531" cy="359.038" r="1.96533" fill="black"/>
<circle cx="255.531" cy="366.9" r="1.96533" fill="black"/>
<circle cx="255.531" cy="374.761" r="1.96533" fill="black"/>
<circle cx="255.531" cy="382.622" r="1.96533" fill="black"/>
<circle cx="255.531" cy="390.484" r="1.96533" fill="black"/>
<circle cx="255.531" cy="398.345" r="1.96533" fill="black"/>
<circle cx="263.392" cy="170.367" r="1.96533" fill="black"/>
<circle cx="263.392" cy="178.228" r="1.96533" fill="black"/>
<circle cx="263.392" cy="186.089" r="1.96533" fill="black"/>
<circle cx="263.392" cy="193.951" r="1.96533" fill="black"/>
<circle cx="263.392" cy="201.812" r="1.96533" fill="black"/>
<circle cx="263.392" cy="209.673" r="1.96533" fill="black"/>
<circle cx="263.392" cy="217.535" r="1.96533" fill="black"/>
<circle cx="263.392" cy="225.396" r="1.96533" fill="black"/>
<circle cx="263.392" cy="233.257" r="1.96533" fill="black"/>
<circle cx="263.392" cy="241.119" r="1.96533" fill="black"/>
<circle cx="263.392" cy="248.98" r="1.96533" fill="black"/>
<circle cx="263.392" cy="256.841" r="1.96533" fill="black"/>
<circle cx="263.392" cy="264.703" r="1.96533" fill="black"/>
<circle cx="263.392" cy="272.564" r="1.96533" fill="black"/>
<circle cx="263.392" cy="280.425" r="1.96533" fill="black"/>
<circle cx="263.392" cy="288.286" r="1.96533" fill="black"/>
<circle cx="263.392" cy="296.148" r="1.96533" fill="black"/>
<circle cx="263.392" cy="304.009" r="1.96533" fill="black"/>
<circle cx="263.392" cy="311.87" r="1.96533" fill="black"/>
<circle cx="263.392" cy="319.732" r="1.96533" fill="black"/>
<circle cx="263.392" cy="327.593" r="1.96533" fill="black"/>
<circle cx="263.392" cy="335.454" r="1.96533" fill="black"/>
<circle cx="263.392" cy="343.316" r="1.96533" fill="black"/>
<circle cx="263.392" cy="351.177" r="1.96533" fill="black"/>
<circle cx="263.392" cy="359.038" r="1.96533" fill="black"/>
<circle cx="263.392" cy="366.9" r="1.96533" fill="black"/>
<circle cx="263.392" cy="374.761" r="1.96533" fill="black"/>
<circle cx="263.392" cy="382.622" r="1.96533" fill="black"/>
<circle cx="263.392" cy="390.484" r="1.96533" fill="black"/>
<circle cx="263.392" cy="398.345" r="1.96533" fill="black"/>
<circle cx="271.254" cy="170.367" r="1.96533" fill="black"/>
<circle cx="271.254" cy="178.228" r="1.96533" fill="black"/>
<circle cx="271.254" cy="186.089" r="1.96533" fill="black"/>
<circle cx="271.254" cy="193.951" r="1.96533" fill="black"/>
<circle cx="271.254" cy="201.812" r="1.96533" fill="black"/>
<circle cx="271.254" cy="209.673" r="1.96533" fill="black"/>
<circle cx="271.254" cy="217.535" r="1.96533" fill="black"/>
<circle cx="271.254" cy="225.396" r="1.96533" fill="black"/>
<circle cx="271.254" cy="233.257" r="1.96533" fill="black"/>
<circle cx="271.254" cy="241.119" r="1.96533" fill="black"/>
<circle cx="271.254" cy="248.98" r="1.96533" fill="black"/>
<circle cx="271.254" cy="256.841" r="1.96533" fill="black"/>
<circle cx="271.254" cy="264.703" r="1.96533" fill="black"/>
<circle cx="271.254" cy="272.564" r="1.96533" fill="black"/>
<circle cx="271.254" cy="280.425" r="1.96533" fill="black"/>
<circle cx="271.254" cy="288.286" r="1.96533" fill="black"/>
<circle cx="271.254" cy="296.148" r="1.96533" fill="black"/>
<circle cx="271.254" cy="304.009" r="1.96533" fill="black"/>
<circle cx="271.254" cy="311.87" r="1.96533" fill="black"/>
<circle cx="271.254" cy="319.732" r="1.96533" fill="black"/>
<circle cx="271.254" cy="327.593" r="1.96533" fill="black"/>
<circle cx="271.254" cy="335.454" r="1.96533" fill="black"/>
<circle cx="271.254" cy="343.316" r="1.96533" fill="black"/>
<circle cx="271.254" cy="351.177" r="1.96533" fill="black"/>
<circle cx="271.254" cy="359.038" r="1.96533" fill="black"/>
<circle cx="271.254" cy="366.9" r="1.96533" fill="black"/>
<circle cx="271.254" cy="374.761" r="1.96533" fill="black"/>
<circle cx="271.254" cy="382.622" r="1.96533" fill="black"/>
<circle cx="271.254" cy="390.484" r="1.96533" fill="black"/>
<circle cx="271.254" cy="398.345" r="1.96533" fill="black"/>
<circle cx="279.115" cy="170.367" r="1.96533" fill="black"/>
<circle cx="279.115" cy="178.228" r="1.96533" fill="black"/>
<circle cx="279.115" cy="186.089" r="1.96533" fill="black"/>
<circle cx="279.115" cy="193.951" r="1.96533" fill="black"/>
<circle cx="279.115" cy="201.812" r="1.96533" fill="black"/>
<circle cx="279.115" cy="209.673" r="1.96533" fill="black"/>
<circle cx="279.115" cy="217.535" r="1.96533" fill="black"/>
<circle cx="279.115" cy="225.396" r="1.96533" fill="black"/>
<circle cx="279.115" cy="233.257" r="1.96533" fill="black"/>
<circle cx="279.115" cy="241.119" r="1.96533" fill="black"/>
<circle cx="279.115" cy="248.98" r="1.96533" fill="black"/>
<circle cx="279.115" cy="256.841" r="1.96533" fill="black"/>
<circle cx="279.115" cy="264.703" r="1.96533" fill="black"/>
<circle cx="279.115" cy="272.564" r="1.96533" fill="black"/>
<circle cx="279.115" cy="280.425" r="1.96533" fill="black"/>
<circle cx="279.115" cy="288.286" r="1.96533" fill="black"/>
<circle cx="279.115" cy="296.148" r="1.96533" fill="black"/>
<circle cx="279.115" cy="304.009" r="1.96533" fill="black"/>
<circle cx="279.115" cy="311.87" r="1.96533" fill="black"/>
<circle cx="279.115" cy="319.732" r="1.96533" fill="black"/>
<circle cx="279.115" cy="327.593" r="1.96533" fill="black"/>
<circle cx="279.115" cy="335.454" r="1.96533" fill="black"/>
<circle cx="279.115" cy="343.316" r="1.96533" fill="black"/>
<circle cx="279.115" cy="351.177" r="1.96533" fill="black"/>
<circle cx="279.115" cy="359.038" r="1.96533" fill="black"/>
<circle cx="279.115" cy="366.9" r="1.96533" fill="black"/>
<circle cx="279.115" cy="374.761" r="1.96533" fill="black"/>
<circle cx="279.115" cy="382.622" r="1.96533" fill="black"/>
<circle cx="279.115" cy="390.484" r="1.96533" fill="black"/>
<circle cx="279.115" cy="398.345" r="1.96533" fill="black"/>
<circle cx="286.976" cy="170.367" r="1.96533" fill="black"/>
<circle cx="286.976" cy="178.228" r="1.96533" fill="black"/>
<circle cx="286.976" cy="186.089" r="1.96533" fill="black"/>
<circle cx="286.976" cy="193.951" r="1.96533" fill="black"/>
<circle cx="286.976" cy="201.812" r="1.96533" fill="black"/>
<circle cx="286.976" cy="209.673" r="1.96533" fill="black"/>
<circle cx="286.976" cy="217.535" r="1.96533" fill="black"/>
<circle cx="286.976" cy="225.396" r="1.96533" fill="black"/>
<circle cx="286.976" cy="233.257" r="1.96533" fill="black"/>
<circle cx="286.976" cy="241.119" r="1.96533" fill="black"/>
<circle cx="286.976" cy="248.98" r="1.96533" fill="black"/>
<circle cx="286.976" cy="256.841" r="1.96533" fill="black"/>
<circle cx="286.976" cy="264.703" r="1.96533" fill="black"/>
<circle cx="286.976" cy="272.564" r="1.96533" fill="black"/>
<circle cx="286.976" cy="280.425" r="1.96533" fill="black"/>
<circle cx="286.976" cy="288.286" r="1.96533" fill="black"/>
<circle cx="286.976" cy="296.148" r="1.96533" fill="black"/>
<circle cx="286.976" cy="304.009" r="1.96533" fill="black"/>
<circle cx="286.976" cy="311.87" r="1.96533" fill="black"/>
<circle cx="286.976" cy="319.732" r="1.96533" fill="black"/>
<circle cx="286.976" cy="327.593" r="1.96533" fill="black"/>
<circle cx="286.976" cy="335.454" r="1.96533" fill="black"/>
<circle cx="286.976" cy="343.316" r="1.96533" fill="black"/>
<circle cx="286.976" cy="351.177" r="1.96533" fill="black"/>
<circle cx="286.976" cy="359.038" r="1.96533" fill="black"/>
<circle cx="286.976" cy="366.9" r="1.96533" fill="black"/>
<circle cx="286.976" cy="374.761" r="1.96533" fill="black"/>
<circle cx="286.976" cy="382.622" r="1.96533" fill="black"/>
<circle cx="286.976" cy="390.484" r="1.96533" fill="black"/>
<circle cx="286.976" cy="398.345" r="1.96533" fill="black"/>
<circle cx="294.838" cy="170.367" r="1.96533" fill="black"/>
<circle cx="294.838" cy="178.228" r="1.96533" fill="black"/>
<circle cx="294.838" cy="186.089" r="1.96533" fill="black"/>
<circle cx="294.838" cy="193.951" r="1.96533" fill="black"/>
<circle cx="294.838" cy="201.812" r="1.96533" fill="black"/>
<circle cx="294.838" cy="209.673" r="1.96533" fill="black"/>
<circle cx="294.838" cy="217.535" r="1.96533" fill="black"/>
<circle cx="294.838" cy="225.396" r="1.96533" fill="black"/>
<circle cx="294.838" cy="233.257" r="1.96533" fill="black"/>
<circle cx="294.838" cy="241.119" r="1.96533" fill="black"/>
<circle cx="294.838" cy="248.98" r="1.96533" fill="black"/>
<circle cx="294.838" cy="256.841" r="1.96533" fill="black"/>
<circle cx="294.838" cy="264.703" r="1.96533" fill="black"/>
<circle cx="294.838" cy="272.564" r="1.96533" fill="black"/>
<circle cx="294.838" cy="280.425" r="1.96533" fill="black"/>
<circle cx="294.838" cy="288.286" r="1.96533" fill="black"/>
<circle cx="294.838" cy="296.148" r="1.96533" fill="black"/>
<circle cx="294.838" cy="304.009" r="1.96533" fill="black"/>
<circle cx="294.838" cy="311.87" r="1.96533" fill="black"/>
<circle cx="294.838" cy="319.732" r="1.96533" fill="black"/>
<circle cx="294.838" cy="327.593" r="1.96533" fill="black"/>
<circle cx="294.838" cy="335.454" r="1.96533" fill="black"/>
<circle cx="294.838" cy="343.316" r="1.96533" fill="black"/>
<circle cx="294.838" cy="351.177" r="1.96533" fill="black"/>
<circle cx="294.838" cy="359.038" r="1.96533" fill="black"/>
<circle cx="294.838" cy="366.9" r="1.96533" fill="black"/>
<circle cx="294.838" cy="374.761" r="1.96533" fill="black"/>
<circle cx="294.838" cy="382.622" r="1.96533" fill="black"/>
<circle cx="294.838" cy="390.484" r="1.96533" fill="black"/>
<circle cx="294.838" cy="398.345" r="1.96533" fill="black"/>
<circle cx="302.699" cy="170.367" r="1.96533" fill="black"/>
<circle cx="302.699" cy="178.228" r="1.96533" fill="black"/>
<circle cx="302.699" cy="186.089" r="1.96533" fill="black"/>
<circle cx="302.699" cy="193.951" r="1.96533" fill="black"/>
<circle cx="302.699" cy="201.812" r="1.96533" fill="black"/>
<circle cx="302.699" cy="209.673" r="1.96533" fill="black"/>
<circle cx="302.699" cy="217.535" r="1.96533" fill="black"/>
<circle cx="302.699" cy="225.396" r="1.96533" fill="black"/>
<circle cx="302.699" cy="233.257" r="1.96533" fill="black"/>
<circle cx="302.699" cy="241.119" r="1.96533" fill="black"/>
<circle cx="302.699" cy="248.98" r="1.96533" fill="black"/>
<circle cx="302.699" cy="256.841" r="1.96533" fill="black"/>
<circle cx="302.699" cy="264.703" r="1.96533" fill="black"/>
<circle cx="302.699" cy="272.564" r="1.96533" fill="black"/>
<circle cx="302.699" cy="280.425" r="1.96533" fill="black"/>
<circle cx="302.699" cy="288.286" r="1.96533" fill="black"/>
<circle cx="302.699" cy="296.148" r="1.96533" fill="black"/>
<circle cx="302.699" cy="304.009" r="1.96533" fill="black"/>
<circle cx="302.699" cy="311.87" r="1.96533" fill="black"/>
<circle cx="302.699" cy="319.732" r="1.96533" fill="black"/>
<circle cx="302.699" cy="327.593" r="1.96533" fill="black"/>
<circle cx="302.699" cy="335.454" r="1.96533" fill="black"/>
<circle cx="302.699" cy="343.316" r="1.96533" fill="black"/>
<circle cx="302.699" cy="351.177" r="1.96533" fill="black"/>
<circle cx="302.699" cy="359.038" r="1.96533" fill="black"/>
<circle cx="302.699" cy="366.9" r="1.96533" fill="black"/>
<circle cx="302.699" cy="374.761" r="1.96533" fill="black"/>
<circle cx="302.699" cy="382.622" r="1.96533" fill="black"/>
<circle cx="302.699" cy="390.484" r="1.96533" fill="black"/>
<circle cx="302.699" cy="398.345" r="1.96533" fill="black"/>
<circle cx="310.56" cy="170.367" r="1.96533" fill="black"/>
<circle cx="310.56" cy="178.228" r="1.96533" fill="black"/>
<circle cx="310.56" cy="186.089" r="1.96533" fill="black"/>
<circle cx="310.56" cy="193.951" r="1.96533" fill="black"/>
<circle cx="310.56" cy="201.812" r="1.96533" fill="black"/>
<circle cx="310.56" cy="209.673" r="1.96533" fill="black"/>
<circle cx="310.56" cy="217.535" r="1.96533" fill="black"/>
<circle cx="310.56" cy="225.396" r="1.96533" fill="black"/>
<circle cx="310.56" cy="233.257" r="1.96533" fill="black"/>
<circle cx="310.56" cy="241.119" r="1.96533" fill="black"/>
<circle cx="310.56" cy="248.98" r="1.96533" fill="black"/>
<circle cx="310.56" cy="256.841" r="1.96533" fill="black"/>
<circle cx="310.56" cy="264.703" r="1.96533" fill="black"/>
<circle cx="310.56" cy="272.564" r="1.96533" fill="black"/>
<circle cx="310.56" cy="280.425" r="1.96533" fill="black"/>
<circle cx="310.56" cy="288.286" r="1.96533" fill="black"/>
<circle cx="310.56" cy="296.148" r="1.96533" fill="black"/>
<circle cx="310.56" cy="304.009" r="1.96533" fill="black"/>
<circle cx="310.56" cy="311.87" r="1.96533" fill="black"/>
<circle cx="310.56" cy="319.732" r="1.96533" fill="black"/>
<circle cx="310.56" cy="327.593" r="1.96533" fill="black"/>
<circle cx="310.56" cy="335.454" r="1.96533" fill="black"/>
<circle cx="310.56" cy="343.316" r="1.96533" fill="black"/>
<circle cx="310.56" cy="351.177" r="1.96533" fill="black"/>
<circle cx="310.56" cy="359.038" r="1.96533" fill="black"/>
<circle cx="310.56" cy="366.9" r="1.96533" fill="black"/>
<circle cx="310.56" cy="374.761" r="1.96533" fill="black"/>
<circle cx="310.56" cy="382.622" r="1.96533" fill="black"/>
<circle cx="310.56" cy="390.484" r="1.96533" fill="black"/>
<circle cx="310.56" cy="398.345" r="1.96533" fill="black"/>
<circle cx="318.422" cy="170.367" r="1.96533" fill="black"/>
<circle cx="318.422" cy="178.228" r="1.96533" fill="black"/>
<circle cx="318.422" cy="186.089" r="1.96533" fill="black"/>
<circle cx="318.422" cy="193.951" r="1.96533" fill="black"/>
<circle cx="318.422" cy="201.812" r="1.96533" fill="black"/>
<circle cx="318.422" cy="209.673" r="1.96533" fill="black"/>
<circle cx="318.422" cy="217.535" r="1.96533" fill="black"/>
<circle cx="318.422" cy="225.396" r="1.96533" fill="black"/>
<circle cx="318.422" cy="233.257" r="1.96533" fill="black"/>
<circle cx="318.422" cy="241.119" r="1.96533" fill="black"/>
<circle cx="318.422" cy="248.98" r="1.96533" fill="black"/>
<circle cx="318.422" cy="256.841" r="1.96533" fill="black"/>
<circle cx="318.422" cy="264.703" r="1.96533" fill="black"/>
<circle cx="318.422" cy="272.564" r="1.96533" fill="black"/>
<circle cx="318.422" cy="280.425" r="1.96533" fill="black"/>
<circle cx="318.422" cy="288.286" r="1.96533" fill="black"/>
<circle cx="318.422" cy="296.148" r="1.96533" fill="black"/>
<circle cx="318.422" cy="304.009" r="1.96533" fill="black"/>
<circle cx="318.422" cy="311.87" r="1.96533" fill="black"/>
<circle cx="318.422" cy="319.732" r="1.96533" fill="black"/>
<circle cx="318.422" cy="327.593" r="1.96533" fill="black"/>
<circle cx="318.422" cy="335.454" r="1.96533" fill="black"/>
<circle cx="318.422" cy="343.316" r="1.96533" fill="black"/>
<circle cx="318.422" cy="351.177" r="1.96533" fill="black"/>
<circle cx="318.422" cy="359.038" r="1.96533" fill="black"/>
<circle cx="318.422" cy="366.9" r="1.96533" fill="black"/>
<circle cx="318.422" cy="374.761" r="1.96533" fill="black"/>
<circle cx="318.422" cy="382.622" r="1.96533" fill="black"/>
<circle cx="318.422" cy="390.484" r="1.96533" fill="black"/>
<circle cx="318.422" cy="398.345" r="1.96533" fill="black"/>
</g>
<path d="M129.095 219.5L186.089 167.091H277.011C281.429 167.091 285.011 170.673 285.011 175.091V391C285.011 395.418 281.429 399 277.011 399H84.6861C80.2679 399 76.6861 395.418 76.6861 391V267.978L129.095 219.5Z" fill="url(#paint2_linear_20_36482)"/>
<circle cx="185.434" cy="266.668" r="20.9635" fill="black"/>
<rect x="176.263" y="278.46" width="20.9635" height="52.4088" fill="black"/>
<path d="M131.715 212.949L159.23 185.434L177.573 167.091H186.745V267.978H76.6862L131.715 212.949Z" fill="black"/>
<rect x="127.785" y="240.464" width="9.17153" height="9.17153" fill="white"/>
<rect x="163.161" y="231.292" width="9.17153" height="9.17153" fill="#FF53F8"/>
<rect x="104.201" y="176.263" width="9.17153" height="9.17153" fill="#9020C7"/>
<rect x="140.887" y="176.263" width="9.17153" height="9.17153" fill="#9020C7"/>
<rect x="67.5146" y="249.635" width="9.17153" height="9.17153" fill="#FF53F8"/>
<rect x="49.1716" y="275.839" width="9.17153" height="9.17153" fill="#FF53F8"/>
<rect x="186.745" y="157.92" width="9.17153" height="9.17153" fill="#FF53F8"/>
<rect x="85.8577" y="194.606" width="9.17153" height="9.17153" fill="#9020C7"/>
<rect x="131.715" y="167.091" width="9.17153" height="9.17153" fill="#9020C7"/>
<rect x="76.6862" y="240.464" width="9.17153" height="9.17153" fill="#9020C7"/>
<rect x="67.5146" y="231.292" width="9.17153" height="9.17153" fill="#9020C7"/>
<rect x="58.343" y="222.12" width="9.17153" height="9.17153" fill="#FF53F8"/>
<rect x="76.6862" y="185.434" width="9.17153" height="9.17153" fill="#9020C7"/>
<rect x="150.058" y="148.748" width="9.17153" height="9.17153" fill="#9020C7"/>
<rect x="140.887" y="157.92" width="9.17153" height="9.17153" fill="#FF53F8"/>
<rect x="85.8577" y="176.263" width="9.17153" height="9.17153" fill="#FF53F8"/>
<rect x="76.6862" y="203.777" width="9.17153" height="9.17153" fill="#FF53F8"/>
<rect x="163.161" y="205.088" width="9.17153" height="9.17153" fill="white"/>
<rect x="136.956" y="249.635" width="9.17153" height="9.17153" fill="#FF53F8"/>
<rect x="127.785" y="258.807" width="9.17153" height="9.17153" fill="white"/>
<rect x="172.332" y="195.916" width="9.17153" height="9.17153" fill="white"/>
<rect x="144.818" y="222.12" width="18.3431" height="18.3431" fill="white"/>
<rect x="113.372" y="185.434" width="18.3431" height="18.3431" fill="#FF53F8"/>
<rect x="85.8577" y="212.949" width="18.3431" height="18.3431" fill="#9020C7"/>
<rect x="40" y="231.292" width="18.3431" height="18.3431" fill="#9020C7"/>
<rect x="76.6862" y="258.807" width="9.17153" height="9.17153" fill="#9020C7"/>
<rect x="67.5146" y="258.807" width="9.17153" height="9.17153" fill="#9020C7"/>
<rect x="58.343" y="266.668" width="9.17153" height="9.17153" fill="#9020C7"/>
<rect x="131.715" y="203.777" width="9.17153" height="9.17153" fill="#9020C7"/>
<rect x="85.8577" y="249.635" width="9.17153" height="9.17153" fill="#9020C7"/>
<rect x="140.887" y="194.606" width="9.17153" height="9.17153" fill="#9020C7"/>
<rect x="95.0292" y="240.464" width="9.17153" height="9.17153" fill="#9020C7"/>
<rect x="150.058" y="185.434" width="9.17153" height="9.17153" fill="#9020C7"/>
<rect x="104.201" y="231.292" width="9.17153" height="9.17153" fill="#9020C7"/>
<rect x="159.23" y="176.263" width="9.17153" height="9.17153" fill="#9020C7"/>
<rect x="113.372" y="222.12" width="9.17153" height="9.17153" fill="#9020C7"/>
<rect x="168.401" y="167.091" width="9.17153" height="9.17153" fill="#9020C7"/>
<rect x="195.916" y="148.748" width="9.17153" height="9.17153" fill="#9020C7"/>
<rect x="122.544" y="212.949" width="9.17153" height="9.17153" fill="#9020C7"/>
<rect x="113.372" y="231.292" width="9.17153" height="9.17153" fill="white"/>
<rect x="168.401" y="176.263" width="9.17153" height="9.17153" fill="white"/>
<rect x="140.887" y="203.777" width="9.17153" height="9.17153" fill="#FF53F8"/>
<rect x="95.0292" y="249.635" width="9.17153" height="9.17153" fill="white"/>
<path d="M164.471 267.978C164.471 265.053 165.047 262.157 166.166 259.454C167.286 256.752 168.926 254.297 170.995 252.228C173.063 250.16 175.518 248.519 178.221 247.4C180.923 246.281 183.82 245.704 186.745 245.704L186.745 267.978L164.471 267.978Z" fill="white"/>
</g>
<defs>
<filter id="filter0_f_20_36482" x="0" y="0" width="393.142" height="439" filterUnits="userSpaceOnUse" color-interpolation-filters="sRGB">
<feFlood flood-opacity="0" result="BackgroundImageFix"/>
<feBlend mode="normal" in="SourceGraphic" in2="BackgroundImageFix" result="shape"/>
<feGaussianBlur stdDeviation="20" result="effect1_foregroundBlur_20_36482"/>
</filter>
<linearGradient id="paint0_linear_20_36482" x1="188.515" y1="283.046" x2="317.766" y2="283.046" gradientUnits="userSpaceOnUse">
<stop stop-color="#8000FF"/>
<stop offset="1" stop-color="#FF53F8"/>
</linearGradient>
<linearGradient id="paint1_linear_20_36482" x1="188.515" y1="283.046" x2="317.766" y2="283.046" gradientUnits="userSpaceOnUse">
<stop stop-color="#8000FF"/>
<stop offset="1" stop-color="#FF53F8"/>
</linearGradient>
<linearGradient id="paint2_linear_20_36482" x1="79.5013" y1="283.046" x2="285.011" y2="283.046" gradientUnits="userSpaceOnUse">
<stop stop-color="#8000FF"/>
<stop offset="1" stop-color="#FF53F8"/>
</linearGradient>
</defs>
</svg>
