<svg width="100" height="80" viewBox="0 0 100 80" fill="none" xmlns="http://www.w3.org/2000/svg">
<path fillRule="evenodd" clipRule="evenodd" d="M88 27.56C77.68 21.6 63.64 16.6 62 16C63.4 16.28 74.44 18.72 85.96 22.48C79.48 9.16 65.8 0 50 0C31.6 0 16.08 12.4 11.44 29.36C10.92 31.24 10.52 33.16 10.32 35.12C6.55997 35.44 3.67997 36.32 1.99997 38C-2.28003 42.28 3.71997 47.68 12 52.44C22.32 58.4 36.36 63.4 38 64C36.6 63.72 25.56 61.28 14.04 57.52C20.56 70.84 34.2 80 50 80C68.4 80 83.92 67.56 88.56 50.64C89.08 48.76 89.48 46.84 89.68 44.88C93.44 44.56 96.32 43.68 98 42C102.28 37.72 96.28 32.32 88 27.56ZM42 68C39.8 68 38 66.2 38 64C38 61.8 39.8 60 42 60C44.2 60 46 61.8 46 64C46 66.2 44.2 68 42 68ZM58 20C55.8 20 54 18.2 54 16C54 13.8 55.8 12 58 12C60.2 12 62 13.8 62 16C62 18.2 60.2 20 58 20Z" fill="url(#paint0_linear_2328_6133)"/>
<path d="M46.08 31.9998V47.9998H42.2V38.3998L38.64 47.9998H35.48L31.88 38.3998V47.9998H28V31.9998H32.6L37.08 43.0798L41.52 31.9998H46.12H46.08Z" fill="#320F99"/>
<path d="M53 47.1598C51.76 46.4798 50.76 45.4798 50 44.2398C49.24 42.9998 48.88 41.5598 48.88 39.9998C48.88 38.4398 49.24 37.0398 50 35.7998C50.76 34.5598 51.72 33.5998 53 32.8798C54.28 32.1598 55.64 31.8398 57.12 31.8398C58.6 31.8398 60 32.1998 61.24 32.8798C62.48 33.5598 63.48 34.5598 64.2 35.7998C64.92 37.0398 65.28 38.4398 65.28 39.9998C65.28 41.5598 64.92 42.9598 64.2 44.2398C63.48 45.4798 62.48 46.4798 61.24 47.1598C60 47.8398 58.6 48.1998 57.12 48.1998C55.64 48.1998 54.24 47.8398 53 47.1598ZM60.2 43.3598C60.96 42.5198 61.36 41.3998 61.36 39.9998C61.36 38.5998 60.96 37.4398 60.2 36.5998C59.44 35.7598 58.4 35.3198 57.12 35.3198C55.84 35.3198 54.8 35.7198 54.04 36.5598C53.28 37.3998 52.88 38.5198 52.88 39.9598C52.88 41.3998 53.28 42.5198 54.04 43.3598C54.8 44.1998 55.84 44.6398 57.12 44.6398C58.4 44.6398 59.4 44.1998 60.2 43.3598Z" fill="#320F99"/>
<path d="M72 31.9998V47.9998H68.12V31.9998H72Z" fill="#320F99"/>
<defs>
<linearGradient id="paint0_linear_2328_6133" x1="50" y1="4.48" x2="50" y2="76.04" gradientUnits="userSpaceOnUse">
<stop stop-color="#BFBFBF"/>
<stop offset="1" stop-color="white"/>
</linearGradient>
</defs>
</svg>
