<svg width="100" height="80" viewBox="0 0 100 80" fill="none" xmlns="http://www.w3.org/2000/svg">
<path fillRule="evenodd" clipRule="evenodd" d="M88 27.56C77.68 21.6 63.64 16.6 62 16C63.4 16.28 74.44 18.72 85.96 22.48C79.48 9.16 65.8 0 50 0C31.6 0 16.08 12.4 11.44 29.36C10.92 31.24 10.52 33.16 10.32 35.12C6.55997 35.44 3.67997 36.32 1.99997 38C-2.28003 42.28 3.71997 47.68 12 52.44C22.32 58.4 36.36 63.4 38 64C36.6 63.72 25.56 61.28 14.04 57.52C20.56 70.84 34.2 80 50 80C68.4 80 83.92 67.56 88.56 50.64C89.08 48.76 89.48 46.84 89.68 44.88C93.44 44.56 96.32 43.68 98 42C102.28 37.72 96.28 32.32 88 27.56ZM42 68C39.8 68 38 66.2 38 64C38 61.8 39.8 60 42 60C44.2 60 46 61.8 46 64C46 66.2 44.2 68 42 68ZM58 20C55.8 20 54 18.2 54 16C54 13.8 55.8 12 58 12C60.2 12 62 13.8 62 16C62 18.2 60.2 20 58 20Z" fill="url(#paint0_linear_2328_3807)"/>
<path d="M46.08 32V48H42.2V38.4L38.64 48H35.48L31.88 38.4V48H28V32H32.6L37.08 43.08L41.52 32H46.12H46.08Z" fill="white"/>
<path d="M53 47.16C51.76 46.48 50.76 45.48 50 44.24C49.24 43 48.88 41.56 48.88 40C48.88 38.44 49.24 37.04 50 35.8C50.76 34.56 51.72 33.6 53 32.88C54.28 32.16 55.64 31.84 57.12 31.84C58.6 31.84 60 32.2 61.24 32.88C62.48 33.56 63.48 34.56 64.2 35.8C64.92 37.04 65.28 38.44 65.28 40C65.28 41.56 64.92 42.96 64.2 44.24C63.48 45.48 62.48 46.48 61.24 47.16C60 47.84 58.6 48.2 57.12 48.2C55.64 48.2 54.24 47.84 53 47.16ZM60.2 43.36C60.96 42.52 61.36 41.4 61.36 40C61.36 38.6 60.96 37.44 60.2 36.6C59.44 35.76 58.4 35.32 57.12 35.32C55.84 35.32 54.8 35.72 54.04 36.56C53.28 37.4 52.88 38.52 52.88 39.96C52.88 41.4 53.28 42.52 54.04 43.36C54.8 44.2 55.84 44.64 57.12 44.64C58.4 44.64 59.4 44.2 60.2 43.36Z" fill="white"/>
<path d="M72 32V48H68.12V32H72Z" fill="white"/>
<defs>
<linearGradient id="paint0_linear_2328_3807" x1="50" y1="0" x2="50" y2="80" gradientUnits="userSpaceOnUse">
<stop stop-color="#320F99"/>
<stop offset="1" stop-color="#4B17E5"/>
</linearGradient>
</defs>
</svg>
