<svg width="24" height="18" viewBox="0 0 24 18" fill="none" xmlns="http://www.w3.org/2000/svg">
<path d="M23.25 2.13282C22.406 2.49955 21.513 2.74116 20.5992 2.85001C21.5595 2.28769 22.2817 1.39434 22.6303 0.337508C21.7224 0.86841 20.7307 1.24092 19.6978 1.43907C19.2629 0.983225 18.7397 0.620588 18.1603 0.373201C17.5808 0.125814 16.9571 -0.00115656 16.327 7.93801e-06C13.7761 7.93801e-06 11.7117 2.03438 11.7117 4.5422C11.7099 4.89102 11.7499 5.23881 11.8308 5.57813C10.0016 5.49238 8.2104 5.02575 6.57187 4.2081C4.93333 3.39044 3.48351 2.23977 2.31516 0.829695C1.90527 1.52069 1.6885 2.30909 1.6875 3.11251C1.6875 4.68751 2.50922 6.0797 3.75 6.89532C3.01487 6.87787 2.29481 6.68331 1.65094 6.32813V6.38438C1.65094 8.58751 3.24469 10.4203 5.35406 10.8375C4.9574 10.9432 4.54864 10.9968 4.13812 10.9969C3.84683 10.9974 3.5562 10.9691 3.27047 10.9125C3.85687 12.7172 5.56359 14.0297 7.58531 14.0672C5.94252 15.3333 3.9256 16.0175 1.85156 16.0125C1.48341 16.012 1.11561 15.99 0.75 15.9469C2.85993 17.2942 5.31255 18.0068 7.81594 18C16.3172 18 20.9616 11.0766 20.9616 5.07188C20.9616 4.87501 20.9564 4.67813 20.947 4.48595C21.8485 3.84472 22.6283 3.04787 23.25 2.13282Z" fill="#8E20C6"/>
</svg>
