<svg id="Objects" xmlns="http://www.w3.org/2000/svg" xmlns:xlink="http://www.w3.org/1999/xlink" viewBox="0 0 32 28">
  <defs>
    <style>
      .cls-1 {
        fill: url(#linear-gradient);
        fill-rule: evenodd;
      }

      .cls-2 {
        fill: #320f99;
      }
    </style>
    <linearGradient id="linear-gradient" x1="16" y1="5.12" x2="16" y2="23.01" gradientUnits="userSpaceOnUse">
      <stop offset="0" stop-color="#bfbfbf"/>
      <stop offset="1" stop-color="#fff"/>
    </linearGradient>
  </defs>
  <g id="MOI_Logo" data-name="MOI Logo">
    <path id="MOI_Shape" data-name="MOI Shape" class="cls-1" d="m25.5,10.89c-2.58-1.49-6.09-2.74-6.5-2.89.35.07,3.11.68,5.99,1.62-1.62-3.33-5.04-5.62-8.99-5.62-4.6,0-8.48,3.1-9.64,7.34-.13.47-.23.95-.28,1.44-.94.08-1.66.3-2.08.72-1.07,1.07.43,2.42,2.5,3.61,2.58,1.49,6.09,2.74,6.5,2.89-.35-.07-3.11-.68-5.99-1.62,1.63,3.33,5.04,5.62,8.99,5.62,4.6,0,8.48-3.11,9.64-7.34.13-.47.23-.95.28-1.44.94-.08,1.66-.3,2.08-.72,1.07-1.07-.43-2.42-2.5-3.61Zm-11.5,10.11c-.55,0-1-.45-1-1s.45-1,1-1,1,.45,1,1-.45,1-1,1Zm4-12c-.55,0-1-.45-1-1s.45-1,1-1,1,.45,1,1-.45,1-1,1Z"/>
    <g id="MOI_Lettering" data-name="MOI Lettering">
      <path class="cls-2" d="m15.03,12v4h-.97v-2.4l-.89,2.4h-.79l-.9-2.4v2.4h-.97v-4h1.15l1.12,2.77,1.11-2.77h1.15Z"/>
      <path class="cls-2" d="m16.75,15.79c-.31-.17-.56-.42-.75-.73s-.28-.67-.28-1.06.09-.74.28-1.05.43-.55.75-.73.66-.26,1.03-.26.72.09,1.03.26c.31.17.56.42.74.73.18.31.27.66.27,1.05s-.09.74-.27,1.06c-.18.31-.43.56-.74.73-.31.17-.66.26-1.03.26s-.72-.09-1.03-.26Zm1.8-.95c.19-.21.29-.49.29-.84s-.1-.64-.29-.85c-.19-.21-.45-.32-.77-.32s-.58.1-.77.31c-.19.21-.29.49-.29.85s.1.64.29.85c.19.21.45.32.77.32s.57-.11.77-.32Z"/>
      <path class="cls-2" d="m21.5,12v4h-.97v-4h.97Z"/>
    </g>
  </g>
</svg>
